STARTFONT 2.1
COMMENT
COMMENT Converted from OpenType font "MFLanSong_Noncommercial-Regular.ttf" by "otf2bdf 3.0".
COMMENT
FONT -FreeType-MF LanSong(Noncommercial)-Medium-R-Normal--50-360-100-100-P-332-ISO10646-1
SIZE 36 100 100
FONTBOUNDINGBOX 37 59 0 -15
STARTPROPERTIES 19
FOUNDRY "FreeType"
FAMILY_NAME "MF LanSong(Noncommercial)"
WEIGHT_NAME "Medium"
SLANT "R"
SETWIDTH_NAME "Normal"
ADD_STYLE_NAME ""
PIXEL_SIZE 50
POINT_SIZE 360
RESOLUTION_X 100
RESOLUTION_Y 100
SPACING "P"
AVERAGE_WIDTH 332
CHARSET_REGISTRY "ISO10646"
CHARSET_ENCODING "1"
FONT_ASCENT 43
FONT_DESCENT 15
COPYRIGHT "© 2020SN. All rights reserved."
_OTF_FONTFILE "MFLanSong_Noncommercial-Regular.ttf"
_OTF_PSNAME "MF LanSong(Noncommercial)-Regular"
ENDPROPERTIES
CHARS 7256
STARTCHAR 0000
ENCODING 0
SWIDTH 240 0
DWIDTH 12 0
BBX 0 0 0 0
BITMAP
ENDCHAR
STARTCHAR 0001
ENCODING 1
SWIDTH 240 0
DWIDTH 12 0
BBX 0 0 0 0
BITMAP
ENDCHAR
STARTCHAR 0002
ENCODING 2
SWIDTH 240 0
DWIDTH 12 0
BBX 0 0 0 0
BITMAP
ENDCHAR
STARTCHAR 0003
ENCODING 3
SWIDTH 240 0
DWIDTH 12 0
BBX 0 0 0 0
BITMAP
ENDCHAR
STARTCHAR 0004
ENCODING 4
SWIDTH 240 0
DWIDTH 12 0
BBX 0 0 0 0
BITMAP
ENDCHAR
STARTCHAR 0005
ENCODING 5
SWIDTH 240 0
DWIDTH 12 0
BBX 0 0 0 0
BITMAP
ENDCHAR
STARTCHAR 0006
ENCODING 6
SWIDTH 240 0
DWIDTH 12 0
BBX 0 0 0 0
BITMAP
ENDCHAR
STARTCHAR 0007
ENCODING 7
SWIDTH 240 0
DWIDTH 12 0
BBX 0 0 0 0
BITMAP
ENDCHAR
STARTCHAR 000A
ENCODING 10
SWIDTH 240 0
DWIDTH 12 0
BBX 0 0 0 0
BITMAP
ENDCHAR
STARTCHAR 000B
ENCODING 11
SWIDTH 240 0
DWIDTH 12 0
BBX 0 0 0 0
BITMAP
ENDCHAR
STARTCHAR 000C
ENCODING 12
SWIDTH 240 0
DWIDTH 12 0
BBX 0 0 0 0
BITMAP
ENDCHAR
STARTCHAR 000E
ENCODING 14
SWIDTH 240 0
DWIDTH 12 0
BBX 0 0 0 0
BITMAP
ENDCHAR
STARTCHAR 000F
ENCODING 15
SWIDTH 240 0
DWIDTH 12 0
BBX 0 0 0 0
BITMAP
ENDCHAR
STARTCHAR 0010
ENCODING 16
SWIDTH 240 0
DWIDTH 12 0
BBX 0 0 0 0
BITMAP
ENDCHAR
STARTCHAR 0011
ENCODING 17
SWIDTH 240 0
DWIDTH 12 0
BBX 0 0 0 0
BITMAP
ENDCHAR
STARTCHAR 0012
ENCODING 18
SWIDTH 240 0
DWIDTH 12 0
BBX 0 0 0 0
BITMAP
ENDCHAR
STARTCHAR 0013
ENCODING 19
SWIDTH 240 0
DWIDTH 12 0
BBX 0 0 0 0
BITMAP
ENDCHAR
STARTCHAR 0014
ENCODING 20
SWIDTH 240 0
DWIDTH 12 0
BBX 0 0 0 0
BITMAP
ENDCHAR
STARTCHAR 0015
ENCODING 21
SWIDTH 240 0
DWIDTH 12 0
BBX 0 0 0 0
BITMAP
ENDCHAR
STARTCHAR 0016
ENCODING 22
SWIDTH 240 0
DWIDTH 12 0
BBX 0 0 0 0
BITMAP
ENDCHAR
STARTCHAR 0017
ENCODING 23
SWIDTH 240 0
DWIDTH 12 0
BBX 0 0 0 0
BITMAP
ENDCHAR
STARTCHAR 0018
ENCODING 24
SWIDTH 240 0
DWIDTH 12 0
BBX 0 0 0 0
BITMAP
ENDCHAR
STARTCHAR 0019
ENCODING 25
SWIDTH 240 0
DWIDTH 12 0
BBX 0 0 0 0
BITMAP
ENDCHAR
STARTCHAR 001A
ENCODING 26
SWIDTH 240 0
DWIDTH 12 0
BBX 0 0 0 0
BITMAP
ENDCHAR
STARTCHAR 001B
ENCODING 27
SWIDTH 240 0
DWIDTH 12 0
BBX 0 0 0 0
BITMAP
ENDCHAR
STARTCHAR 001C
ENCODING 28
SWIDTH 240 0
DWIDTH 12 0
BBX 0 0 0 0
BITMAP
ENDCHAR
STARTCHAR 001D
ENCODING 29
SWIDTH 240 0
DWIDTH 12 0
BBX 0 0 0 0
BITMAP
ENDCHAR
STARTCHAR 001E
ENCODING 30
SWIDTH 240 0
DWIDTH 12 0
BBX 0 0 0 0
BITMAP
ENDCHAR
STARTCHAR 001F
ENCODING 31
SWIDTH 240 0
DWIDTH 12 0
BBX 0 0 0 0
BITMAP
ENDCHAR
STARTCHAR 0020
ENCODING 32
SWIDTH 240 0
DWIDTH 12 0
BBX 0 0 0 0
BITMAP
ENDCHAR
STARTCHAR 0021
ENCODING 33
SWIDTH 100 0
DWIDTH 5 0
BBX 3 43 1 -2
BITMAP
40
60
60
60
60
60
60
60
60
60
60
60
60
60
60
60
60
60
60
60
60
60
60
60
60
60
60
60
60
60
60
60
60
40
00
00
00
00
00
00
E0
E0
E0
ENDCHAR
STARTCHAR 0022
ENCODING 34
SWIDTH 240 0
DWIDTH 12 0
BBX 10 9 1 33
BITMAP
18C0
18C0
39C0
3180
2180
6300
4200
C200
8400
ENDCHAR
STARTCHAR 0023
ENCODING 35
SWIDTH 540 0
DWIDTH 27 0
BBX 25 40 1 -1
BITMAP
00200800
00300C00
00300C00
00701C00
00701C00
00601800
00601800
00601800
7FFFFF80
3FFFFF00
00C03000
00C03000
00C07000
01C07000
01806000
01806000
01806000
0380E000
0380C000
0300C000
0300C000
0301C000
0701C000
FFFFFF00
FFFFFE00
06018000
06038000
0E038000
0C030000
0C030000
0C030000
0C070000
1C060000
18060000
18060000
18060000
180E0000
380C0000
300C0000
30080000
ENDCHAR
STARTCHAR 0024
ENCODING 36
SWIDTH 440 0
DWIDTH 22 0
BBX 19 43 1 -3
BITMAP
004000
006000
006000
006000
07FC00
1FFF00
1C6780
386380
7061C0
7060E0
6060E0
606040
606000
606000
706000
386000
3C6000
1E6000
07E000
03F000
007C00
007E00
006780
006380
0061C0
0060C0
0060E0
006060
C06060
C06060
C06060
C06060
E060E0
6060C0
7061C0
3863C0
1F6F80
0FFE00
03F800
006000
006000
006000
004000
ENDCHAR
STARTCHAR 0025
ENCODING 37
SWIDTH 600 0
DWIDTH 30 0
BBX 27 41 1 -2
BITMAP
00000800
00000C00
0F000C00
3F801C00
39C01800
70E03800
60603000
C0303000
C0307000
C0306000
C0306000
C030E000
C030C000
6061C000
60E18000
39C18000
3FC38000
0F030000
00070000
00060000
00060000
000E0000
000C0000
001C0000
001C3E00
00187F80
0038E180
0030C0C0
0071C0E0
00718060
00618060
00E18060
00C18060
00C18060
01C1C0E0
0180C0C0
0380E3C0
03807F80
03001E00
07000000
06000000
ENDCHAR
STARTCHAR 0026
ENCODING 38
SWIDTH 520 0
DWIDTH 26 0
BBX 22 41 2 -2
BITMAP
07E000
1FF800
3C1C00
700E00
600700
E00300
C00380
C00180
C00180
C00180
C00180
600300
600700
700600
380E00
1C3C00
1C7800
0EF000
07C000
038000
07C000
0EE000
1C7030
383830
301C30
700E30
600E30
E00730
C003B0
C001B0
C000F0
C000F0
C00060
C00070
6000F0
6000F8
7001D8
38039C
1E0F0C
0FFE0C
03F000
ENDCHAR
STARTCHAR 0027
ENCODING 39
SWIDTH 120 0
DWIDTH 6 0
BBX 5 9 0 33
BITMAP
18
18
38
30
30
60
40
C0
80
ENDCHAR
STARTCHAR 0028
ENCODING 40
SWIDTH 220 0
DWIDTH 11 0
BBX 7 43 2 -1
BITMAP
04
0E
0E
0E
1C
1C
38
38
30
30
70
60
60
60
60
E0
C0
C0
C0
C0
C0
C0
C0
C0
C0
C0
C0
C0
C0
40
60
60
60
30
30
30
38
18
1C
1C
0E
0E
06
ENDCHAR
STARTCHAR 0029
ENCODING 41
SWIDTH 200 0
DWIDTH 10 0
BBX 6 43 2 -1
BITMAP
40
C0
E0
E0
60
70
30
30
30
38
18
18
18
18
1C
0C
0C
0C
0C
0C
0C
0C
0C
0C
0C
0C
0C
0C
1C
1C
18
18
18
18
38
30
30
70
60
60
E0
C0
C0
ENDCHAR
STARTCHAR 002A
ENCODING 42
SWIDTH 280 0
DWIDTH 14 0
BBX 10 11 2 31
BITMAP
0C00
0C00
0C00
CCC0
EBC0
3F00
0C00
1E00
3300
7380
6180
ENDCHAR
STARTCHAR 002B
ENCODING 43
SWIDTH 520 0
DWIDTH 26 0
BBX 24 28 1 2
BITMAP
001000
001800
001800
001800
001800
001800
001800
001800
001800
001800
001800
FFFFFF
7FFFFE
001800
001800
001800
001800
001800
001800
001800
001800
001800
001800
001800
001800
001800
001800
001000
ENDCHAR
STARTCHAR 002C
ENCODING 44
SWIDTH 120 0
DWIDTH 6 0
BBX 4 9 1 -6
BITMAP
30
30
70
60
60
40
40
80
80
ENDCHAR
STARTCHAR 002D
ENCODING 45
SWIDTH 560 0
DWIDTH 28 0
BBX 24 2 2 17
BITMAP
FFFFFF
7FFFFE
ENDCHAR
STARTCHAR 002E
ENCODING 46
SWIDTH 100 0
DWIDTH 5 0
BBX 3 3 1 -1
BITMAP
E0
E0
E0
ENDCHAR
STARTCHAR 002F
ENCODING 47
SWIDTH 220 0
DWIDTH 11 0
BBX 10 44 1 -2
BITMAP
00C0
00C0
00C0
01C0
01C0
0180
0180
0180
0180
0380
0300
0300
0300
0300
0700
0600
0600
0600
0600
0E00
0E00
0C00
0C00
0C00
0C00
1C00
1800
1800
1800
1800
3800
3000
3000
3000
3000
7000
7000
6000
6000
6000
6000
E000
C000
C000
ENDCHAR
STARTCHAR 0030
ENCODING 48
SWIDTH 480 0
DWIDTH 24 0
BBX 20 41 2 -2
BITMAP
01F800
03FE00
070F00
0C0380
180380
1801C0
3000C0
3000E0
6000E0
600060
600060
600070
400070
C00030
C00030
C00030
C00030
C00030
C00030
C00030
C00030
C00030
C00030
C00030
C00030
C00030
C00030
E00030
E00030
E00060
600060
600060
700060
7000C0
3000C0
3801C0
180180
1C0300
0F0F00
07FC00
01F800
ENDCHAR
STARTCHAR 0031
ENCODING 49
SWIDTH 280 0
DWIDTH 14 0
BBX 12 39 1 0
BITMAP
7E00
3E00
0600
0600
0600
0600
0600
0600
0600
0600
0600
0600
0600
0600
0600
0600
0600
0600
0600
0600
0600
0600
0600
0600
0600
0600
0600
0600
0600
0600
0600
0600
0600
0600
0600
0600
0600
FFF0
7FE0
ENDCHAR
STARTCHAR 0032
ENCODING 50
SWIDTH 460 0
DWIDTH 23 0
BBX 20 40 2 -1
BITMAP
03F800
0FFE00
1E0F00
380380
7001C0
7000C0
6000E0
E00060
E00060
C00060
C00060
C00060
400060
0000E0
0000C0
0000C0
0001C0
000380
000300
000700
000E00
001C00
003800
007000
01E000
03C000
078000
0F0000
0E0000
1C0000
380000
300000
700000
700000
600000
E00000
E00000
C00000
FFFFF0
FFFFE0
ENDCHAR
STARTCHAR 0033
ENCODING 51
SWIDTH 480 0
DWIDTH 24 0
BBX 20 41 2 -2
BITMAP
01F800
0FFE00
1E0F00
380380
300180
7000C0
6000C0
E00060
C00060
C00060
C00060
000060
000060
000060
0000E0
0000C0
0001C0
000380
000F00
03FE00
03FE00
000700
000380
0001C0
0000E0
000060
000070
000030
000030
C00030
C00030
C00030
C00030
E00070
600060
7000E0
3800C0
1C0180
0F0700
07FE00
01F800
ENDCHAR
STARTCHAR 0034
ENCODING 52
SWIDTH 460 0
DWIDTH 23 0
BBX 21 41 1 -1
BITMAP
018200
018300
018300
038300
030300
030300
030300
070300
060300
060300
060300
0C0300
0C0300
0C0300
1C0300
180300
180300
180300
380300
300300
300300
700300
600300
600300
600300
E00300
C00300
FFFFF8
FFFFF0
000300
000300
000300
000300
000300
000300
000300
000300
000300
000300
000300
000200
ENDCHAR
STARTCHAR 0035
ENCODING 53
SWIDTH 460 0
DWIDTH 23 0
BBX 20 41 2 -2
BITMAP
200000
300000
300000
300000
3FFFF0
3FFFE0
300000
300000
300000
300000
300000
300000
300000
300000
300000
300000
3FF800
3FFE00
000F00
000380
0001C0
0000E0
000060
000060
000070
000030
000030
000030
000030
C00030
C00030
C00030
C00060
600060
6000E0
7000C0
3801C0
1C0380
1E0F00
0FFE00
01F800
ENDCHAR
STARTCHAR 0036
ENCODING 54
SWIDTH 480 0
DWIDTH 24 0
BBX 20 39 2 0
BITMAP
01FC00
07FF00
0F0380
1E01C0
1C00E0
380060
300070
700030
600030
600030
E00000
E00000
C00000
C00000
C0FC00
C3FE00
C70780
CE0180
DC00C0
F800E0
F00060
F00060
F00070
E00030
E00030
E00030
E00030
600030
600030
600030
700030
700060
300060
3800E0
1C00C0
1E0180
0F0780
07FF00
01FC00
ENDCHAR
STARTCHAR 0037
ENCODING 55
SWIDTH 420 0
DWIDTH 21 0
BBX 19 39 1 -2
BITMAP
FFFFE0
7FFFE0
000060
0000E0
0000C0
0000C0
0001C0
000180
000180
000180
000380
000300
000300
000700
000600
000600
000E00
000C00
000C00
000C00
001C00
001800
001800
003800
003000
003000
007000
006000
006000
006000
00E000
00C000
00C000
01C000
018000
018000
038000
030000
030000
ENDCHAR
STARTCHAR 0038
ENCODING 56
SWIDTH 500 0
DWIDTH 25 0
BBX 21 41 2 -2
BITMAP
01FC00
07FF00
0F0780
1C01C0
3800E0
300060
700070
600030
600030
600030
600030
600030
600030
700060
3800E0
1800C0
1E03C0
0F8F80
03FE00
03FE00
0F8F80
1E03C0
3800E0
300060
700070
600030
E00038
C00018
C00018
C00018
C00018
C00018
C00018
600038
600030
700070
3800E0
1C01C0
0F0780
07FF00
01FC00
ENDCHAR
STARTCHAR 0039
ENCODING 57
SWIDTH 480 0
DWIDTH 24 0
BBX 20 41 2 -2
BITMAP
01F800
07FE00
0F0700
1C0380
3801C0
3000C0
600060
600060
E00060
C00030
C00030
C00030
C00030
C00030
C00030
600070
600070
7000F0
3800F0
1C01B0
0E0730
07FE30
01F830
000030
000030
000030
000030
000030
000020
E00060
E00060
E00060
700060
7000C0
7000C0
3801C0
380180
1C0300
0F0F00
07FE00
01F800
ENDCHAR
STARTCHAR 003A
ENCODING 58
SWIDTH 100 0
DWIDTH 5 0
BBX 3 27 1 2
BITMAP
E0
E0
E0
00
00
00
00
00
00
00
00
00
00
00
00
00
00
00
00
00
00
00
00
00
E0
E0
E0
ENDCHAR
STARTCHAR 003B
ENCODING 59
SWIDTH 80 0
DWIDTH 4 0
BBX 3 30 0 -2
BITMAP
E0
E0
E0
00
00
00
00
00
00
00
00
00
00
00
00
00
00
00
00
00
00
00
60
60
60
40
40
C0
80
80
ENDCHAR
STARTCHAR 003C
ENCODING 60
SWIDTH 440 0
DWIDTH 22 0
BBX 19 27 1 2
BITMAP
000020
000060
0001E0
0003C0
000F00
003E00
007800
01E000
03C000
0F0000
1E0000
780000
F00000
E00000
780000
3C0000
0F0000
078000
01E000
00F000
003800
001E00
000F00
0003C0
0001E0
000060
000020
ENDCHAR
STARTCHAR 003D
ENCODING 61
SWIDTH 560 0
DWIDTH 28 0
BBX 24 12 2 12
BITMAP
FFFFFF
7FFFFE
000000
000000
000000
000000
000000
000000
000000
000000
FFFFFF
7FFFFE
ENDCHAR
STARTCHAR 003E
ENCODING 62
SWIDTH 420 0
DWIDTH 21 0
BBX 19 27 1 2
BITMAP
800000
C00000
F00000
780000
1E0000
0F8000
03C000
00F000
007800
001E00
000F00
0003C0
0001E0
0000E0
0003C0
000780
001E00
003C00
00F000
01E000
038000
0F0000
1E0000
780000
F00000
C00000
800000
ENDCHAR
STARTCHAR 003F
ENCODING 63
SWIDTH 420 0
DWIDTH 21 0
BBX 19 43 1 -2
BITMAP
03F800
0FFE00
1E0F00
380380
3001C0
7000C0
6000C0
6000E0
E00060
C00060
C00060
400060
000060
000060
0000C0
0000C0
0001C0
000180
000380
000700
000E00
001C00
003800
003000
007000
006000
006000
006000
006000
006000
006000
006000
006000
006000
006000
000000
000000
000000
000000
000000
00E000
00E000
006000
ENDCHAR
STARTCHAR 0040
ENCODING 64
SWIDTH 700 0
DWIDTH 35 0
BBX 30 41 2 -2
BITMAP
001FE000
007FF800
01F03E00
03800700
07000380
0E0001C0
0C0000C0
18000060
38000070
300FC030
301FEC30
60387C18
60703C18
60601C18
60601C1C
C0E01C0C
C0C00C0C
C0C00C0C
C0C00C0C
C0C00C0C
C0C00C0C
C0C00C0C
C0C00C0C
C0C00C0C
C0E01C0C
E0601C1C
60603C18
60703C18
60387630
701FE7F0
300F83E0
30000000
18000000
1C000030
0C000070
0E0000E0
070001C0
03C00780
01F83E00
007FFC00
001FE000
ENDCHAR
STARTCHAR 0041
ENCODING 65
SWIDTH 560 0
DWIDTH 28 0
BBX 25 41 2 -2
BITMAP
00180000
001C0000
003C0000
003C0000
003E0000
00360000
00760000
00660000
00670000
00E30000
00C30000
00C38000
00C18000
01C18000
01818000
0181C000
0380C000
0380C000
0300E000
0300E000
07FFE000
07FFE000
06007000
0E003000
0C003000
0C003800
0C003800
1C001800
18001800
18001C00
38000C00
30000C00
30000E00
30000600
70000600
60000600
60000700
E0000300
C0000300
C0000380
80000180
ENDCHAR
STARTCHAR 0042
ENCODING 66
SWIDTH 500 0
DWIDTH 25 0
BBX 21 41 2 -2
BITMAP
FFF000
FFFC00
C01F00
C00380
C001C0
C000C0
C000C0
C00060
C00060
C00060
C00060
C00060
C00060
C00060
C000E0
C000C0
C001C0
C00380
C01F00
FFFE00
FFFE00
C00F80
C001C0
C000E0
C00070
C00030
C00038
C00018
C00018
C00018
C00018
C00018
C00018
C00030
C00030
C00070
C00060
C001C0
C00F80
FFFE00
FFF000
ENDCHAR
STARTCHAR 0043
ENCODING 67
SWIDTH 500 0
DWIDTH 25 0
BBX 21 41 2 -2
BITMAP
00F800
03FE00
078780
0E0180
1C00C0
3800E0
300060
300030
700030
600030
600010
600000
E00000
E00000
C00000
C00000
C00000
C00000
C00000
C00000
C00000
C00000
C00000
C00000
C00000
C00018
C00018
E00018
600018
600018
600038
600030
300030
300030
380070
180060
1C00E0
0E01C0
078380
03FF00
00FC00
ENDCHAR
STARTCHAR 0044
ENCODING 68
SWIDTH 480 0
DWIDTH 24 0
BBX 20 40 2 -1
BITMAP
FFC000
FFF000
C07C00
C01E00
C00700
C00380
C00180
C001C0
C000C0
C000E0
C00060
C00060
C00060
C00070
C00030
C00030
C00030
C00030
C00030
C00030
C00030
C00030
C00030
C00030
C00030
C00070
C00060
C00060
C00060
C00060
C000C0
C000C0
C001C0
C00180
C00380
C00700
C00E00
C07C00
FFF000
FFC000
ENDCHAR
STARTCHAR 0045
ENCODING 69
SWIDTH 460 0
DWIDTH 23 0
BBX 20 40 2 -1
BITMAP
FFFFE0
FFFFC0
C00000
C00000
C00000
C00000
C00000
C00000
C00000
C00000
C00000
C00000
C00000
C00000
C00000
C00000
C00000
FFFF80
FFFF80
C00000
C00000
C00000
C00000
C00000
C00000
C00000
C00000
C00000
C00000
C00000
C00000
C00000
C00000
C00000
C00000
C00000
C00000
C00000
FFFFF0
FFFFE0
ENDCHAR
STARTCHAR 0046
ENCODING 70
SWIDTH 420 0
DWIDTH 21 0
BBX 19 41 2 -2
BITMAP
FFFFE0
FFFFC0
C00000
C00000
C00000
C00000
C00000
C00000
C00000
C00000
C00000
C00000
C00000
C00000
C00000
C00000
C00000
C00000
C00000
FFFF80
FFFF00
C00000
C00000
C00000
C00000
C00000
C00000
C00000
C00000
C00000
C00000
C00000
C00000
C00000
C00000
C00000
C00000
C00000
C00000
C00000
800000
ENDCHAR
STARTCHAR 0047
ENCODING 71
SWIDTH 500 0
DWIDTH 25 0
BBX 21 40 2 -1
BITMAP
00FC00
03FF00
078780
0E01C0
1C00E0
180060
380070
300030
700038
600038
600018
600000
E00000
E00000
C00000
C00000
C00000
C00000
C00000
C01FF8
C00FF8
C00018
C00018
C00018
C00018
C00018
E00018
600018
600038
600038
600038
700030
300070
380070
180060
1C00E0
0E01C0
078780
03FF00
00FC00
ENDCHAR
STARTCHAR 0048
ENCODING 72
SWIDTH 480 0
DWIDTH 24 0
BBX 20 41 2 -2
BITMAP
800020
C00030
C00030
C00030
C00030
C00030
C00030
C00030
C00030
C00030
C00030
C00030
C00030
C00030
C00030
C00030
C00030
C00030
FFFFF0
FFFFF0
C00030
C00030
C00030
C00030
C00030
C00030
C00030
C00030
C00030
C00030
C00030
C00030
C00030
C00030
C00030
C00030
C00030
C00030
C00030
C00030
800020
ENDCHAR
STARTCHAR 0049
ENCODING 73
SWIDTH 340 0
DWIDTH 17 0
BBX 15 41 1 -2
BITMAP
7FFE
3FFC
0180
0180
0180
0180
0180
0180
0180
0180
0180
0180
0180
0180
0180
0180
0180
0180
0180
0180
0180
0180
0180
0180
0180
0180
0180
0180
0180
0180
0180
0180
0180
0180
0180
0180
0180
0180
0180
FFFE
7FFC
ENDCHAR
STARTCHAR 004A
ENCODING 74
SWIDTH 320 0
DWIDTH 16 0
BBX 14 41 0 -2
BITMAP
0008
000C
000C
000C
000C
000C
000C
000C
000C
000C
000C
000C
000C
000C
000C
000C
000C
000C
000C
000C
000C
000C
000C
000C
000C
000C
000C
000C
000C
000C
000C
C00C
C00C
C00C
C00C
6018
6018
7038
3870
1FE0
0FC0
ENDCHAR
STARTCHAR 004B
ENCODING 75
SWIDTH 480 0
DWIDTH 24 0
BBX 20 41 2 -2
BITMAP
800020
C00060
C000E0
C001C0
C00180
C00380
C00700
C00E00
C00C00
C01C00
C03800
C07000
C06000
C0E000
C1C000
C38000
C3C000
C7C000
CEE000
DC6000
D87000
F83000
F03800
E01800
E01C00
C00C00
C00C00
C00600
C00600
C00700
C00300
C00380
C00180
C001C0
C000C0
C000E0
C00060
C00070
C00030
C00030
800010
ENDCHAR
STARTCHAR 004C
ENCODING 76
SWIDTH 380 0
DWIDTH 19 0
BBX 17 40 2 -1
BITMAP
800000
C00000
C00000
C00000
C00000
C00000
C00000
C00000
C00000
C00000
C00000
C00000
C00000
C00000
C00000
C00000
C00000
C00000
C00000
C00000
C00000
C00000
C00000
C00000
C00000
C00000
C00000
C00000
C00000
C00000
C00000
C00000
C00000
C00000
C00000
C00000
C00000
C00000
FFFF80
FFFF00
ENDCHAR
STARTCHAR 004D
ENCODING 77
SWIDTH 560 0
DWIDTH 28 0
BBX 24 40 2 -1
BITMAP
400002
E00007
E00007
E00007
F0000F
F0000F
F0000F
F8001F
D8001B
D8001B
DC003B
CC0033
CC0033
CE0073
C60063
C60063
C700E3
C300C3
C300C3
C381C3
C18183
C18183
C1C383
C0C303
C0C303
C0E703
C06603
C06603
C07E03
C03C03
C03C03
C03C03
C01803
C00003
C00003
C00003
C00003
C00003
C00003
400002
ENDCHAR
STARTCHAR 004E
ENCODING 78
SWIDTH 480 0
DWIDTH 24 0
BBX 20 41 2 -2
BITMAP
400020
E00030
E00030
F00030
F00030
F80030
D80030
DC0030
CC0030
CC0030
CE0030
C60030
C70030
C30030
C38030
C18030
C1C030
C0C030
C0E030
C06030
C06030
C07030
C03030
C03830
C01830
C01C30
C00C30
C00E30
C00630
C00730
C00330
C003B0
C003B0
C001B0
C001F0
C000F0
C000F0
C00070
C00070
C00020
400000
ENDCHAR
STARTCHAR 004F
ENCODING 79
SWIDTH 520 0
DWIDTH 26 0
BBX 22 41 2 -2
BITMAP
00FC00
03FF00
078780
0E01C0
1C00E0
180060
380070
300030
300030
700038
600018
600018
600018
600018
C0001C
C0000C
C0000C
C0000C
C0000C
C0000C
C0000C
C0000C
C0000C
C0000C
C0000C
C0000C
C0001C
600018
600018
600018
600018
700038
300030
300030
380070
180060
1C00E0
0E01C0
078780
03FF00
00FC00
ENDCHAR
STARTCHAR 0050
ENCODING 80
SWIDTH 460 0
DWIDTH 23 0
BBX 20 40 2 -1
BITMAP
FFFC00
FFFF80
C003C0
C000E0
C00060
C00070
C00030
C00030
C00030
C00030
C00030
C00030
C00030
C00030
C00070
C00060
C000E0
C007C0
FFFF80
FFFE00
C00000
C00000
C00000
C00000
C00000
C00000
C00000
C00000
C00000
C00000
C00000
C00000
C00000
C00000
C00000
C00000
C00000
C00000
C00000
800000
ENDCHAR
STARTCHAR 0051
ENCODING 81
SWIDTH 540 0
DWIDTH 27 0
BBX 23 42 2 -3
BITMAP
00FC00
03FF00
078780
0E01C0
1C00C0
180060
380060
300030
300030
700038
600018
600018
600018
E00018
C0000C
C0000C
C0000C
C0000C
C0000C
C0000C
C0000C
C0000C
C0000C
C0000C
C0000C
C0001C
E00018
600018
600018
600718
7003B8
3001F0
3000F0
3800F0
180070
1C00F8
0E01D8
07879C
03FF0E
00FC06
000002
000002
ENDCHAR
STARTCHAR 0052
ENCODING 82
SWIDTH 500 0
DWIDTH 25 0
BBX 21 41 2 -2
BITMAP
FFFC00
FFFF80
C007C0
C000E0
C00070
C00030
C00038
C00018
C00018
C00018
C00018
C00018
C00018
C00038
C00030
C00070
C000E0
C007E0
FFFF80
FFFE00
C06000
C07000
C03800
C01800
C01C00
C00C00
C00E00
C00600
C00700
C00380
C00180
C001C0
C000C0
C000E0
C00060
C00030
C00038
C00018
C00018
C00008
800000
ENDCHAR
STARTCHAR 0053
ENCODING 83
SWIDTH 500 0
DWIDTH 25 0
BBX 21 41 2 -2
BITMAP
00FC00
03FF00
0F87C0
1C01C0
1800E0
380070
300030
300038
300018
300018
300010
300000
300000
380000
1C0000
0E0000
078000
03E000
00F800
007C00
001F00
000780
0001C0
0000E0
000070
000030
000038
000018
000018
C00018
C00018
C00018
C00018
E00038
600030
700070
300060
3C00E0
1F07C0
07FF00
00FC00
ENDCHAR
STARTCHAR 0054
ENCODING 84
SWIDTH 480 0
DWIDTH 24 0
BBX 22 41 1 -2
BITMAP
FFFFFC
7FFFF8
003000
003000
003000
003000
003000
003000
003000
003000
003000
003000
003000
003000
003000
003000
003000
003000
003000
003000
003000
003000
003000
003000
003000
003000
003000
003000
003000
003000
003000
003000
003000
003000
003000
003000
003000
003000
003000
003000
002000
ENDCHAR
STARTCHAR 0055
ENCODING 85
SWIDTH 500 0
DWIDTH 25 0
BBX 21 40 2 -1
BITMAP
800008
C00018
C00018
C00018
C00018
C00018
C00018
C00018
C00018
C00018
C00018
C00018
C00018
C00018
C00018
C00018
C00018
C00018
C00018
C00018
C00018
C00018
C00018
C00018
C00018
C00018
C00018
C00018
C00018
C00018
C00018
C00038
600030
600030
600070
300060
3800C0
1F0780
07FF00
01FC00
ENDCHAR
STARTCHAR 0056
ENCODING 86
SWIDTH 500 0
DWIDTH 25 0
BBX 23 41 1 -2
BITMAP
C00006
60000E
60000C
60000C
70000C
30001C
300018
300018
380018
180038
180030
180030
180030
0C0070
0C0060
0C0060
0C00E0
0600E0
0600C0
0600C0
0601C0
070180
030180
030180
030380
038300
018300
018300
018700
01C600
00C600
00C600
00CE00
00EC00
006C00
006C00
007C00
007800
003800
003800
003000
ENDCHAR
STARTCHAR 0057
ENCODING 87
SWIDTH 720 0
DWIDTH 36 0
BBX 32 40 2 0
BITMAP
C0000003
C0018003
C0018003
E003C007
6003C007
6003C006
6003C006
6003C006
60076006
7006600E
3006600C
3006600C
300E700C
300C300C
300C300C
380C301C
180C3018
181C3818
18181818
18181818
1C181818
1C181838
0C381C30
0C300C30
0C300C30
0C300C30
0E300E70
06700670
06600660
06600660
06600660
06E00760
07C003E0
03C003C0
03C003C0
03C003C0
03C003C0
038001C0
038001C0
01800180
ENDCHAR
STARTCHAR 0058
ENCODING 88
SWIDTH 540 0
DWIDTH 27 0
BBX 23 40 2 -1
BITMAP
300010
300018
380038
180030
1C0070
0C0060
0E00E0
0600C0
0701C0
030180
038380
018300
01C700
00C600
00EE00
006C00
007C00
003800
003800
003800
007C00
006C00
00EE00
00C600
01C700
018300
038380
030180
0701C0
0600C0
0E00E0
0C0060
1C0070
180030
380038
300018
70001C
60000C
E0000E
C00006
ENDCHAR
STARTCHAR 0059
ENCODING 89
SWIDTH 480 0
DWIDTH 24 0
BBX 22 40 1 -1
BITMAP
E0001C
600018
700038
300030
180070
1C00E0
0C00E0
0E01C0
060180
070380
030300
038700
018600
01CE00
00CC00
007C00
007800
003800
003000
003000
003000
003000
003000
003000
003000
003000
003000
003000
003000
003000
003000
003000
003000
003000
003000
003000
003000
003000
003000
002000
ENDCHAR
STARTCHAR 005A
ENCODING 90
SWIDTH 480 0
DWIDTH 24 0
BBX 22 40 1 -1
BITMAP
7FFFF8
3FFFF8
000038
000030
000070
000060
0000E0
0000C0
0001C0
000180
000380
000300
000700
000600
000E00
000C00
001C00
001800
003800
007000
007000
00E000
00E000
01C000
01C000
038000
038000
070000
070000
0E0000
0E0000
1C0000
1C0000
380000
380000
700000
600000
E00000
FFFFFC
FFFFF8
ENDCHAR
STARTCHAR 005B
ENCODING 91
SWIDTH 240 0
DWIDTH 12 0
BBX 9 45 2 -7
BITMAP
FF80
FF80
C000
C000
C000
C000
C000
C000
C000
C000
C000
C000
C000
C000
C000
C000
C000
C000
C000
C000
C000
C000
C000
C000
C000
C000
C000
C000
C000
C000
C000
C000
C000
C000
C000
C000
C000
C000
C000
C000
C000
C000
C000
FF80
FF80
ENDCHAR
STARTCHAR 005C
ENCODING 92
SWIDTH 220 0
DWIDTH 11 0
BBX 10 46 0 -7
BITMAP
C000
E000
E000
6000
6000
6000
6000
7000
3000
3000
3000
3000
3000
3800
1800
1800
1800
1800
1C00
1C00
0C00
0C00
0C00
0C00
0E00
0600
0600
0600
0600
0700
0700
0300
0300
0300
0300
0380
0180
0180
0180
0180
0180
01C0
00C0
00C0
00C0
0080
ENDCHAR
STARTCHAR 005D
ENCODING 93
SWIDTH 240 0
DWIDTH 12 0
BBX 9 45 1 -7
BITMAP
FF80
FF80
0180
0180
0180
0180
0180
0180
0180
0180
0180
0180
0180
0180
0180
0180
0180
0180
0180
0180
0180
0180
0180
0180
0180
0180
0180
0180
0180
0180
0180
0180
0180
0180
0180
0180
0180
0180
0180
0180
0180
0180
0180
7F80
FF80
ENDCHAR
STARTCHAR 005E
ENCODING 94
SWIDTH 340 0
DWIDTH 17 0
BBX 15 14 1 27
BITMAP
0380
0780
07C0
0FC0
0EE0
0CE0
1C70
1C70
3830
3838
7018
701C
601C
E00E
ENDCHAR
STARTCHAR 005F
ENCODING 95
SWIDTH 560 0
DWIDTH 28 0
BBX 24 2 2 -4
BITMAP
FFFFFF
7FFFFE
ENDCHAR
STARTCHAR 0060
ENCODING 96
SWIDTH 140 0
DWIDTH 7 0
BBX 6 8 0 34
BITMAP
80
40
60
30
38
18
1C
0C
ENDCHAR
STARTCHAR 0061
ENCODING 97
SWIDTH 440 0
DWIDTH 22 0
BBX 18 27 2 -1
BITMAP
03F080
0FF8C0
1E1EC0
3806C0
3003C0
7003C0
6001C0
6001C0
E001C0
C000C0
C000C0
C000C0
C000C0
C000C0
C000C0
C000C0
C000C0
C000C0
E001C0
6001C0
6001C0
7003C0
3003C0
3806C0
1E1CC0
0FF8C0
03F080
ENDCHAR
STARTCHAR 0062
ENCODING 98
SWIDTH 400 0
DWIDTH 20 0
BBX 17 40 2 -1
BITMAP
800000
C00000
C00000
C00000
C00000
C00000
C00000
C00000
C00000
C00000
C00000
C00000
C00000
C3E000
CFF800
DC1C00
F80E00
F00600
F00300
E00300
E00300
E00380
C00180
C00180
C00180
C00180
C00180
C00180
C00180
C00180
C00180
E00380
E00300
E00300
F00700
F00600
F80E00
DE1C00
CFF800
C3E000
ENDCHAR
STARTCHAR 0063
ENCODING 99
SWIDTH 420 0
DWIDTH 21 0
BBX 17 27 2 -1
BITMAP
03F000
0FFC00
1E1E00
380F00
300700
700380
600380
600180
E00180
E00000
C00000
C00000
C00000
C00000
C00000
C00000
C00180
E00180
600180
600380
600300
700300
300700
380E00
1E1C00
0FF800
03F000
ENDCHAR
STARTCHAR 0064
ENCODING 100
SWIDTH 400 0
DWIDTH 20 0
BBX 17 40 1 -1
BITMAP
000100
000180
000180
000180
000180
000180
000180
000180
000180
000180
000180
000180
000180
03E180
0FF980
1E3D80
380F80
300780
700780
600380
600380
E00180
C00180
C00180
C00180
C00180
C00180
C00180
C00180
C00180
C00180
E00380
600380
600380
700780
300780
380F80
1C1D80
0FF980
03E080
ENDCHAR
STARTCHAR 0065
ENCODING 101
SWIDTH 440 0
DWIDTH 22 0
BBX 18 27 2 -1
BITMAP
03F000
0FFC00
1E1E00
380700
300300
600380
600180
600180
C000C0
C000C0
C000C0
FFFFC0
FFFFC0
C00000
C00000
C00000
C000C0
C000C0
E001C0
600180
600180
700380
300300
380700
1E1E00
0FFC00
03F000
ENDCHAR
STARTCHAR 0066
ENCODING 102
SWIDTH 420 0
DWIDTH 21 0
BBX 19 40 1 -1
BITMAP
003F00
00FF80
00E1C0
01C0E0
018060
018060
018040
018000
018000
018000
018000
018000
018000
FFFFE0
7FFFC0
018000
018000
018000
018000
018000
018000
018000
018000
018000
018000
018000
018000
018000
018000
018000
018000
018000
018000
018000
018000
018000
018000
018000
018000
010000
ENDCHAR
STARTCHAR 0067
ENCODING 103
SWIDTH 420 0
DWIDTH 21 0
BBX 17 41 2 -15
BITMAP
03E100
0FF980
1C3D80
380F80
300780
700780
600380
600380
E00380
C00180
C00180
C00180
C00180
C00180
C00180
C00180
C00180
C00180
E00380
600380
600380
700780
300780
380F80
1C1D80
0FF980
03E180
000180
000180
000180
000180
000180
C00180
C00180
E00180
600380
700300
380700
3C0E00
1FFC00
07F000
ENDCHAR
STARTCHAR 0068
ENCODING 104
SWIDTH 400 0
DWIDTH 20 0
BBX 17 40 2 -1
BITMAP
800000
C00000
C00000
C00000
C00000
C00000
C00000
C00000
C00000
C00000
C00000
C00000
C00000
C7F000
CFFC00
DC1E00
F80700
F00300
E00300
E00180
C00180
C00180
C00180
C00180
C00180
C00180
C00180
C00180
C00180
C00180
C00180
C00180
C00180
C00180
C00180
C00180
C00180
C00180
C00180
800100
ENDCHAR
STARTCHAR 0069
ENCODING 105
SWIDTH 100 0
DWIDTH 5 0
BBX 3 40 1 -1
BITMAP
E0
E0
60
00
00
00
00
00
00
00
00
00
00
40
60
60
60
60
60
60
60
60
60
60
60
60
60
60
60
60
60
60
60
60
60
60
60
60
60
40
ENDCHAR
STARTCHAR 006A
ENCODING 106
SWIDTH 260 0
DWIDTH 13 0
BBX 12 54 0 -15
BITMAP
0070
0070
0070
0000
0000
0000
0000
0000
0000
0000
0000
0000
0000
0040
0060
0060
0060
0060
0060
0060
0060
0060
0060
0060
0060
0060
0060
0060
0060
0060
0060
0060
0060
0060
0060
0060
0060
0060
0060
0060
0060
0060
0060
0060
0060
C060
C060
C060
C060
6060
60C0
71C0
3F80
1F00
ENDCHAR
STARTCHAR 006B
ENCODING 107
SWIDTH 400 0
DWIDTH 20 0
BBX 17 40 2 -1
BITMAP
800000
C00000
C00000
C00000
C00000
C00000
C00000
C00000
C00000
C00000
C00000
C00000
C00000
C00380
C00700
C00E00
C03C00
C07800
C0E000
C1C000
C3C000
C7C000
DEE000
FC6000
F07000
E03000
C03000
C01800
C01800
C01C00
C00C00
C00E00
C00600
C00700
C00300
C00300
C00380
C00180
C00180
800080
ENDCHAR
STARTCHAR 006C
ENCODING 108
SWIDTH 120 0
DWIDTH 6 0
BBX 2 41 2 -2
BITMAP
80
C0
C0
C0
C0
C0
C0
C0
C0
C0
C0
C0
C0
C0
C0
C0
C0
C0
C0
C0
C0
C0
C0
C0
C0
C0
C0
C0
C0
C0
C0
C0
C0
C0
C0
C0
C0
C0
C0
C0
80
ENDCHAR
STARTCHAR 006D
ENCODING 109
SWIDTH 620 0
DWIDTH 31 0
BBX 26 27 2 -1
BITMAP
87C07C00
DFE1FE00
F8738700
E01F0380
E01E0180
C00C00C0
C00C00C0
C00C00C0
C00C00C0
C00C00C0
C00C00C0
C00C00C0
C00C00C0
C00C00C0
C00C00C0
C00C00C0
C00C00C0
C00C00C0
C00C00C0
C00C00C0
C00C00C0
C00C00C0
C00C00C0
C00C00C0
C00C00C0
C00C00C0
80080080
ENDCHAR
STARTCHAR 006E
ENCODING 110
SWIDTH 420 0
DWIDTH 21 0
BBX 17 27 2 -1
BITMAP
83E000
CFF800
DE1E00
F80700
F00300
E00380
C00180
C00180
C00180
C00180
C00180
C00180
C00180
C00180
C00180
C00180
C00180
C00180
C00180
C00180
C00180
C00180
C00180
C00180
C00180
C00180
800100
ENDCHAR
STARTCHAR 006F
ENCODING 111
SWIDTH 440 0
DWIDTH 22 0
BBX 18 27 2 -1
BITMAP
03F000
07F800
0E1E00
1C0600
380700
300380
600180
600180
E001C0
C000C0
C000C0
C000C0
C000C0
C000C0
C000C0
C000C0
C000C0
C000C0
E001C0
600180
600180
700380
380700
180600
1E1E00
0FFC00
03F000
ENDCHAR
STARTCHAR 0070
ENCODING 112
SWIDTH 420 0
DWIDTH 21 0
BBX 18 41 2 -15
BITMAP
83F000
CFFC00
DE1E00
F80700
F00300
F00380
E00180
E00180
E001C0
E000C0
C000C0
C000C0
C000C0
C000C0
C000C0
C000C0
C000C0
E000C0
E001C0
E00180
E00180
F00380
F00300
D80700
DE1E00
CFFC00
C3F000
C00000
C00000
C00000
C00000
C00000
C00000
C00000
C00000
C00000
C00000
C00000
C00000
C00000
800000
ENDCHAR
STARTCHAR 0071
ENCODING 113
SWIDTH 420 0
DWIDTH 21 0
BBX 18 41 1 -15
BITMAP
03F080
0FFCC0
1E1EC0
3806C0
3003C0
7003C0
6001C0
6001C0
E001C0
C000C0
C000C0
C000C0
C000C0
C000C0
C000C0
C000C0
C000C0
C001C0
6001C0
6001C0
6001C0
7003C0
3003C0
3806C0
1E1EC0
0FFCC0
03F0C0
0000C0
0000C0
0000C0
0000C0
0000C0
0000C0
0000C0
0000C0
0000C0
0000C0
0000C0
0000C0
0000C0
000040
ENDCHAR
STARTCHAR 0072
ENCODING 114
SWIDTH 340 0
DWIDTH 17 0
BBX 14 27 2 -1
BITMAP
800C
C03C
C070
C0E0
C1C0
C780
CF00
DC00
F800
F000
E000
C000
C000
C000
C000
C000
C000
C000
C000
C000
C000
C000
C000
C000
C000
C000
8000
ENDCHAR
STARTCHAR 0073
ENCODING 115
SWIDTH 420 0
DWIDTH 21 0
BBX 17 27 2 -1
BITMAP
07E000
1FFC00
3C1E00
300700
700300
600100
600100
600000
700000
380000
1E0000
0F8000
03F000
00FC00
001E00
000700
000300
000380
000180
C00180
C00180
E00180
600380
700700
3C1E00
1FFC00
03F000
ENDCHAR
STARTCHAR 0074
ENCODING 116
SWIDTH 360 0
DWIDTH 18 0
BBX 16 37 1 -1
BITMAP
0400
0600
0600
0600
0600
0600
0600
0600
0600
0600
0600
FFFF
7FFE
0600
0600
0600
0600
0600
0600
0600
0600
0600
0600
0600
0600
0600
0600
0600
0603
0603
0603
0603
0706
0306
038E
01FC
00F8
ENDCHAR
STARTCHAR 0075
ENCODING 117
SWIDTH 400 0
DWIDTH 20 0
BBX 16 27 2 -1
BITMAP
8002
C003
C003
C003
C003
C003
C003
C003
C003
C003
C003
C003
C003
C003
C003
C003
C003
C003
C003
C003
C003
6007
6007
700F
3C3F
1FFB
07E2
ENDCHAR
STARTCHAR 0076
ENCODING 118
SWIDTH 380 0
DWIDTH 19 0
BBX 17 28 1 -2
BITMAP
400100
C00180
C00180
C00380
600300
600300
600300
700700
300600
300600
300E00
380C00
180C00
181C00
1C1800
0C1800
0C1800
0C3800
0E3000
063000
067000
076000
036000
03E000
03C000
03C000
01C000
018000
ENDCHAR
STARTCHAR 0077
ENCODING 119
SWIDTH 620 0
DWIDTH 31 0
BBX 27 27 2 -1
BITMAP
C0000040
C00C0060
C00E0060
E01E00E0
601E00C0
601F00C0
601B00C0
603B01C0
703301C0
30338180
30318180
30718180
38718380
1861C300
1860C300
18E0C300
1CE0E700
0CC06600
0CC06600
0DC06600
0DC07600
0F803C00
07803C00
07803C00
07803C00
07001C00
03001800
ENDCHAR
STARTCHAR 0078
ENCODING 120
SWIDTH 460 0
DWIDTH 23 0
BBX 19 27 2 -2
BITMAP
6000C0
7001C0
380380
180300
1C0700
0C0E00
060C00
071C00
031800
03B800
01F000
00E000
00E000
01F000
01B000
03B800
071800
061C00
0E0E00
0C0600
1C0700
380380
300180
7001C0
E000E0
C00060
C00060
ENDCHAR
STARTCHAR 0079
ENCODING 121
SWIDTH 440 0
DWIDTH 22 0
BBX 18 41 2 -15
BITMAP
400080
6000C0
6000C0
6000C0
6000C0
6000C0
6000C0
6000C0
6000C0
6000C0
6000C0
6000C0
6000C0
6000C0
6000C0
6000C0
6000C0
6000C0
6000C0
6001C0
6001C0
3001C0
3003C0
1803C0
1E0FC0
0FFEC0
03F8C0
0000C0
0000C0
0000C0
0000C0
0000C0
E000C0
E000C0
6001C0
600180
300380
380300
1E0F00
0FFE00
03F000
ENDCHAR
STARTCHAR 007A
ENCODING 122
SWIDTH 420 0
DWIDTH 21 0
BBX 18 27 2 -1
BITMAP
7FFF80
3FFF80
000380
000300
000700
000E00
000C00
001C00
003800
003000
007000
00E000
00E000
01C000
018000
038000
070000
070000
0E0000
1C0000
1C0000
380000
300000
700000
E00000
FFFFC0
FFFF80
ENDCHAR
STARTCHAR 007B
ENCODING 123
SWIDTH 240 0
DWIDTH 12 0
BBX 10 45 1 -7
BITMAP
03C0
0F80
0C00
1C00
1800
1800
1800
1800
1800
1800
1800
1800
1800
1800
1800
1800
1800
1800
1800
1800
1800
3800
F000
F000
3800
1800
1800
1800
1800
1800
1800
1800
1800
1800
1800
1800
1800
1800
1800
1800
1800
1800
0C00
0F80
07C0
ENDCHAR
STARTCHAR 007C
ENCODING 124
SWIDTH 120 0
DWIDTH 6 0
BBX 2 47 2 -5
BITMAP
80
C0
C0
C0
C0
C0
C0
C0
C0
C0
C0
C0
C0
C0
C0
C0
C0
C0
C0
C0
C0
C0
C0
C0
C0
C0
C0
C0
C0
C0
C0
C0
C0
C0
C0
C0
C0
C0
C0
C0
C0
C0
C0
C0
C0
C0
80
ENDCHAR
STARTCHAR 007D
ENCODING 125
SWIDTH 240 0
DWIDTH 12 0
BBX 10 45 1 -7
BITMAP
F000
7C00
0E00
0600
0600
0600
0600
0600
0600
0600
0600
0600
0600
0600
0600
0600
0600
0600
0600
0600
0600
0300
03C0
03C0
0700
0600
0600
0600
0600
0600
0600
0600
0600
0600
0600
0600
0600
0600
0600
0600
0600
0600
0E00
7C00
F800
ENDCHAR
STARTCHAR 007E
ENCODING 126
SWIDTH 400 0
DWIDTH 20 0
BBX 18 5 1 14
BITMAP
3F0000
7FC0C0
E1FFC0
807F80
001E00
ENDCHAR
STARTCHAR 00A0
ENCODING 160
SWIDTH 240 0
DWIDTH 12 0
BBX 0 0 0 0
BITMAP
ENDCHAR
STARTCHAR 00A5
ENCODING 165
SWIDTH 440 0
DWIDTH 22 0
BBX 20 41 1 -2
BITMAP
7000E0
3000C0
3801C0
180180
1C0380
0C0300
0E0700
060600
070E00
030C00
039C00
019800
01F800
00F000
FFFFF0
7FFFE0
006000
006000
006000
006000
006000
006000
006000
006000
006000
006000
FFFFF0
7FFFE0
006000
006000
006000
006000
006000
006000
006000
006000
006000
006000
006000
006000
004000
ENDCHAR
STARTCHAR 00A9
ENCODING 169
SWIDTH 660 0
DWIDTH 33 0
BBX 29 41 2 -2
BITMAP
001FC000
007FF000
01F07C00
03800E00
07000700
0E000380
0C000180
180000C0
380FC0C0
303FE060
30787060
70603870
60E01C30
60C00C30
60C00C30
E1C00C38
C1800018
C1800018
C1800018
C1800018
C1800018
C1800018
C1800018
C1800C18
C1800C18
E0C00C38
60C00C30
60C01830
60601830
70703870
30387060
301FE060
380F80E0
180000C0
0C000180
0E000380
07000700
03800E00
01F07C00
00FFF800
001FC000
ENDCHAR
STARTCHAR 00B0
ENCODING 176
SWIDTH 200 0
DWIDTH 10 0
BBX 8 8 1 33
BITMAP
3C
7E
E7
C3
C3
E7
7E
3C
ENDCHAR
STARTCHAR 00B7
ENCODING 183
SWIDTH 740 0
DWIDTH 37 0
BBX 3 3 17 12
BITMAP
40
E0
E0
ENDCHAR
STARTCHAR 2014
ENCODING 8212
SWIDTH 740 0
DWIDTH 37 0
BBX 25 2 6 14
BITMAP
FFFFFF80
7FFFFF00
ENDCHAR
STARTCHAR 2018
ENCODING 8216
SWIDTH 740 0
DWIDTH 37 0
BBX 5 9 31 33
BITMAP
08
10
10
30
60
60
E0
C0
C0
ENDCHAR
STARTCHAR 2019
ENCODING 8217
SWIDTH 740 0
DWIDTH 37 0
BBX 5 9 1 33
BITMAP
18
18
38
30
30
60
40
C0
80
ENDCHAR
STARTCHAR 201C
ENCODING 8220
SWIDTH 720 0
DWIDTH 36 0
BBX 9 9 25 33
BITMAP
0800
1080
1100
3100
6300
6300
E600
C600
C600
ENDCHAR
STARTCHAR 201D
ENCODING 8221
SWIDTH 740 0
DWIDTH 37 0
BBX 10 9 1 33
BITMAP
18C0
18C0
39C0
3180
2180
6300
4200
C200
8400
ENDCHAR
STARTCHAR 2022
ENCODING 8226
SWIDTH 740 0
DWIDTH 37 0
BBX 3 3 17 12
BITMAP
40
E0
E0
ENDCHAR
STARTCHAR 2026
ENCODING 8230
SWIDTH 720 0
DWIDTH 36 0
BBX 32 3 2 12
BITMAP
E001C007
E001C007
E001C007
ENDCHAR
STARTCHAR 205D
ENCODING 8285
SWIDTH 740 0
DWIDTH 37 0
BBX 3 30 12 10
BITMAP
C0
E0
C0
00
00
00
00
00
00
00
00
00
00
40
E0
E0
00
00
00
00
00
00
00
00
00
00
00
C0
E0
C0
ENDCHAR
STARTCHAR 20AC
ENCODING 8364
SWIDTH 540 0
DWIDTH 27 0
BBX 24 38 1 1
BITMAP
0007E0
001FF0
003C38
00701C
00600C
00E006
00C006
00C002
018002
018000
018000
018000
030000
030000
FFFFFE
7FFFFE
030000
030000
030000
030000
030000
030000
FFFFFE
7FFFFE
030000
038000
018000
018000
018000
01C003
00C003
00C006
006006
00700C
00380C
003C3C
001FF8
0007E0
ENDCHAR
STARTCHAR 2122
ENCODING 8482
SWIDTH 460 0
DWIDTH 23 0
BBX 19 10 2 31
BITMAP
FF70E0
7E79E0
1879E0
1879E0
186F60
186F60
186F60
186660
186060
104040
ENDCHAR
STARTCHAR 22EF
ENCODING 8943
SWIDTH 720 0
DWIDTH 36 0
BBX 32 3 2 12
BITMAP
E001C007
E001C007
E001C007
ENDCHAR
STARTCHAR 2F00
ENCODING 12032
SWIDTH 740 0
DWIDTH 37 0
BBX 31 2 3 23
BITMAP
FFFFFFFE
7FFFFFFC
ENDCHAR
STARTCHAR 2F01
ENCODING 12033
SWIDTH 720 0
DWIDTH 36 0
BBX 2 47 17 -5
BITMAP
80
C0
C0
C0
C0
C0
C0
C0
C0
C0
C0
C0
C0
C0
C0
C0
C0
C0
C0
C0
C0
C0
C0
C0
C0
C0
C0
C0
C0
C0
C0
C0
C0
C0
C0
C0
C0
C0
C0
C0
C0
C0
C0
C0
C0
C0
80
ENDCHAR
STARTCHAR 2F02
ENCODING 12034
SWIDTH 740 0
DWIDTH 37 0
BBX 9 13 14 15
BITMAP
8000
4000
2000
3000
1800
1C00
0C00
0600
0700
0700
0380
0380
0180
ENDCHAR
STARTCHAR 2F03
ENCODING 12035
SWIDTH 720 0
DWIDTH 36 0
BBX 13 47 6 -4
BITMAP
0010
0018
0018
0018
0018
0018
0018
0018
0018
0018
0018
0018
0018
0018
0018
0018
0018
0018
0018
0018
0018
0018
0018
0018
0018
0038
0030
0030
0030
0030
0070
0060
0060
00E0
00C0
00C0
0180
0180
0300
0300
0600
0400
0C00
1800
3000
4000
8000
ENDCHAR
STARTCHAR 2F04
ENCODING 12036
SWIDTH 740 0
DWIDTH 37 0
BBX 29 42 6 -4
BITMAP
7FFFFF00
3FFFFF00
00000700
00000E00
00000E00
00001C00
00001800
00003800
00007000
00006000
0000E000
0001C000
00018000
00038000
00030000
00070000
000E0000
000C0000
001C0000
00380000
00300000
00700000
00600000
00E00000
01C00000
01800000
03800000
07000000
06000000
0E000000
0C000000
18000000
38000000
30000000
70000000
60000000
C0000000
C0000020
C0000010
E0000030
7FFFFFF8
3FFFFFF8
ENDCHAR
STARTCHAR 2F06
ENCODING 12038
SWIDTH 740 0
DWIDTH 37 0
BBX 33 37 2 0
BITMAP
0FFFFFF800
07FFFFF000
0000000000
0000000000
0000000000
0000000000
0000000000
0000000000
0000000000
0000000000
0000000000
0000000000
0000000000
0000000000
0000000000
0000000000
0000000000
0000000000
0000000000
0000000000
0000000000
0000000000
0000000000
0000000000
0000000000
0000000000
0000000000
0000000000
0000000000
0000000000
0000000000
0000000000
0000000000
0000000000
0000000000
FFFFFFFF80
7FFFFFFF00
ENDCHAR
STARTCHAR 2F07
ENCODING 12039
SWIDTH 740 0
DWIDTH 37 0
BBX 35 11 1 32
BITMAP
0000C00000
0000C00000
0000C00000
0000C00000
0000C00000
0000C00000
0000C00000
0000C00000
0000C00000
FFFFFFFFE0
7FFFFFFFC0
ENDCHAR
STARTCHAR 2F08
ENCODING 12040
SWIDTH 740 0
DWIDTH 37 0
BBX 31 47 3 -4
BITMAP
00030000
00030000
00030000
00030000
00030000
00030000
00030000
00030000
00030000
00030000
00030000
00070000
00070000
00070000
00070000
00068000
00068000
00068000
0004C000
000C4000
000C4000
000C6000
000C6000
00083000
00183000
00183000
00101800
00301800
00300C00
00300C00
00600E00
00600600
00400700
00C00300
00800380
01800180
010001C0
030000E0
020000E0
06000070
04000070
08000038
1000003C
1000001C
2000000E
4000000C
80000000
ENDCHAR
STARTCHAR 2F09
ENCODING 12041
SWIDTH 740 0
DWIDTH 37 0
BBX 33 46 2 -5
BITMAP
0040080000
00600C0000
00600C0000
00600C0000
00600C0000
00600C0000
00600C0000
00600C0000
00600C0000
00600C0000
00600C0000
00600C0000
00600C0000
00600C0000
00600C0000
00600C0000
00600C0000
00600C0000
00600C0000
00600C0000
00600C0000
00E00C0000
00E00C0000
00C00C0000
00C00C0000
00C00C0000
00C00C0000
00C00C0000
01C00C0000
01800C0000
01800C0000
01800C0000
03000C0000
03000C0000
03000C0000
06000C0000
06000C0000
06000C0000
0C000C0000
08000C0200
18000C0200
10000C0300
20000E0380
200007FF80
400003FF00
8000000000
ENDCHAR
STARTCHAR 2F0A
ENCODING 12042
SWIDTH 740 0
DWIDTH 37 0
BBX 34 46 2 -4
BITMAP
0001000000
0001000000
0001000000
0001000000
0000800000
0000800000
0000800000
0000C00000
0000400000
0000400000
0000E00000
0000E00000
0000E00000
0000F00000
0001F00000
0001D00000
0001980000
0003980000
0003880000
00030C0000
00070C0000
0007060000
0006060000
000E070000
000E030000
000C030000
001C018000
0018018000
003801C000
003000C000
007000E000
0060006000
00E0007000
00C0007000
0180003800
0180003800
0300001C00
0200001C00
0600000E00
0C00000E00
0800000700
1000000380
3000000380
20000001C0
4000000180
8000000000
ENDCHAR
STARTCHAR 2F0B
ENCODING 12043
SWIDTH 760 0
DWIDTH 38 0
BBX 34 46 2 -3
BITMAP
0000040000
000E040000
000E040000
000E040000
000E040000
000E040000
000E040000
000E060000
000E020000
000E020000
000C020000
000C020000
001C030000
001C030000
001C030000
001C010000
001C018000
0018018000
0018018000
0038008000
003800C000
003000C000
003000C000
007000E000
0070006000
0060006000
0060006000
00E0007000
00C0003000
00C0003000
0180003800
0180001800
0180001800
0300001C00
0300001C00
0600000C00
0600000E00
0400000E00
0C00000700
0800000700
1000000300
1000000380
2000000380
40000001C0
8000000180
8000000000
ENDCHAR
STARTCHAR 2F0C
ENCODING 12044
SWIDTH 740 0
DWIDTH 37 0
BBX 27 43 5 -5
BITMAP
FFFFFFE0
FFFFFFE0
C0000060
C0000060
C0000060
C0000060
C0000060
C0000060
C0000060
C0000060
C0000060
C0000060
C0000060
C0000060
C0000060
C0000060
C0000060
C0000060
C0000060
C0000060
C0000060
C0000060
C0000060
C0000060
C0000060
C0000060
C0000060
C0000060
C0000060
C0000060
C0000060
C0000060
C0000060
C0000060
C0000060
C0000060
C0000060
C0000060
C0000060
C0000060
C0000060
C0000060
C0000060
ENDCHAR
STARTCHAR 2F0D
ENCODING 12045
SWIDTH 740 0
DWIDTH 37 0
BBX 29 7 4 32
BITMAP
FFFFFFF8
FFFFFFF8
C0000018
C0000018
C0000018
C0000018
C0000018
ENDCHAR
STARTCHAR 2F0E
ENCODING 12046
SWIDTH 740 0
DWIDTH 37 0
BBX 8 35 2 3
BITMAP
80
40
40
20
30
18
18
1C
0C
0E
0E
06
00
00
00
00
00
00
00
01
01
01
03
02
06
06
0C
0C
1C
18
38
70
E0
E0
C0
ENDCHAR
STARTCHAR 2F0F
ENCODING 12047
SWIDTH 740 0
DWIDTH 37 0
BBX 34 43 2 -5
BITMAP
01FFFE0000
01FFFE0000
0180060000
0180060000
0180060000
0180060000
0180060000
0180060000
0180060000
0180060000
0180060000
0180060000
0180060000
0180060000
0180060000
0180060000
0180060000
0180060000
0180060000
0180060000
0380060000
0380060000
0300060000
0300060000
0300060000
0300060000
0300060000
0300060000
0300060000
0600060000
0600060000
0600060000
0400060000
0C00060000
0C00060000
0800060000
1800060000
1000060100
3000060100
2000060100
40000703C0
400003FFC0
800001FF80
ENDCHAR
STARTCHAR 2F10
ENCODING 12048
SWIDTH 720 0
DWIDTH 36 0
BBX 28 40 4 -2
BITMAP
C0000020
C0000030
C0000030
C0000030
C0000030
C0000030
C0000030
C0000030
C0000030
C0000030
C0000030
C0000030
C0000030
C0000030
C0000030
C0000030
C0000030
C0000030
C0000030
C0000030
C0000030
C0000030
C0000030
C0000030
C0000030
C0000030
C0000030
C0000030
C0000030
C0000030
C0000030
C0000030
C0000030
C0000030
C0000030
C0000030
C0000030
C0000030
FFFFFFF0
FFFFFFF0
ENDCHAR
STARTCHAR 2F11
ENCODING 12049
SWIDTH 720 0
DWIDTH 36 0
BBX 30 43 1 -5
BITMAP
1FFFFFFC
0FFFFFFC
0006000C
0006000C
0006000C
0006000C
0006000C
0006000C
0006000C
0006000C
0006000C
0006000C
0006000C
000E000C
000E000C
000C000C
000C000C
000C000C
000C000C
000C000C
001C000C
0018000C
0018000C
0018000C
0038000C
0030000C
0030000C
0030000C
0070000C
0060000C
00E0000C
00C0000C
01C0000C
0180000C
0380000C
0300000C
0600000C
0600000C
0C00000C
1800000C
3000000C
4000000C
80000008
ENDCHAR
STARTCHAR 2F12
ENCODING 12050
SWIDTH 740 0
DWIDTH 37 0
BBX 29 46 3 -5
BITMAP
00080000
000C0000
000C0000
000C0000
000C0000
000C0000
000C0000
000C0000
000C0000
3FFFFFF8
1FFFFFF8
000C0018
000C0018
000C0018
000C0018
000C0018
000C0018
000C0018
000C0018
000C0018
001C0018
00180018
00180018
00180018
00180018
00180018
00380018
00300018
00300018
00300018
00600018
00600018
00600018
00C00018
00C00018
01800018
01800018
03000018
03000018
06000018
0C000018
18000018
10000018
20000018
40000018
80000010
ENDCHAR
STARTCHAR 2F13
ENCODING 12051
SWIDTH 740 0
DWIDTH 37 0
BBX 28 46 3 -4
BITMAP
01800000
01800000
03800000
03800000
03000000
03000000
03000000
07FFFFF0
07FFFFF0
06000030
0C000030
0C000030
08000030
18000030
10000030
20000030
20000030
40000030
80000030
00000030
00000030
00000030
00000030
00000030
00000030
00000030
00000030
00000030
00000030
00000030
00000030
00000030
00000030
00000030
00000030
00000030
00000030
00000030
00000030
00000030
00000030
00000030
00000030
00000030
00000030
00000030
ENDCHAR
STARTCHAR 2F14
ENCODING 12052
SWIDTH 720 0
DWIDTH 36 0
BBX 25 46 8 -3
BITMAP
80000000
C0000000
C0000000
C0000000
C0000000
C0000000
C0000000
C0000000
C0000000
C0000800
C0001C00
C0003800
C0007000
C000E000
C001C000
C0038000
C0070000
C00E0000
C01C0000
C0380000
C0F00000
C1C00000
C3800000
CE000000
DC000000
F0000000
C0000000
C0000000
C0000000
C0000000
C0000000
C0000000
C0000000
C0000000
C0000000
C0000000
C0000000
C0000000
C0000000
C0000000
C0000200
C0000200
C0000300
E0000780
7FFFFF80
3FFFFF00
ENDCHAR
STARTCHAR 2F15
ENCODING 12053
SWIDTH 740 0
DWIDTH 37 0
BBX 30 42 5 -2
BITMAP
FFFFFFF0
FFFFFFE0
C0000000
C0000000
C0000000
C0000000
C0000000
C0000000
C0000000
C0000000
C0000000
C0000000
C0000000
C0000000
C0000000
C0000000
C0000000
C0000000
C0000000
C0000000
C0000000
C0000000
C0000000
C0000000
C0000000
C0000000
C0000000
C0000000
C0000000
C0000000
C0000000
C0000000
C0000000
C0000000
C0000000
C0000000
C0000000
C0000000
C0000000
C0000000
FFFFFFFC
FFFFFFF8
ENDCHAR
STARTCHAR 2F17
ENCODING 12055
SWIDTH 720 0
DWIDTH 36 0
BBX 32 47 2 -5
BITMAP
00010000
00018000
00018000
00018000
00018000
00018000
00018000
00018000
00018000
00018000
00018000
00018000
00018000
00018000
00018000
00018000
00018000
00018000
FFFFFFFF
7FFFFFFE
00018000
00018000
00018000
00018000
00018000
00018000
00018000
00018000
00018000
00018000
00018000
00018000
00018000
00018000
00018000
00018000
00018000
00018000
00018000
00018000
00018000
00018000
00018000
00018000
00018000
00018000
00010000
ENDCHAR
STARTCHAR 2F18
ENCODING 12056
SWIDTH 740 0
DWIDTH 37 0
BBX 17 47 15 -5
BITMAP
800000
C00000
C00000
C00000
C00000
C00000
C00000
C00000
C00000
C00000
C00000
C00000
C00000
C00000
C00000
C80000
C60000
C10000
C0C000
C06000
C03000
C01C00
C00E00
C00700
C00700
C00380
C00180
C00000
C00000
C00000
C00000
C00000
C00000
C00000
C00000
C00000
C00000
C00000
C00000
C00000
C00000
C00000
C00000
C00000
C00000
C00000
800000
ENDCHAR
STARTCHAR 2F19
ENCODING 12057
SWIDTH 740 0
DWIDTH 37 0
BBX 13 42 20 -4
BITMAP
FFF8
FFF8
C018
C018
C018
C018
C018
C018
C018
C018
C018
C018
C018
C018
C018
C018
C018
C018
C018
C018
C018
C018
C018
C018
C018
C018
C018
C018
C018
C018
C018
C010
C000
C000
C000
C000
C000
C000
C000
C000
C000
C000
ENDCHAR
STARTCHAR 2F1A
ENCODING 12058
SWIDTH 720 0
DWIDTH 36 0
BBX 32 44 1 -3
BITMAP
03FFFFFF
03FFFFFF
03000000
03000000
03000000
03000000
03000000
03000000
03000000
03000000
03000000
03000000
03000000
03000000
03000000
03000000
03000000
03000000
03000000
03000000
03000000
03000000
07000000
07000000
06000000
06000000
06000000
06000000
06000000
06000000
0C000000
0C000000
0C000000
0C000000
18000000
18000000
18000000
10000000
30000000
20000000
60000000
40000000
80000000
80000000
ENDCHAR
STARTCHAR 2F1B
ENCODING 12059
SWIDTH 720 0
DWIDTH 36 0
BBX 30 45 3 -4
BITMAP
00030000
00030000
00070000
00060000
00060000
00060000
00060000
000E0000
000C0000
000C0000
000C0000
001C0000
00180000
00180000
00180000
00380000
00300000
00300000
00300000
00600000
00600000
00600000
00C00000
00C01000
00C01000
01800800
01800400
03000600
03000200
03000300
06000100
06000180
0C0000C0
0C0000C0
080000E0
18000060
10000070
300000F0
200007F0
60007E38
403FF018
FFFF0018
FFC0001C
0000000C
0000000C
ENDCHAR
STARTCHAR 2F1C
ENCODING 12060
SWIDTH 740 0
DWIDTH 37 0
BBX 34 43 1 -5
BITMAP
1FFFFFE000
0FFFFFE000
010000E000
010000C000
008000C000
008001C000
008001C000
0040018000
0040038000
0060038000
0020030000
0030070000
0030070000
00180E0000
00180E0000
000C0E0000
000C1C0000
000E1C0000
0006380000
0007380000
0003700000
0003F00000
0001E00000
0001C00000
0001E00000
0003F00000
0007700000
0007380000
000E1C0000
001C0E0000
00180F0000
0030078000
007003C000
00E001E000
01C000F000
0180007800
0300003C00
0600001E00
0C00000F00
18000007C0
20000003C0
4000000080
8000000000
ENDCHAR
STARTCHAR 2F1D
ENCODING 12061
SWIDTH 740 0
DWIDTH 37 0
BBX 23 38 7 0
BITMAP
FFFFFE
FFFFFE
C00006
C00006
C00006
C00006
C00006
C00006
C00006
C00006
C00006
C00006
C00006
C00006
C00006
C00006
C00006
C00006
C00006
C00006
C00006
C00006
C00006
C00006
C00006
C00006
C00006
C00006
C00006
C00006
C00006
C00006
C00006
C00006
C00006
C00006
FFFFFE
FFFFFE
ENDCHAR
STARTCHAR 2F1E
ENCODING 12062
SWIDTH 720 0
DWIDTH 36 0
BBX 28 42 4 -2
BITMAP
FFFFFFF0
FFFFFFF0
C0000030
C0000030
C0000030
C0000030
C0000030
C0000030
C0000030
C0000030
C0000030
C0000030
C0000030
C0000030
C0000030
C0000030
C0000030
C0000030
C0000030
C0000030
C0000030
C0000030
C0000030
C0000030
C0000030
C0000030
C0000030
C0000030
C0000030
C0000030
C0000030
C0000030
C0000030
C0000030
C0000030
C0000030
C0000030
C0000030
C0000030
C0000030
FFFFFFF0
FFFFFFF0
ENDCHAR
STARTCHAR 2F1F
ENCODING 12063
SWIDTH 720 0
DWIDTH 36 0
BBX 32 44 2 -1
BITMAP
00018000
00018000
00018000
00018000
00018000
00018000
00018000
00018000
00018000
00018000
00018000
00018000
00018000
00018000
1FFFFFF8
0FFFFFF0
00018000
00018000
00018000
00018000
00018000
00018000
00018000
00018000
00018000
00018000
00018000
00018000
00018000
00018000
00018000
00018000
00018000
00018000
00018000
00018000
00018000
00018000
00018000
00018000
00018000
00018000
FFFFFFFF
7FFFFFFE
ENDCHAR
STARTCHAR 2F20
ENCODING 12064
SWIDTH 720 0
DWIDTH 36 0
BBX 30 44 3 -1
BITMAP
00030000
00030000
00030000
00030000
00030000
00030000
00030000
00030000
00030000
00030000
00030000
00030000
00030000
00030000
00030000
FFFFFFFC
FFFFFFF8
00030000
00030000
00030000
00030000
00030000
00030000
00030000
00030000
00030000
00030000
00030000
00030000
00030000
00030000
00030000
00030000
00030000
00030000
00030000
00030000
00030000
00030000
00030000
00030000
00030000
FFFFFFF8
7FFFFFF0
ENDCHAR
STARTCHAR 2F21
ENCODING 12065
SWIDTH 720 0
DWIDTH 36 0
BBX 33 46 2 -3
BITMAP
0018000000
0038000000
0038000000
0038000000
0030000000
0030000000
0070000000
0070000000
007FFFC000
007FFFC000
00E001C000
00C0018000
00C0038000
01C0038000
01E0030000
01A0070000
0330070000
0330060000
02100E0000
06180E0000
04181C0000
080C1C0000
080C380000
1006380000
2006700000
2003700000
0003E00000
0001C00000
0001C00000
0001E00000
0003E00000
0007700000
000E380000
000C1C0000
001C1E0000
00380F0000
0070078000
00E003C000
01C001E000
038000F000
0600007800
0C00003C00
1800001E00
2000000F80
4000000780
8000000100
ENDCHAR
STARTCHAR 2F23
ENCODING 12067
SWIDTH 720 0
DWIDTH 36 0
BBX 29 47 2 -4
BITMAP
000C0000
000C0000
001C0000
00180000
00180000
00180000
00380000
003FFFF8
003FFFF8
00700038
00600038
00600030
00C00070
00C00070
00C00060
018000E0
018000E0
030000C0
030001C0
038001C0
06C00380
04600380
0C300300
08180700
101C0700
300C0E00
20060E00
40071C00
80033800
80003800
00007000
00006000
0000E000
0001C000
00018000
00030000
00070000
000E0000
001C0000
00380000
00600000
00C00000
03800000
06000000
0C000000
30000000
C0000000
ENDCHAR
STARTCHAR 2F24
ENCODING 12068
SWIDTH 740 0
DWIDTH 37 0
BBX 33 46 2 -4
BITMAP
0001000000
0001800000
0001800000
0001800000
0001800000
0001800000
0001800000
0001800000
0001800000
0001800000
0001800000
0001800000
7FFFFFFF00
3FFFFFFE00
0003800000
0003800000
0003C00000
0003C00000
0003C00000
0003600000
0003200000
0007200000
0007300000
0007300000
0006100000
0006180000
000E180000
000E0C0000
000C0C0000
001C0E0000
0018060000
0038070000
0030030000
0070038000
006001C000
00E001C000
00C000E000
0180007000
0300007800
0300003800
0600001C00
0C00000E00
1800000700
2000000380
4000000100
8000000000
ENDCHAR
STARTCHAR 2F25
ENCODING 12069
SWIDTH 720 0
DWIDTH 36 0
BBX 32 47 2 -5
BITMAP
00020000
00030000
00030000
00070000
00070000
00060000
000E0000
000E0000
000C0000
000C0000
001C0000
FFFFFFFF
7FFFFFFE
00380300
00300300
00300300
00700700
00600700
00600600
00E00600
00C00600
00C00E00
00C00C00
01C00C00
01801C00
01801800
03803800
00C03000
00707000
00386000
000EE000
0007C000
0001C000
0003E000
00037000
00073800
000E1E00
001C0700
00380380
007001C0
00E000E0
01C00070
03000038
0600001C
1800000C
20000000
C0000000
ENDCHAR
STARTCHAR 2F26
ENCODING 12070
SWIDTH 740 0
DWIDTH 37 0
BBX 33 44 2 -4
BITMAP
03FFFFE000
01FFFFE000
000000E000
000001C000
0000038000
0000078000
0000070000
00000E0000
00001C0000
00001C0000
0000380000
0000700000
0000E00000
0000E00000
0000C00000
0000C00000
0000C00000
FFFFFFFF80
7FFFFFFF00
0000C00000
0000C00000
0000C00000
0000C00000
0000C00000
0000C00000
0000C00000
0000C00000
0000C00000
0000C00000
0000C00000
0000C00000
0000C00000
0000C00000
0000C00000
0000C00000
0000C00000
0000C00000
0000C00000
0000C00000
0000C00000
0000C00000
0000C00000
0000C00000
0000800000
ENDCHAR
STARTCHAR 2F27
ENCODING 12071
SWIDTH 720 0
DWIDTH 36 0
BBX 30 14 3 29
BITMAP
00030000
00030000
00030000
00030000
00030000
00030000
FFFFFFFC
FFFFFFFC
C000000C
C000000C
C000000C
C000000C
C000000C
C000000C
ENDCHAR
STARTCHAR 2F28
ENCODING 12072
SWIDTH 740 0
DWIDTH 37 0
BBX 33 47 2 -4
BITMAP
0000080000
00000C0000
00000C0000
00000C0000
00000C0000
00000C0000
00000C0000
00000C0000
00000C0000
00000C0000
00000C0000
00000C0000
FFFFFFFF80
7FFFFFFF00
00000C0000
00000C0000
00000C0000
00000C0000
00000C0000
04000C0000
02000C0000
01000C0000
01800C0000
00C00C0000
00600C0000
00600C0000
00300C0000
00380C0000
00180C0000
001C0C0000
000C0C0000
00080C0000
00000C0000
00000C0000
00000C0000
00000C0000
00000C0000
00000C0000
00000C0000
00000C0000
00000C0000
00000C0000
00000C0000
00000C0000
00000C0000
00000C0000
0000080000
ENDCHAR
STARTCHAR 2F29
ENCODING 12073
SWIDTH 760 0
DWIDTH 38 0
BBX 32 47 3 -4
BITMAP
00008000
0000C000
0000C000
0000C000
0000C000
0000C000
0000C000
0000C000
0000C000
0000C000
0000C000
0000C000
0000C000
0060C200
00E0C200
00E0C100
00C0C080
00C0C0C0
01C0C040
0180C060
0180C030
0300C030
0300C018
0600C018
0600C01C
0C00C00C
0C00C00E
1800C006
1000C007
3000C006
2000C000
4000C000
8000C000
0000C000
0000C000
0000C000
0000C000
0000C000
0000C000
0000C000
0000C000
0000C000
0000C000
0000C000
0000C000
0000C000
00008000
ENDCHAR
STARTCHAR 2F2A
ENCODING 12074
SWIDTH 720 0
DWIDTH 36 0
BBX 34 47 1 -5
BITMAP
0002000000
0003000000
0003000000
0003000000
0003000000
0003000000
0003000000
0003000000
0003000000
0003000000
0003000000
0003000000
3FFFFFFF00
1FFFFFFE00
000E180000
000E180000
000E180000
000E180000
000E180000
000E180000
000E180000
000E180000
000E180000
001C180000
001C180000
001C180000
001C180000
001C180000
0018180000
0038180000
0038180000
0030180000
0070180000
0070180000
0060180000
00E0180000
00C0180000
01C0180000
0180180000
0300180000
0700180100
0600180100
0C00180180
18001C03C0
30000FFFC0
400007FF80
8000000000
ENDCHAR
STARTCHAR 2F2B
ENCODING 12075
SWIDTH 740 0
DWIDTH 37 0
BBX 32 43 1 -4
BITMAP
01FFFFFF
01FFFFFF
01800003
01800003
01800003
01800003
01800003
01800003
01800003
01800003
01800003
01800003
01800003
01FFFFFF
01FFFFFF
01800000
01800000
01800000
01800000
01800000
01800000
01800000
01800000
01800000
01800000
03000000
03000000
03000000
03000000
03000000
06000000
06000000
06000000
04000000
0C000000
08000000
18000000
10000000
30000000
20000000
60000000
40000000
80000000
ENDCHAR
STARTCHAR 2F2C
ENCODING 12076
SWIDTH 720 0
DWIDTH 36 0
BBX 26 47 5 -5
BITMAP
00080000
000C0000
000C0000
000C0000
000C0000
000C0000
000C0000
800C0080
C00C00C0
C00C00C0
C00C00C0
C00C00C0
C00C00C0
C00C00C0
C00C00C0
C00C00C0
C00C00C0
C00C00C0
C00C00C0
C00C00C0
C00C00C0
C00C00C0
C00C00C0
C00C00C0
C00C00C0
C00C00C0
FFFFFFC0
FFFFFFC0
000C0000
000C0000
000C0000
000C0000
000C0000
000C0000
000C0000
000C0000
000C0000
000C0000
000C0000
000C0000
000C0000
000C0000
000C0000
000C0000
000C0000
000C0000
00080000
ENDCHAR
STARTCHAR 2F2D
ENCODING 12077
SWIDTH 740 0
DWIDTH 37 0
BBX 26 44 6 -1
BITMAP
000C0000
000C0000
000C0000
000C0000
000C0000
000C0000
000C0000
000C0000
000C0000
000C0000
000C0000
C00C0080
C00C00C0
C00C00C0
C00C00C0
C00C00C0
C00C00C0
C00C00C0
C00C00C0
C00C00C0
C00C00C0
C00C00C0
C00C00C0
C00C00C0
C00C00C0
C00C00C0
C00C00C0
C00C00C0
C00C00C0
C00C00C0
C00C00C0
C00C00C0
C00C00C0
C00C00C0
C00C00C0
C00C00C0
C00C00C0
C00C00C0
C00C00C0
C00C00C0
C00C00C0
C00C00C0
FFFFFFC0
FFFFFFC0
ENDCHAR
STARTCHAR 2F2E
ENCODING 12078
SWIDTH 740 0
DWIDTH 37 0
BBX 29 45 4 -4
BITMAP
00C07018
01C07038
01C07038
01806030
0180E030
0380E070
0300C070
0300C060
0301C060
060180E0
060380C0
060300C0
0C030180
0C060180
18060300
180C0300
100C0200
30180600
20100400
60300C00
40200800
80401000
80401000
40200800
60300C00
20100400
30180600
100C0200
180C0300
18060300
0C060180
0C030180
060300C0
060380C0
060180C0
0301C060
0300C060
0300C070
0380E070
0180E030
01806030
01C07038
01C07038
00C07018
00C00000
ENDCHAR
STARTCHAR 2F2F
ENCODING 12079
SWIDTH 740 0
DWIDTH 37 0
BBX 32 39 2 -1
BITMAP
3FFFFFF8
1FFFFFF0
00018000
00018000
00018000
00018000
00018000
00018000
00018000
00018000
00018000
00018000
00018000
00018000
00018000
00018000
00018000
00018000
00018000
00018000
00018000
00018000
00018000
00018000
00018000
00018000
00018000
00018000
00018000
00018000
00018000
00018000
00018000
00018000
00018000
00018000
00018000
FFFFFFFF
7FFFFFFE
ENDCHAR
STARTCHAR 2F30
ENCODING 12080
SWIDTH 740 0
DWIDTH 37 0
BBX 28 42 6 -3
BITMAP
FFFFFE00
FFFFFE00
00000600
00000600
00000600
00000600
00000600
00000600
00000600
00000600
00000600
00000600
00000600
00000600
00000600
7FFFFE00
7FFFFE00
60000000
60000000
60000000
60000000
60000000
60000000
60000000
60000000
60000000
60000000
60000000
60000000
60000000
60000000
60000000
60000000
60000000
60000000
60000000
60000040
60000040
60000060
70000070
3FFFFFF0
1FFFFFE0
ENDCHAR
STARTCHAR 2F31
ENCODING 12081
SWIDTH 720 0
DWIDTH 36 0
BBX 26 47 5 -4
BITMAP
00080000
000C0000
000C0000
000C0000
000C0000
000C0000
000C0000
000C0000
000C0000
000C0000
000C0000
FFFFFFC0
FFFFFFC0
C00C00C0
C00C00C0
C00C00C0
C00C00C0
C00C00C0
C00C00C0
C00C00C0
C00C00C0
C00C00C0
C00C00C0
C00C00C0
C00C00C0
C00C00C0
C00C00C0
C00C00C0
C00C00C0
C00C00C0
C00C00C0
C00C00C0
C00C00C0
C00C00C0
C00C00C0
C00C00C0
C00C00C0
C00C00C0
800C0080
000C0000
000C0000
000C0000
000C0000
000C0000
000C0000
000C0000
00080000
ENDCHAR
STARTCHAR 2F32
ENCODING 12082
SWIDTH 720 0
DWIDTH 36 0
BBX 32 43 2 -5
BITMAP
0FFFFFF8
07FFFFF0
00018000
00018000
00018000
00018000
00018000
00018000
00018000
00018000
00018000
00018000
00018000
00018000
00018000
00018000
FFFFFFFF
7FFFFFFE
00018000
00018000
00018000
00018000
00018000
00018000
00018000
00018000
00018000
00018000
00018000
00018000
00018000
00018000
00018000
00018000
00018000
00018000
00018000
00018000
00018000
00018000
00018000
00018000
00010000
ENDCHAR
STARTCHAR 2F33
ENCODING 12083
SWIDTH 740 0
DWIDTH 37 0
BBX 27 46 5 -3
BITMAP
00180000
00180000
00380000
00300000
00300000
00600000
00600000
00E00000
00C00000
00C00000
01800000
01801800
03003800
03003800
06007000
06007000
0C00E000
0800E000
1801C000
1001C000
203F8000
7FFB8000
7FC70000
7C060000
000E0000
000C0000
001C0000
00180000
00301000
00701000
00600800
00E00C00
00C00400
01800600
03000200
07000300
06000300
0C000180
18000180
10000FC0
3000F8C0
607FC0C0
FFFC00E0
FF8000E0
00000060
00000060
ENDCHAR
STARTCHAR 2F34
ENCODING 12084
SWIDTH 720 0
DWIDTH 36 0
BBX 31 47 3 -5
BITMAP
00004000
00006000
00006000
00006000
00006000
00006000
00006000
0FFFFFFE
0FFFFFFC
0C000000
0C000000
0C000000
0C000000
0C000000
0C000000
0C000000
0C000000
0C000000
0C000000
0C000000
0C000000
0C000000
0C000000
0C000000
0C000000
0C000000
0C000000
0C000000
1C000000
1C000000
18000000
18000000
18000000
18000000
18000000
18000000
10000000
30000000
30000000
20000000
20000000
20000000
40000000
40000000
40000000
80000000
80000000
ENDCHAR
STARTCHAR 2F35
ENCODING 12085
SWIDTH 760 0
DWIDTH 38 0
BBX 34 43 2 -5
BITMAP
3FF0000000
1FF0000000
0070000000
0060000000
00E0000000
00E0000000
00C0000000
01C0000000
0180000000
0380000000
0300000000
0700000000
0700000000
0600000000
0E00000000
0C00000000
0FF0000000
0FF0000000
0070000000
0070000000
0070000000
0070000000
0060000000
0060000000
0060000000
10E0000000
10E0000000
10C0000000
08C0000000
09C0000000
0D80000000
0580000000
0780000000
0300000000
0700000000
0780000000
0DC0000000
0CE0000000
1878000000
101F000000
200FFFFFC0
4001FFFF80
8000000000
ENDCHAR
STARTCHAR 2F36
ENCODING 12086
SWIDTH 740 0
DWIDTH 37 0
BBX 33 46 2 -4
BITMAP
0040020000
0060030000
0060030000
0060030000
0060030000
0060030000
0060030000
0060030000
0060030000
0060030000
0060030000
0060030000
0060030000
0060030000
0060030000
0060030000
0060030000
FFFFFFFF80
7FFFFFFF00
00C0030000
00C0030000
00C0030000
00C0030000
00C0030000
00C0030000
00C0030000
00C0030000
00C0030000
0180030000
0180030000
0180030000
0180030000
0180030000
0300030000
0300030000
0300030000
0200030000
0600030000
0400030000
0C00030000
0800030000
1800030000
1000030000
2000030000
4000030000
8000020000
ENDCHAR
STARTCHAR 2F37
ENCODING 12087
SWIDTH 720 0
DWIDTH 36 0
BBX 34 46 1 -4
BITMAP
0004000000
0006000000
0006180000
00060C0000
0006070000
0006038000
000601C000
000600E000
0006007000
0006003000
0006000000
0006000000
0003003F00
00033FFF00
001FFFFC00
1FFFFC0000
FFFF000000
7C03000000
0003000000
0003800000
0003800000
0001800000
0001800000
0001800000
0001C00000
0000C00000
0000C00000
0000E00000
0000E00000
0000600000
0000700000
0000700000
0000380000
0000380000
00001C0000
00001C0000
00000E0000
0000070000
0000070000
0000038000
000001C040
000000F080
0000007880
0000003F80
0000000FC0
0000000780
ENDCHAR
STARTCHAR 2F38
ENCODING 12088
SWIDTH 720 0
DWIDTH 36 0
BBX 25 44 5 -6
BITMAP
FFFFFF00
7FFFFF00
00000300
00000300
00000300
00000300
00000300
00000300
00000300
00000300
3FFFFF00
3FFFFF00
30000000
30000000
30000000
30000000
30000000
30000000
30000000
30000000
30000000
30000000
3FFFFF80
3FFFFF80
00000180
00000180
00000180
00000180
00000180
00000180
00000180
00000180
00000180
00000180
00000180
00000180
00000180
00000180
00000180
00000180
00000180
00000180
00000180
00000100
ENDCHAR
STARTCHAR 2F39
ENCODING 12089
SWIDTH 740 0
DWIDTH 37 0
BBX 25 39 5 0
BITMAP
7FFFFF80
3FFFFF80
00000180
00000180
00000180
00000180
00000180
00000180
00000180
00000180
00000180
00000180
00000180
00000180
00000180
00000180
00000180
3FFFFF80
1FFFFF80
00000180
00000180
00000180
00000180
00000180
00000180
00000180
00000180
00000180
00000180
00000180
00000180
00000180
00000180
00000180
00000180
00000180
00000180
FFFFFF80
7FFFFF80
ENDCHAR
STARTCHAR 2F3A
ENCODING 12090
SWIDTH 720 0
DWIDTH 36 0
BBX 28 45 4 -4
BITMAP
00000C00
00001C00
00003800
00007000
0001E000
00038000
00070000
001C0000
00300000
00C00000
03000000
0C000000
00000000
00000000
000000C0
000003C0
00000780
00000F00
00003C00
00007800
0001E000
00038000
000F0000
003C0000
00700000
01800000
06000000
38000000
00000000
00000030
00000070
000000E0
000003C0
00000700
00001E00
00003800
0000F000
0001C000
00078000
001E0000
00780000
01C00000
07000000
18000000
E0000000
ENDCHAR
STARTCHAR 2F3B
ENCODING 12091
SWIDTH 740 0
DWIDTH 37 0
BBX 12 46 1 -5
BITMAP
0060
00E0
00C0
01C0
0180
0380
0300
0600
0400
0C30
1830
2070
4060
80C0
01C0
0180
0380
0300
0700
0F00
1B00
3300
6300
8300
0300
0300
0300
0300
0300
0300
0300
0300
0300
0300
0300
0300
0300
0300
0300
0300
0300
0300
0300
0300
0300
0200
ENDCHAR
STARTCHAR 2F3C
ENCODING 12092
SWIDTH 740 0
DWIDTH 37 0
BBX 32 45 2 -3
BITMAP
00010000
00010000
00008000
0000C000
00006000
00006000
00003000
00003000
00003800
00001800
00201C00
00301C00
00300C00
00300000
00300000
00300000
00300000
00300000
04300020
04300020
04300010
0C300018
08300018
1830000C
1830000C
3830000E
30300006
70300006
70300007
E0300007
60300003
00300000
00300000
00300000
00300000
00300000
00300000
00300000
00300000
00300080
00300080
003800C0
003800E0
001FFFE0
000FFFC0
ENDCHAR
STARTCHAR 2F3D
ENCODING 12093
SWIDTH 720 0
DWIDTH 36 0
BBX 34 46 1 -4
BITMAP
0004000000
0006100000
0006080000
0006060000
0006030000
0006038000
000601C000
000600C000
000600E000
0006006000
0006000000
0007000000
0003001F00
00031FFF00
001FFFFC00
1FFFFC0000
FFFF000000
7C03000000
0003000000
0003801800
0001801800
0001803000
0001807000
0001C06000
0001C0E000
0000C1C000
0000C18000
0000E38000
0000670000
00007E0000
00007C0000
00003C0000
0000780000
0000780000
0000FC0000
0001CC0000
00030E0000
000E070000
001C078000
0038038000
006001C040
00C000F080
0300007880
0400003F80
1800001FC0
0000000780
ENDCHAR
STARTCHAR 2F3F
ENCODING 12095
SWIDTH 720 0
DWIDTH 36 0
BBX 32 46 2 -6
BITMAP
00000040
000001E0
00000FE0
00007F00
001FF800
1FFF8000
00018000
00018000
00018000
00018000
00018000
00018000
00018000
00018000
07FFFFF0
03FFFFE0
00018000
00018000
00018000
00018000
00018000
00018000
00018000
00018000
00018000
FFFFFFFF
7FFFFFFE
00018000
00018000
00018000
00018000
00018000
00018000
00018000
00018000
00018000
00018000
00018000
00018000
00018000
00018000
00018000
00018000
00018000
00018000
00018000
ENDCHAR
STARTCHAR 2F40
ENCODING 12096
SWIDTH 720 0
DWIDTH 36 0
BBX 33 46 2 -3
BITMAP
0001800000
0001800000
0001800000
0001800000
0001800000
FFFFFFFF00
7FFFFFFE00
0001800000
0001800000
0001800000
0001800000
0001800000
0001800000
0001800000
0001800000
0FFFFFC000
07FFFF8000
0100018000
0080038000
00C0030000
0040070000
0060060000
00200E0000
00300C0000
00101C0000
0018180000
000C380000
000C700000
0006600000
0003E00000
0003C00000
0001C00000
0003C00000
0007E00000
000E700000
001C380000
00381E0000
00700F0000
00C0078000
018003C000
030001F000
0600007800
0800003E00
1000001F80
6000000780
8000000100
ENDCHAR
STARTCHAR 2F41
ENCODING 12097
SWIDTH 740 0
DWIDTH 37 0
BBX 34 46 2 -3
BITMAP
0001800000
0001800000
0001800000
0001800000
0001800000
0001800000
0001FFFE00
0001FFFE00
0001800000
0001800000
0001800000
0001800000
0001800000
0001800000
0001800000
07FFFFC000
03FFFFC000
0080018000
0040038000
0040038000
0020030000
0020070000
0030060000
00180E0000
00181C0000
000C1C0000
000E380000
0006300000
0003700000
0003E00000
0001C00000
0001C00000
0003E00000
0007700000
000E380000
001C1C0000
00380F0000
0070078000
00C003C000
018001F000
030000F800
0600003E00
0800001F80
1000000FC0
6000000380
8000000080
ENDCHAR
STARTCHAR 2F42
ENCODING 12098
SWIDTH 760 0
DWIDTH 38 0
BBX 32 46 3 -3
BITMAP
00018000
00018000
00018000
00018000
00018000
00018000
00018000
7FFFFFFE
3FFFFFFC
01800300
00800700
00800700
00C00600
00400E00
00600E00
00600C00
00301C00
00301C00
00301800
00183800
00183800
000C7000
000C7000
0006E000
0007E000
0003C000
0003C000
00038000
0003C000
0007E000
0006E000
000E7000
001C3800
00183800
00301C00
00700E00
00E00700
00C00780
018003C0
030001E0
060000F0
0C00007C
1800003E
3000001F
40000006
80000000
ENDCHAR
STARTCHAR 2F43
ENCODING 12099
SWIDTH 740 0
DWIDTH 37 0
BBX 32 47 3 -4
BITMAP
00001000
00001800
00001800
00001800
03001800
01801800
00C01800
00601800
00301800
00381800
001C1800
000E1800
100E1800
08061800
0C001800
06001800
07001800
03801800
01C01800
01E01800
00E01800
00601800
00001800
00001800
0000183F
00001FFE
0003FFF8
00FFFE00
1FFF9800
FFE01800
78001800
00001800
00001800
00001800
00001800
00001800
00001800
00001800
00001800
00001800
00001800
00001800
00001800
00001800
00001800
00001800
00001000
ENDCHAR
STARTCHAR 2F44
ENCODING 12100
SWIDTH 740 0
DWIDTH 37 0
BBX 33 46 2 -4
BITMAP
0000003800
000001F800
00001FE000
0003FE0000
03FF800000
0300000000
0300000000
0300000000
0300000000
0300000000
0300000000
0300000000
0300000000
0300000000
0300000000
0300000000
03FFFFFF80
03FFFFFF00
0300060000
0300060000
0300060000
0300060000
0300060000
0300060000
0700060000
0700060000
0700060000
0700060000
0600060000
0600060000
0600060000
0600060000
0E00060000
0C00060000
0C00060000
0C00060000
1800060000
1800060000
1000060000
3000060000
2000060000
2000060000
4000060000
4000060000
8000060000
0000040000
ENDCHAR
STARTCHAR 2F45
ENCODING 12101
SWIDTH 740 0
DWIDTH 37 0
BBX 33 46 2 -4
BITMAP
0000C00000
0000C00000
0000C00000
0000C00000
0000C00000
0000C00000
7FFFFFFF80
3FFFFFFF00
0030000000
0030000000
0030000000
0030000000
0030000000
0030000000
0030000000
0030000000
003FFFE000
003FFFE000
0030006000
0030006000
0030006000
0030006000
0030006000
0030006000
0070006000
0070006000
0060006000
0060006000
0060006000
0060006000
00E0006000
00C0006000
00C0006000
01C0006000
0180006000
0180006000
0300006000
0300006000
0600006000
0600006000
0C00006000
1800006000
1000006000
3000006000
4000006000
8000004000
ENDCHAR
STARTCHAR 2F46
ENCODING 12102
SWIDTH 740 0
DWIDTH 37 0
BBX 34 43 1 -5
BITMAP
07FFFFF800
03FFFFF000
0000C00000
0000C00000
0000C00000
0000C00000
0000C00000
0000C00000
0000C00000
0000C00000
0000C00000
0000C00000
0001C00000
0001C00000
3FFFFFFF80
1FFFFFFF00
0001980000
0001980000
0001980000
0003980000
0003980000
0003180000
0003180000
0007180000
0007180000
0006180000
000E180000
000E180000
000C180000
001C180000
0018180000
0038180000
0070180000
0060180000
00E0180000
01C0180000
0180180000
0300180100
0600180100
0C001C03C0
18000FFFC0
200007FF80
C000000000
ENDCHAR
STARTCHAR 2F47
ENCODING 12103
SWIDTH 720 0
DWIDTH 36 0
BBX 22 41 7 -3
BITMAP
FFFFFC
FFFFFC
C0000C
C0000C
C0000C
C0000C
C0000C
C0000C
C0000C
C0000C
C0000C
C0000C
C0000C
C0000C
C0000C
C0000C
C0000C
FFFFFC
FFFFFC
C0000C
C0000C
C0000C
C0000C
C0000C
C0000C
C0000C
C0000C
C0000C
C0000C
C0000C
C0000C
C0000C
C0000C
C0000C
C0000C
C0000C
C0000C
C0000C
C0000C
FFFFFC
FFFFFC
ENDCHAR
STARTCHAR 2F48
ENCODING 12104
SWIDTH 720 0
DWIDTH 36 0
BBX 24 41 6 -1
BITMAP
FFFFFF
FFFFFF
C00003
C00003
C00003
C00003
C00003
C00003
C00003
C00003
C00003
C00003
C00003
C00003
C00003
C00003
C00003
C00003
C00003
FFFFE3
FFFFE3
C00003
C00003
C00003
C00003
C00003
C00003
C00003
C00003
C00003
C00003
C00003
C00003
C00003
C00003
C00003
C00003
C00003
C00003
FFFFFF
FFFFFF
ENDCHAR
STARTCHAR 2F49
ENCODING 12105
SWIDTH 740 0
DWIDTH 37 0
BBX 27 45 2 -5
BITMAP
03FFFFE0
03FFFFE0
03000060
03000060
03000060
03000060
03000060
03000060
03000060
03000060
03000060
03000060
03FFFFE0
03FFFFE0
03000060
03000060
03000060
03000060
03000060
03000060
03000060
03000060
03000060
03000060
03FFFFE0
07FFFFE0
06000060
06000060
06000060
06000060
06000060
04000060
0C000060
0C000060
0C000060
08000060
18000060
18000060
10000060
30000060
20000060
60000060
40000060
80000040
80000000
ENDCHAR
STARTCHAR 2F4A
ENCODING 12106
SWIDTH 720 0
DWIDTH 36 0
BBX 34 47 1 -5
BITMAP
0000800000
0000C00000
0000C00000
0000C00000
0000C00000
0000C00000
0000C00000
0000C00000
0000C00000
0000C00000
3FFFFFFF00
1FFFFFFE00
0018C40000
0018C40000
0038C60000
0038C60000
0030C20000
0030C20000
0030C30000
0070C30000
0070C30000
0060C10000
0060C18000
0060C18000
00E0C18000
00C0C0C000
00C0C0C000
00C0C0E000
0180C0E000
0180C06000
0180C07000
0300C03000
0300C03800
0700C03800
0600C01C00
0600C01C00
0C00C00E00
0800C00F00
1800C00700
1000C00380
2000C003C0
2000C001C0
4000C00080
8000C00000
0000C00000
0000C00000
0000800000
ENDCHAR
STARTCHAR 2F4B
ENCODING 12107
SWIDTH 740 0
DWIDTH 37 0
BBX 30 46 4 -3
BITMAP
01800000
03800000
03800000
03800000
03000000
03000000
03000000
07FFFFF0
07FFFFF0
06000030
0C000060
0C070060
08070040
180700C0
10070080
30070080
20070100
60060100
40060000
80070000
000F0000
000F0000
000E8000
000C8000
000CC000
000C4000
001C6000
00186000
00183000
00303000
00301800
00301800
00601C00
00600C00
00C00E00
00C00700
01800300
01000380
030001C0
060001C0
040000E0
08000070
10000078
2000003C
C000001C
00000010
ENDCHAR
STARTCHAR 2F4C
ENCODING 12108
SWIDTH 740 0
DWIDTH 37 0
BBX 33 45 2 -2
BITMAP
0000600000
0000600000
0000600000
0000600000
0000600000
0000600000
0000600000
0000600000
0000600000
0000600000
0100600000
0180600000
0180600000
0180600000
0180600000
01807FFE00
01807FFC00
0180600000
0180600000
0180600000
0180600000
0180600000
0180600000
0180600000
0180600000
0180600000
0180600000
0180600000
0180600000
0180600000
0180600000
0180600000
0180600000
0180600000
0180600000
0180600000
0180600000
0180600000
0180600000
0180600000
0180600000
0180600000
0180600000
FFFFFFFF80
7FFFFFFF00
ENDCHAR
STARTCHAR 2F4D
ENCODING 12109
SWIDTH 740 0
DWIDTH 37 0
BBX 31 44 3 -4
BITMAP
7FFFFFFE
3FFFFFFC
001C0000
00180000
00180000
00380000
00380000
00300000
00300000
007FFFE0
007FFFE0
006000E0
00E000E0
00C000C0
01C001C0
018001C0
018001C0
03800380
03C00380
06600380
04300700
0C380700
18180600
100C0E00
200E0C00
20061C00
40071800
80033800
00007000
00006000
0000E000
0001C000
00038000
00030000
00060000
000C0000
00180000
00700000
00E00000
01800000
03000000
0C000000
30000000
C0000000
ENDCHAR
STARTCHAR 2F4E
ENCODING 12110
SWIDTH 720 0
DWIDTH 36 0
BBX 34 45 1 -5
BITMAP
00FFFF0000
00FFFF0000
00C0030000
00C0030000
00C0030000
00C0030000
00C0030000
00C0030000
00C0030000
0180030000
0180030000
0180030000
0100030000
0300030000
020003FE00
060003FE00
0C00000000
1000000000
2000000000
07FFFFE000
03FFFFC000
008001C000
004001C000
0060038000
0020030000
0030070000
00180E0000
000C0E0000
000E1C0000
0007380000
0003F00000
0001E00000
0001E00000
0003F00000
0007380000
000E1E0000
001C0F0000
003807C000
006001F000
01C000F800
0300003E00
0600001FC0
18000007C0
2000000180
C000000000
ENDCHAR
STARTCHAR 2F4F
ENCODING 12111
SWIDTH 740 0
DWIDTH 37 0
BBX 33 44 2 -4
BITMAP
03FFFFE000
03FFFFE000
0301806000
0301806000
0301806000
0301806000
0301806000
0301806000
0301806000
0301806000
0301806000
0301806000
0301806000
0301806000
FFFFFFFF80
7FFFFFFF00
0301806000
0301806000
0301806000
0301806000
0301806000
0301806000
0301806000
0303806000
0303806000
0303006000
0303006000
0303006000
0307006000
0306006000
03FFFFFE00
03FFFFFE00
000C006000
000C006000
0018006000
0018006000
0030006000
0060006000
0060006000
00C0006000
0180006000
0300006000
0200006000
0C00000000
ENDCHAR
STARTCHAR 2F50
ENCODING 12112
SWIDTH 720 0
DWIDTH 36 0
BBX 29 45 6 -3
BITMAP
80020000
C0030000
C0030000
C0030000
C0030000
C0030000
C0030000
C0030000
C0030060
C00300E0
C00300E0
C00301C0
C0030380
C0030300
C0030600
C0030C00
FFF31800
FFF33000
C0036000
C003C000
C0038000
C0030000
C0030000
C0030000
C0030000
C0030000
C0030000
C0030000
C0030000
C0030000
C0030000
C0030000
C0030000
C0030000
C0030000
C0030000
C0030000
C0030000
C0030000
C0030000
C0030020
C0038020
C0038078
C001FFF8
4000FFF0
ENDCHAR
STARTCHAR 2F51
ENCODING 12113
SWIDTH 740 0
DWIDTH 37 0
BBX 33 45 2 -4
BITMAP
0000003000
000001F000
00000FE000
0000FF0000
001FF80000
1FFF000000
0003000000
0003000000
0003000000
0003000000
0003000000
0003000000
0003000000
000307F000
0007FFF000
07FFFF8000
0FFF000000
0703000000
0003000000
0003000000
0003000000
0003000000
0003000000
0003000000
0003001F00
00031FFF00
001FFFFC00
1FFFFE0000
FFFF000000
7E03000000
0003000000
0003000000
0003000000
0003000000
0003000000
0003000000
0003000000
0003000000
0003000000
0003000000
0003000200
0003000300
0003800780
0001FFFF80
0000FFFF00
ENDCHAR
STARTCHAR 2F52
ENCODING 12114
SWIDTH 740 0
DWIDTH 37 0
BBX 29 46 7 -4
BITMAP
00000380
00001F80
0001FF00
001FF000
07FF0000
FFCC0000
C00C0000
C00C0000
C00C0000
C00C0000
C00C0000
C00C0000
C00C0000
C00C0000
C00C0000
C00E0000
C00E0000
C0060000
FFFFFFE0
FFFFFFE0
C0060000
C0060000
C0060000
C0060000
C0070000
C0070000
C0030000
C0030000
C0030000
C0038000
C0018000
C0018000
C001C000
C000C000
C000E000
C000E000
C0007000
C0007000
C0003800
C0001C00
C0001E10
C0000F10
C00007F0
C00001F8
C00000F0
40000000
ENDCHAR
STARTCHAR 2F53
ENCODING 12115
SWIDTH 720 0
DWIDTH 36 0
BBX 33 47 2 -5
BITMAP
00C0000000
01C0000000
01C0000000
0180000000
0180000000
0380000000
03FFFFFE00
03FFFFFC00
0300000000
0600000000
0600000000
0600000000
0C00000000
0CFFFFF000
187FFFE000
1800000000
1000000000
2000000000
6000000000
4000000000
87FFFFC000
07FFFFC000
000000C000
000000C000
000000C000
000000C000
000000C000
000000C000
000000C000
000000C000
000000C000
000000C000
000000C000
000000C000
000000C000
0000004000
0000006000
0000006000
0000006000
0000006000
0000007000
0000003000
0000003880
0000001C80
0000001F80
0000000F80
0000000700
ENDCHAR
STARTCHAR 2F54
ENCODING 12116
SWIDTH 740 0
DWIDTH 37 0
BBX 35 47 1 -5
BITMAP
0000400000
0000600000
0000600000
0000600000
0000600000
0000600000
0000600000
0000600000
0000600200
0000600700
0000700E00
0000700C00
0000701C00
3FF8703800
1FF8687000
001868E000
001869C000
00186F0000
0018660000
0038660000
0030660000
0030660000
0030630000
0070630000
0070618000
0060618000
006061C000
00E060C000
00E060E000
00C0606000
01C0607000
0180603000
0380603800
0300601800
0700601C00
0600600E00
0E00600E00
0C00600700
1800600780
1000600380
30006001C0
60006001E0
4000600080
8000600000
0000600000
0000600000
0000400000
ENDCHAR
STARTCHAR 2F55
ENCODING 12117
SWIDTH 740 0
DWIDTH 37 0
BBX 33 47 2 -5
BITMAP
0001800000
0001800000
0001800000
0001800000
0001800000
0001800000
0001800000
0001800000
0001800000
0001800000
0001800000
0001801800
0101803800
0103803800
0303803800
0203C03000
0203407000
0603406000
0603406000
0C0360C000
0C0760C000
1C07218000
3806310000
3806310000
300E120000
000E180000
000C180000
000C1C0000
001C0C0000
00180C0000
0038060000
0030060000
0030070000
0070038000
0060038000
00E001C000
00C000C000
018000E000
0380007000
0300007800
0600003800
0C00001C00
0800000E00
1000000700
2000000780
4000000300
8000000000
ENDCHAR
STARTCHAR 2F56
ENCODING 12118
SWIDTH 740 0
DWIDTH 37 0
BBX 35 47 1 -5
BITMAP
0000001800
0000007800
000003F800
00001FC000
0007FF0000
03FF810000
0301810000
0301810000
0301810000
0301810000
0301810000
0301818000
0301818000
0301818000
0301818000
0301818000
0301818000
0301808000
030180C000
030180C000
030180C000
030180C000
030180C000
030180E000
0301806000
0701806000
0601806000
0601807000
0601807000
0601803000
0601803800
0601803800
0C01803800
0C01801C00
0C01801C00
0C01801C00
0801800E00
1801800E00
1801800F00
1001800700
3001800780
3001800380
20018003C0
60018001C0
40018001E0
80018000C0
8000000000
ENDCHAR
STARTCHAR 2F57
ENCODING 12119
SWIDTH 740 0
DWIDTH 37 0
BBX 30 46 3 -4
BITMAP
00302000
00701000
00700800
00600C00
00E00600
00C00700
01C00380
01C00180
018001C0
030000E0
030000E0
06000070
0E000070
0C000038
1800003C
3080061C
2080060C
40800E00
80400C00
00400C00
00201C00
00201800
00303800
00103000
00183000
00086000
000CE000
0006C000
0007C000
00038000
00038000
00078000
0006C000
000EE000
001C7000
00383800
00701C00
00601E00
00C00F00
01800780
030001E0
0E0000F0
1800007C
3000001C
6000000C
80000000
ENDCHAR
STARTCHAR 2F58
ENCODING 12120
SWIDTH 760 0
DWIDTH 38 0
BBX 31 47 4 -4
BITMAP
00000C00
00001C00
08001800
07003800
01C07000
0060E000
0039C000
000F8000
00070000
0007C000
000CE000
00387000
00703C00
00E01E00
01800700
03000380
0C0001C0
100000C0
60000000
00000600
04000E00
04000C00
02001C00
02001C00
01003800
01803800
00807000
00C07000
0060E000
0060C000
0031C000
001B8000
001F0000
000F0000
000F0000
001F8000
0019C000
0030E000
00707000
00C03C00
01801E00
03000F80
060007E0
080001F8
3000007E
4000003E
8000000C
ENDCHAR
STARTCHAR 2F59
ENCODING 12121
SWIDTH 740 0
DWIDTH 37 0
BBX 28 47 2 -5
BITMAP
00000020
00800030
00C00030
00C00030
00C00030
00C00030
00C00030
00C00030
00C00030
00C00030
00C00030
00C00030
00C00030
00C00030
00FFFFF0
00FFFFF0
00000030
00000030
00000030
00000030
00000030
00000030
00000030
00000030
3FFFFFF0
3FFFFFF0
00300030
00300030
00300030
00700030
00700030
00700030
00600030
00600030
00E00030
00E00030
00C00030
01C00030
01800030
03800030
03000030
06000030
0C000030
18000030
30000030
60000020
80000000
ENDCHAR
STARTCHAR 2F5A
ENCODING 12122
SWIDTH 740 0
DWIDTH 37 0
BBX 32 47 2 -4
BITMAP
00001800
02001800
03001800
03001800
03001800
03001800
03001800
03001800
03001800
03001800
03001800
03001800
03001800
03FFFFFF
03FFFFFE
03000000
03000000
03000000
03000000
03000000
03000000
03000000
03000000
03000000
03FFFFC0
03FFFFC0
030000C0
030000C0
070000C0
060000C0
060000C0
060000C0
060000C0
060000C0
0C0000C0
0C0000C0
0C0000C0
080000C0
180000C0
100000C0
100000C0
200000C0
200000C0
400000C0
400000C0
800000C0
00000080
ENDCHAR
STARTCHAR 2F5B
ENCODING 12123
SWIDTH 740 0
DWIDTH 37 0
BBX 33 43 2 -5
BITMAP
1FFFFFFF00
0FFFFFFE00
0000060000
0000060000
0000060000
0200060000
0300060000
0300060000
0300060000
0300060000
0300060000
0300060000
0300060000
0300060000
0300060000
03FFFFFF80
03FFFFFF00
000C060000
000C060000
001C060000
001C060000
0018060000
0018060000
0038060000
0030060000
0030060000
0070060000
0060060000
0060060000
00C0060000
00C0060000
0180060000
0180060000
0300060000
0300060000
0600060000
0C00060000
0C00060000
1800060000
3000060000
2000060000
4000060000
8000060000
ENDCHAR
STARTCHAR 2F5C
ENCODING 12124
SWIDTH 740 0
DWIDTH 37 0
BBX 33 47 2 -5
BITMAP
0000800000
0000C00000
0000C00000
00C0C00000
00C0C00000
01C0C00000
01C0C00000
0180C00000
0180C00000
0180C00000
03FFFFF800
03FFFFF800
0300C00000
0600C00000
0600C00000
0400C00000
0C00C00000
0800C00000
1000C00000
1000C00000
2000C00000
0000C00000
0000C00000
0000C00000
FFFFFFFF80
7FFFFFFF00
0000C00000
0000C00000
0000C00000
0000C00000
0000C00000
0000C00000
0000C00000
0000C00000
0000C00000
0000C00000
0000C00000
0000C00000
0000C00000
0000C00000
0000C00000
0000C00000
0000C00000
0000C00000
0000C00000
0000C00000
0000800000
ENDCHAR
STARTCHAR 2F5D
ENCODING 12125
SWIDTH 740 0
DWIDTH 37 0
BBX 33 46 2 -4
BITMAP
0001000000
0001800000
0001840000
0001820000
0001830000
0001818000
000181C000
000180C000
000180E000
0001806000
0001800000
0001800000
0001800000
0001800000
7FFFFFFF00
3FFFFFFE00
0003000000
0003000000
0003200000
0003200000
0003200000
0003100000
0007100000
0006100000
0006180000
0006080000
00060C0000
000E0C0000
000C060000
000C060000
0018030000
0018030000
0018018000
0030018000
006000C000
006000E000
00C0006000
0080007000
0180003800
0300001C00
0600001E00
0C00000F00
0800000780
1000000380
6000000100
8000000000
ENDCHAR
STARTCHAR 2F5E
ENCODING 12126
SWIDTH 720 0
DWIDTH 36 0
BBX 32 47 2 -5
BITMAP
00010000
00018000
00018000
00018000
00018000
00018000
00018000
FFFFFFFF
7FFFFFFE
00030000
00070000
00060000
000C0000
000C0000
00180000
00380600
00300600
00600E00
00600C00
00C00C00
01801800
03001800
02003800
0407F000
0FFF7000
0FF06000
0000C000
0000C000
00018000
00038000
00030000
00060000
000E0400
000C0400
00180200
00300300
00200180
00600180
00C000C0
018000C0
030003E0
06001E60
0C07F070
1FFF8030
1FF80038
1E000038
00000010
ENDCHAR
STARTCHAR 2F5F
ENCODING 12127
SWIDTH 740 0
DWIDTH 37 0
BBX 33 41 2 -3
BITMAP
3FFFFFFC00
1FFFFFF800
0001800000
0001800000
0001800000
0001800000
0001800000
0001800000
0001800000
0001800000
0001800000
0001800000
0001800000
0001800000
0001800000
0001800000
0001800000
07FFFFF000
03FFFFE000
0001800000
0001800000
0001800000
0001800000
0001800000
0001840000
0001820000
0001830000
0001818000
0001818000
000180C000
000180E000
0001806000
0001807000
0001807000
0001803000
0001802000
0001800000
0001800000
0001800000
FFFFFFFF80
7FFFFFFF00
ENDCHAR
STARTCHAR 2F60
ENCODING 12128
SWIDTH 740 0
DWIDTH 37 0
BBX 35 47 1 -5
BITMAP
0000001800
0000007800
000003F800
00001FC000
0003FF8000
03FF818000
0301818000
0301818000
0301818000
0301818000
0301818000
0301818000
0301818000
0301818000
0301818000
030181C000
030181C000
030181C000
030180C000
030180C000
030180C000
030180C000
030180C000
030180E000
030180E000
0701806000
0601806000
0601807000
0601807000
0601803000
0601803000
0603803800
0C03103800
0C03081800
0C030C1C00
0C03041C00
0802060E00
1806070E00
1806030E00
1004030700
300C078700
20083D8380
2009F1C380
401FC1C1C0
401F00C0E0
80000000C0
8000000000
ENDCHAR
STARTCHAR 2F61
ENCODING 12129
SWIDTH 740 0
DWIDTH 37 0
BBX 34 44 2 -4
BITMAP
FFFFFFFE00
7FFFFFFC00
00E0000000
00E0000000
00E0000000
00E0000000
00C0000000
00C0000000
00C0000000
00C0000000
01C0000000
01FFFE0000
01FFFE0000
01C0060000
01C0060000
0180060000
0180060000
0180060000
0188060000
0388060000
0384060000
0386060000
0382060000
0383060000
0303060000
0303860000
0301860000
0301860000
0700060000
0700060000
0700060000
0700060000
0600060000
0600060000
0600060000
0600060000
0600060000
0E00060100
0E00060100
0E00060100
0E000703C0
0C0003FFC0
0C0001FF80
0400000000
ENDCHAR
STARTCHAR 2F62
ENCODING 12130
SWIDTH 740 0
DWIDTH 37 0
BBX 34 45 1 -2
BITMAP
0080008000
00C000C000
00C000C000
00C000C000
00C000C000
00C000C000
00C000C000
00C000C000
00C000C000
00C000C000
FFFFFFFFC0
7FFFFFFF80
00C000C000
00C000C000
00C000C000
00C000C000
00C000C000
00C000C000
00C000C000
00C000C000
00C000C000
00C000C000
00C000C000
00C000C000
00C000C000
00FFFFC000
00FFFFC000
00C000C000
00C000C000
00C000C000
00C000C000
00C000C000
00C000C000
00C000C000
00C000C000
00C000C000
00C000C000
00C000C000
00C000C000
00C000C000
00C000C000
00C000C000
00C000C000
00FFFFC000
00FFFFC000
ENDCHAR
STARTCHAR 2F63
ENCODING 12131
SWIDTH 720 0
DWIDTH 36 0
BBX 30 45 3 -3
BITMAP
00020000
00030000
01830000
01830000
01830000
03830000
03030000
03030000
03030000
03030000
07FFFFC0
07FFFFC0
06030000
04030000
0C030000
0C030000
08030000
18030000
10030000
30030000
20030000
40030000
40030000
80030000
00030000
07FFFFC0
03FFFF80
00030000
00030000
00030000
00030000
00030000
00030000
00030000
00030000
00030000
00030000
00030000
00030000
00030000
00030000
00030000
00030000
FFFFFFFC
7FFFFFF8
ENDCHAR
STARTCHAR 2F64
ENCODING 12132
SWIDTH 760 0
DWIDTH 38 0
BBX 30 44 2 -4
BITMAP
07FFFFFC
07FFFFFC
0600C00C
0600C00C
0600C00C
0600C00C
0600C00C
0600C00C
0600C00C
0600C00C
0600C00C
0600C00C
07FFFFFC
07FFFFFC
0600C00C
0600C00C
0600C00C
0600C00C
0600C00C
0600C00C
0600C00C
0600C00C
0600C00C
0600C00C
0FFFFFFC
0FFFFFFC
0C00C00C
0C00C00C
0C00C00C
0C00C00C
0C00C00C
0800C00C
1800C00C
1800C00C
1800C00C
1000C00C
3000C00C
3000C00C
2000C00C
2000C00C
4000C00C
4000C00C
8000C00C
80000008
ENDCHAR
STARTCHAR 2F65
ENCODING 12133
SWIDTH 720 0
DWIDTH 36 0
BBX 26 40 5 -2
BITMAP
FFFFFFC0
FFFFFFC0
C00C00C0
C00C00C0
C00C00C0
C00C00C0
C00C00C0
C00C00C0
C00C00C0
C00C00C0
C00C00C0
C00C00C0
C00C00C0
C00C00C0
C00C00C0
C00C00C0
C00C00C0
C00C00C0
FFFFFFC0
FFFFFFC0
C00C00C0
C00C00C0
C00C00C0
C00C00C0
C00C00C0
C00C00C0
C00C00C0
C00C00C0
C00C00C0
C00C00C0
C00C00C0
C00C00C0
C00C00C0
C00C00C0
C00C00C0
C00C00C0
C00C00C0
C00C00C0
FFFFFFC0
FFFFFFC0
ENDCHAR
STARTCHAR 2F66
ENCODING 12134
SWIDTH 740 0
DWIDTH 37 0
BBX 33 43 2 -5
BITMAP
1FFFFFFE00
0FFFFFFE00
0000600600
0000600600
0000600600
0000600600
0000600600
0000600600
0000600400
0000600000
0180600000
0180600000
0180600000
0180600000
0180600000
0180600000
0180600000
01807FFE00
01807FFC00
0180600000
0380600000
0300600000
0300600000
0300600000
0300600000
0380600000
0780600000
0680600000
06C0600000
0640600000
0C60600000
0C60600000
0C30600000
0838600000
1818600000
181C600000
100F600000
3007E00000
2003E00000
6000FFFF80
40003FFF00
8000000000
8000000000
ENDCHAR
STARTCHAR 2F67
ENCODING 12135
SWIDTH 740 0
DWIDTH 37 0
BBX 34 46 1 -3
BITMAP
0000060000
0000060000
0000060000
0000060000
0000060000
00FFFFFFC0
00FFFFFF80
00C0000000
00C0000000
40C0000000
20C0000000
30C0000000
10C0000000
18C0000000
1CC0000000
0CC0000000
0CC0000000
00C0000000
00C0000000
00C0000000
00C0000000
01C0000000
02C0000000
0EC0000000
1DC0000000
79C0000000
F180000000
4180000000
0180000000
0180000000
0180000000
0300000000
0300000000
0300000000
0300000000
0600000000
0600000000
0600000000
0400000000
0C00000000
0800000000
0800000000
1000000000
1000000000
2000000000
2000000000
ENDCHAR
STARTCHAR 2F69
ENCODING 12137
SWIDTH 720 0
DWIDTH 36 0
BBX 24 45 6 -2
BITMAP
001800
003800
003000
003000
006000
004000
008000
FFFFFF
FFFFFF
C00003
C00003
C00003
C00003
C00003
C00003
C00003
C00003
C00003
C00003
C00003
C00003
C00003
C00003
C00003
FFFFFF
FFFFFF
C00003
C00003
C00003
C00003
C00003
C00003
C00003
C00003
C00003
C00003
C00003
C00003
C00003
C00003
C00003
C00003
C00003
FFFFFF
FFFFFF
ENDCHAR
STARTCHAR 2F6A
ENCODING 12138
SWIDTH 740 0
DWIDTH 37 0
BBX 33 47 2 -5
BITMAP
0000800000
0000C00000
0000C00000
0000C00000
0000C00000
0000C00000
07FFFFF800
07FFFFF800
0600C01800
0600C01800
0600C01800
0600C01800
0600C01800
0600C01000
0600C00000
0600C00000
0600C00000
0600C00000
07FFFFE000
07FFFFE000
062000C000
061000C000
061001C000
061801C000
0608018000
060C038000
0C04030000
0C06070000
0C03060000
0C030E0000
0C018C0000
0C01DC0000
0C00F80000
0C00700000
1800700000
1800F80000
1800DC0000
18018E0000
1003070000
300603C000
300C01E000
201800F000
6030007C00
4060001F00
4080000F80
8100000300
8600000000
ENDCHAR
STARTCHAR 2F6B
ENCODING 12139
SWIDTH 740 0
DWIDTH 37 0
BBX 33 42 2 -3
BITMAP
07FFFFF800
07FFFFF800
060C181800
060C181800
060C181800
060C181800
060C181800
060C181800
060C181800
060C181800
060C181800
060C181800
060C181800
060C181800
060C181800
060C181800
060C181800
060C181800
060C181800
060C181800
060C181800
060C181800
060C181800
060C181800
060C181800
060C181800
060C181800
060C181800
060C181800
060C181800
060C181800
060C181800
060C181800
060C181800
060C181800
060C181800
060C181800
060C181800
060C181800
060C181800
FFFFFFFF80
7FFFFFFF00
ENDCHAR
STARTCHAR 2F6C
ENCODING 12140
SWIDTH 720 0
DWIDTH 36 0
BBX 22 43 7 -3
BITMAP
FFFFFC
FFFFFC
C0000C
C0000C
C0000C
C0000C
C0000C
C0000C
C0000C
C0000C
C0000C
C0000C
C0000C
FFFFFC
FFFFFC
C0000C
C0000C
C0000C
C0000C
C0000C
C0000C
C0000C
C0000C
C0000C
C0000C
C0000C
FFFFFC
FFFFFC
C0000C
C0000C
C0000C
C0000C
C0000C
C0000C
C0000C
C0000C
C0000C
C0000C
C0000C
C0000C
C0000C
FFFFFC
FFFFFC
ENDCHAR
STARTCHAR 2F6D
ENCODING 12141
SWIDTH 720 0
DWIDTH 36 0
BBX 32 44 1 -4
BITMAP
03FFFFF8
01FFFFF8
00000070
000000E0
000001C0
00000380
00000700
00040E00
00031C00
00019800
0000E000
00006000
00003000
00003800
00001800
3FFFFFFF
3FFFFFFF
000E1803
000C1803
000C1803
000C1803
001C1803
00181803
00181803
00381802
00381800
00301800
00701800
00601800
00601800
00E01800
00C01800
01C01800
01801800
03001800
03001800
06001800
0C001800
08001800
10001800
20001800
40001800
80001800
00001800
ENDCHAR
STARTCHAR 2F6E
ENCODING 12142
SWIDTH 720 0
DWIDTH 36 0
BBX 31 47 2 -5
BITMAP
00C00000
00C00000
00C00000
01C00000
01800000
01800000
01800000
03800000
03FFFFF0
03FFFFE0
02030000
06030000
04030000
0C030000
08030000
08030000
10030000
20030000
20030000
00030000
00030000
00030000
FFFFFFFE
7FFFFFFC
00064000
00064000
00066000
000E2000
000C3000
000C3000
000C1800
00181800
00181C00
00380C00
00300E00
00700700
00600300
00E00380
00C001C0
018000E0
030000F0
07000078
0600003C
0C00001E
1000000E
60000006
80000000
ENDCHAR
STARTCHAR 2F6F
ENCODING 12143
SWIDTH 740 0
DWIDTH 37 0
BBX 32 41 1 -3
BITMAP
1FFFFFFF
0FFFFFFE
00060000
00060000
000E0000
000E0000
000C0000
000C0000
001C0000
00180000
00180000
00380000
00300000
00300000
00700000
00600000
00FFFFF0
00FFFFF0
00F00030
01B00030
01B00030
03300030
02300030
06300030
0C300030
08300030
10300030
30300030
20300030
40300030
80300030
00300030
00300030
00300030
00300030
00300030
00300030
00300030
00300030
003FFFF0
003FFFF0
ENDCHAR
STARTCHAR 2F70
ENCODING 12144
SWIDTH 740 0
DWIDTH 37 0
BBX 33 43 2 -5
BITMAP
03FFFFF000
01FFFFE000
0000000000
0000000000
0000000000
0000000000
0000000000
0000000000
0000000000
0000000000
0000000000
0000000000
0000000000
0000000000
3FFFFFFF00
1FFFFFFE00
0000C00000
0000C00000
0000C00000
0000C00000
0000C00000
0060C00000
0060C20000
00E0C10000
00C0C08000
00C0C0C000
01C0C06000
0180C03000
0180C03000
0300C01800
0300C01C00
0600C00C00
0600C00E00
0C00C00600
1800C00700
1800C00300
3000C00380
2000C00100
4000C00000
8000C00000
0000C00000
0000C00000
0000C00000
ENDCHAR
STARTCHAR 2F72
ENCODING 12146
SWIDTH 720 0
DWIDTH 36 0
BBX 34 45 1 -4
BITMAP
0000007800
000003F800
00003FC000
000FFC0000
1FFFC00000
0000C00000
0000C00000
0000C00000
0000C00000
0000C00000
0000C00000
0000C00000
0000C00000
0000C00000
0000C00000
3FFFFFFF00
1FFFFFFE00
0018C40000
0018C40000
0038C60000
0038C20000
0030C20000
0030C30000
0070C30000
0070C18000
0060C18000
0060C0C000
00E0C0C000
00C0C0E000
00C0C06000
0180C07000
0180C03000
0380C03800
0300C01C00
0600C01C00
0600C00E00
0C00C00700
0C00C00780
1800C003C0
1000C001C0
2000C00080
4000C00000
8000C00000
0000C00000
0000C00000
ENDCHAR
STARTCHAR 2F73
ENCODING 12147
SWIDTH 760 0
DWIDTH 38 0
BBX 34 46 2 -3
BITMAP
0000C00000
0000C00000
0000C00000
0000C00000
0000C00000
1FFFFFFF00
1FFFFFFF00
1800000300
1800000300
1800000300
1800080300
1800080300
1804080300
1806080200
0006080000
0004040000
0004040000
000C040000
000C060000
000C060000
000C060000
000C030000
001C030000
001C030000
0018038000
0018018000
0038018000
003001C000
003000C000
007000C000
006000E000
0060006000
00E0007000
00C0007000
01C0003800
0180003800
0300001800
0300001C00
0600000C00
0C00000E00
0C00000700
1800000700
3000000380
2000000380
40000001C0
8000000180
ENDCHAR
STARTCHAR 2F74
ENCODING 12148
SWIDTH 740 0
DWIDTH 37 0
BBX 33 45 2 -2
BITMAP
0001800000
0001800000
0001800000
0001800000
0001800000
0001800000
0001800000
7FFFFFFE00
3FFFFFFC00
0000000000
0000000000
0000000000
0000000000
0000018000
0200018000
0200018000
0100038000
0100030000
0100030000
0080030000
0080030000
00C0070000
00C0060000
0040060000
0060060000
0060060000
00600C0000
00600C0000
00300C0000
0030080000
0030080000
0030180000
0038100000
0038100000
0018100000
0018200000
0010200000
0000200000
0000400000
0000400000
0000000000
0000000000
0000000000
FFFFFFFF80
7FFFFFFF00
ENDCHAR
STARTCHAR 2F75
ENCODING 12149
SWIDTH 760 0
DWIDTH 38 0
BBX 34 46 2 -5
BITMAP
0180060000
0180060000
03800E0000
03800C0000
03000C0000
03001C0000
0700180000
0600180000
0600180000
07FFBFFFC0
0FFF3FFF80
0CC0306000
08C0606000
18C0606000
10C0406000
10C0C06000
30C0806000
20C0806000
40C1006000
40C1006000
80C2006000
80C2006000
00C0006000
00C0006000
00C0006000
00C0006000
00C0006000
00C0006000
00C0006000
00C0006000
00C0006000
00C0006000
00C0006000
00C0006000
00C0006000
00C0006000
00C0006000
00C0006000
00C0006000
00C0006000
00C0006000
00C0006000
00C0006000
00C0006000
00C0006000
00C0006000
ENDCHAR
STARTCHAR 2F76
ENCODING 12150
SWIDTH 720 0
DWIDTH 36 0
BBX 34 47 1 -4
BITMAP
0000800000
0000C00000
0000C00000
0000C01000
0400C03800
0200C03000
0300C03000
0180C07000
00C0C06000
00C0C0E000
0060C0C000
0070C0C000
0030C18000
0038C10000
0038C30000
0018C20000
0000C40000
0000C00000
3FFFFFFF00
1FFFFFFF00
001CC40000
0018C40000
0018C60000
0018C20000
0038C30000
0038C30000
0030C10000
0030C18000
0070C18000
0060C0C000
0060C0C000
00E0C0E000
00C0C06000
01C0C07000
0180C03000
0380C03800
0300C01C00
0600C01C00
0600C00E00
0C00C00700
1800C00780
1000C003C0
2000C001C0
4000C00080
8000C00000
0000C00000
0000800000
ENDCHAR
STARTCHAR 2F77
ENCODING 12151
SWIDTH 720 0
DWIDTH 36 0
BBX 30 47 3 -5
BITMAP
00030000
00070000
000E0000
000E0000
001C0000
00180000
00380200
00700600
00600E00
00C01C00
01801800
01003800
0201F000
07FFE000
07F0C000
0001C000
00038000
00070000
000E0200
001C0200
00380100
00700180
00E001C0
01C000C0
030001E0
0600FFE0
0FFFF870
0FF98070
00018030
00018030
00018000
00C18000
00C18200
01C18100
01818080
018180C0
03018060
03018070
06018030
06018038
0C018018
1801801C
1001800C
20018000
40018000
80018000
00010000
ENDCHAR
STARTCHAR 2F78
ENCODING 12152
SWIDTH 720 0
DWIDTH 36 0
BBX 32 45 2 -3
BITMAP
00600000
00600000
00E00000
00C00000
00C00000
01C00000
01800000
01FFFFF0
03FFFFE0
03018000
03018000
06018000
06018000
0C018000
08018000
10018000
10018000
20018000
40018000
00018000
00018000
FFFFFFFF
7FFFFFFE
00018000
00018000
00018000
00018000
00018000
04018020
06018030
06018030
06018030
06018030
06018030
06018030
06018030
06018030
06018030
06018030
06018030
06018030
06018030
06018030
07FFFFF0
07FFFFF0
ENDCHAR
STARTCHAR 2F79
ENCODING 12153
SWIDTH 740 0
DWIDTH 37 0
BBX 28 44 5 -4
BITMAP
FFFFFFF0
FFFFFFF0
C0000030
C0000030
C0000030
C0000030
C0180230
C0180730
C8180630
C8390630
C4390630
C2308630
C230CE30
C1304C30
C1304C30
C1F02C30
C0E02C30
C0E03C30
C0E01830
C0E01830
C0E01830
C0E01830
C0F03C30
C1B03C30
C1B82C30
C1186E30
C3186630
C3184630
C21C4630
C60C8730
C40C8330
C40D0330
C8010330
C80203B0
D0020130
D0000030
C0000030
C0000030
C0000030
C0000030
C0000030
C0000030
C0000030
80000020
ENDCHAR
STARTCHAR 2F7A
ENCODING 12154
SWIDTH 760 0
DWIDTH 38 0
BBX 32 46 3 -4
BITMAP
00800600
00400E00
00600C00
00301C00
00301800
00383000
00182000
00004000
3FFFFFFC
1FFFFFF8
00018000
00018000
00018000
00018000
00018000
00018000
00018000
00018000
0FFFFFE0
07FFFFC0
00018000
00018000
00018000
00018000
00018000
00018000
00018000
00018000
FFFFFFFF
7FFFFFFE
00018000
00018000
00018000
00018000
00018000
00018000
00018000
00018000
00018000
00018000
00018000
00018000
00018000
00018000
00018000
00018000
ENDCHAR
STARTCHAR 2F7B
ENCODING 12155
SWIDTH 740 0
DWIDTH 37 0
BBX 30 43 3 -4
BITMAP
FFFCFFFC
7FFC7FFC
000C000C
000C000C
000C000C
000C000C
200C100C
100C080C
180C080C
080C040C
0C0C060C
060C060C
060C030C
070C030C
030C038C
030C010C
002C002C
002C004C
004C004C
004C004C
008C004C
008C008C
018C008C
010C018C
030C030C
060C030C
060C060C
0C0C060C
0C0C0C0C
180C1C0C
380C180C
300C380C
600C700C
E00CF00C
C00CE00C
000C000C
000C000C
000C000C
000C000C
000C000C
000C000C
000C000C
00080008
ENDCHAR
STARTCHAR 2F7C
ENCODING 12156
SWIDTH 760 0
DWIDTH 38 0
BBX 34 46 2 -3
BITMAP
0001000000
0001800000
0001800000
0001800000
0001800000
0001800E00
07FFFF1C00
03FFFE1C00
0001803800
0001807000
000180F000
000180E000
000181C000
0001838000
0001870000
0001860000
7FFFFFFFC0
7FFFFFFF80
0000380000
0000700000
0000E00000
0001C00000
0003800000
0027000000
003E000000
003C007000
003000F000
007001E000
00F003C000
01B0078000
06300E0000
0C303C0000
1030700000
2031C00000
C037000000
003C000000
0030000000
0030000000
0030000000
0030000000
0030000400
0030000400
0030000400
0038000E00
001FFFFE00
000FFFFE00
ENDCHAR
STARTCHAR 2F7D
ENCODING 12157
SWIDTH 740 0
DWIDTH 37 0
BBX 33 43 2 -5
BITMAP
FFFFFFFF80
7FFFFFFF00
0003800000
0003000000
0003000000
0003000000
0006000000
0006000000
0006000000
0004000000
0FFFFFF800
0FFFFFF800
0C0C181800
0C0C181800
0C0C181800
0C0C181800
0C0C181800
0C0C181800
0C0C181800
0C0C181800
0C0C181800
0C0C181800
0C0C181800
0C0C181800
0C0C181800
0C0C181800
0C0C181800
0C0C181800
0C0C181800
0C0C181800
0C0C181800
0C0C181800
0C0C181800
0C0C181800
0C0C181800
0C0C181800
0C0C181800
0C0C181800
0C0C181800
0C0C181800
0C0C181800
0C08101800
0C00001800
ENDCHAR
STARTCHAR 2F7E
ENCODING 12158
SWIDTH 720 0
DWIDTH 36 0
BBX 34 47 1 -5
BITMAP
0000800000
0000C00000
0000C00000
0000C00000
0000C00000
0000C00000
1FFFFFFE00
0FFFFFFC00
0000C00000
0000C00000
0000C00000
0000C00000
0000C00000
0000C00000
07FFFFF800
03FFFFF000
0000C00000
0000C00000
0000C00000
0000C00000
0000C00000
0000C00000
7FFFFFFF00
3FFFFFFE00
0018C40000
0038C60000
0030C60000
0030C30000
0070C30000
0070C18000
0060C18000
00E0C1C000
00C0C0C000
00C0C0E000
0180C07000
0380C03800
0300C03800
0600C01C00
0400C00E00
0C00C00F00
1800C007C0
3000C003C0
4000C00180
8000C00000
0000C00000
0000C00000
0000800000
ENDCHAR
STARTCHAR 2F7F
ENCODING 12159
SWIDTH 740 0
DWIDTH 37 0
BBX 33 44 2 -5
BITMAP
3FFFFFFE00
1FFFFFFC00
00C0018000
00C0018000
00C0018000
00C0018000
00C0018000
00C0018000
00C0018000
00C0018000
00FFFF8000
00FFFF8000
00C0018000
00C0018000
00C0018000
00C0018000
00C0018000
00C0018000
00C0018000
00C0018000
00FFFF8000
00FFFF8000
00C0018000
00C0018000
00C0018000
00C0018000
00C0018000
00C0018000
00C0018080
00C001FF00
00C1FFFF00
01FFFFC000
FFFFC18000
7F80018000
0000018000
0000018000
0000018000
0000018000
0000018000
0000018000
0000018000
0000018000
0000018000
0000010000
ENDCHAR
STARTCHAR 2F80
ENCODING 12160
SWIDTH 720 0
DWIDTH 36 0
BBX 32 47 2 -4
BITMAP
00010000
00018000
00018000
00018000
00018000
00018000
03FFFFE0
03FFFFE0
00018060
00018060
00018060
00018060
00018060
FFFFFFFF
7FFFFFFF
00018060
00018060
00018060
00018060
00018060
07FFFFE0
03FFFFE0
00018000
00018000
00018000
00018000
00018000
0FFFFFF0
07FFFFE0
00018000
00018000
00018000
00018000
00018000
00018000
7FFFFFFF
3FFFFFFE
00018000
00018000
00018000
00018000
00018000
00018000
00018000
00018000
00018000
00010000
ENDCHAR
STARTCHAR 2F81
ENCODING 12161
SWIDTH 740 0
DWIDTH 37 0
BBX 27 47 5 -5
BITMAP
00040000
00060000
00060000
00060000
00060000
00060000
00060000
FFFFFFE0
FFFFFFE0
C00E0060
C00C0060
C00C0060
C00E0060
C01F0060
C0198060
C018C060
C0386060
C0307060
C0603860
C0C01C60
C1860C60
C3060E60
C6060660
D80E0060
C00E0060
C00C0060
C00C0060
C01E0060
C0198060
C038C060
C030E060
C0707060
C0603060
C0C01860
C1801C60
C3000E60
C4000660
C8000660
C0000060
C0000060
C0000060
C0000060
C0000060
C0000060
C0000060
C0000060
80000040
ENDCHAR
STARTCHAR 2F82
ENCODING 12162
SWIDTH 740 0
DWIDTH 37 0
BBX 29 42 6 -2
BITMAP
FFFFFFE0
FFFFFFC0
C00C0000
C00C0000
C00C0000
C00C0000
C00C0000
C00C0000
C00C0000
C00C0000
C00C0000
C00C0000
FFFFFF00
FFFFFF00
C0000300
C0000300
C0000300
C0000300
C0000300
C0000300
C0000300
C0000300
C0000300
C0000300
C0000300
FFFFFF00
FFFFFF00
C00C0000
C00C0000
C00C0000
C00C0000
C00C0000
C00C0000
C00C0000
C00C0000
C00C0000
C00C0000
C00C0000
C00C0000
C00C0000
FFFFFFF8
FFFFFFF0
ENDCHAR
STARTCHAR 2F83
ENCODING 12163
SWIDTH 740 0
DWIDTH 37 0
BBX 23 45 7 -2
BITMAP
003000
007000
006000
006000
00C000
00C000
008000
FFFFFE
FFFFFE
C00006
C00006
C00006
C00006
C00006
C00006
C00006
C00006
C00006
FFFFFE
FFFFFE
C00006
C00006
C00006
C00006
C00006
C00006
C00006
C00006
C00006
C00006
FFFFFE
FFFFFE
C00006
C00006
C00006
C00006
C00006
C00006
C00006
C00006
C00006
C00006
C00006
FFFFFE
FFFFFE
ENDCHAR
STARTCHAR 2F84
ENCODING 12164
SWIDTH 740 0
DWIDTH 37 0
BBX 32 41 2 -2
BITMAP
3FFFFFFC
1FFFFFF8
00060000
000E0000
000C0000
001C0000
00180800
00380400
00300600
00700200
00600300
00C00180
018001C0
010000C0
02000FE0
0407F860
0FFFC070
0FF80030
00000030
00010000
00018000
00018000
00018000
00018000
00018000
00018000
0FFFFFF0
07FFFFE0
00018000
00018000
00018000
00018000
00018000
00018000
00018000
00018000
00018000
00018000
00018000
FFFFFFFF
7FFFFFFE
ENDCHAR
STARTCHAR 2F85
ENCODING 12165
SWIDTH 720 0
DWIDTH 36 0
BBX 26 44 5 -2
BITMAP
00380000
00780000
00F00000
03C00000
0F01FFC0
7C01FFC0
C00000C0
C00000C0
C00000C0
C00000C0
C00000C0
C00000C0
C00000C0
C00000C0
C00000C0
C00000C0
C00000C0
C00000C0
C00000C0
C00000C0
C00000C0
FFF1FFC0
FFE1FFC0
C00000C0
C00000C0
C00000C0
C00000C0
C00000C0
C00000C0
C00000C0
C00000C0
C00000C0
C00000C0
C00000C0
C00000C0
C00000C0
C00000C0
C00000C0
C00000C0
C00000C0
C00000C0
C00000C0
FFFFFFC0
FFFFFFC0
ENDCHAR
STARTCHAR 2F86
ENCODING 12166
SWIDTH 720 0
DWIDTH 36 0
BBX 32 46 2 -4
BITMAP
00000030
000001F0
00000FE0
0000FF00
001FF800
1FFF8000
00018000
00018000
00018000
00018000
00018000
00018000
00018000
00018000
FFFFFFFF
7FFFFFFF
00018000
00018000
00018000
00018000
00018000
00018000
00018000
00018000
00018000
03FFFFE0
03FFFFE0
03000060
03000060
03000060
03000060
03000060
03000060
03000060
03000060
03000060
03000060
03000060
03000060
03000060
03000060
03000060
03000060
03000060
03FFFFE0
03FFFFE0
ENDCHAR
STARTCHAR 2F87
ENCODING 12167
SWIDTH 740 0
DWIDTH 37 0
BBX 33 47 2 -4
BITMAP
0300008000
030000C000
030000C000
070000C000
070000C000
060000C000
060000C000
060000C000
060000C000
07FCFFFF80
0FFC7FFF00
0C0C00C000
0C0C00C000
0C0C00C000
0C0C60C000
180C60C000
181C60C000
181860C000
1C1860C000
361860C000
361860C000
231860C000
63B860C000
41B060C000
413060C000
803060C000
80707FFF80
00607FFF00
006000C000
00E000C000
00C000C000
00C000C000
01C000C000
018000C000
038000C000
030000C000
070000C000
060000C000
060000C000
0C0000C000
080000C000
180000C000
300000C000
200000C000
400000C000
800000C000
8000008000
ENDCHAR
STARTCHAR 2F88
ENCODING 12168
SWIDTH 720 0
DWIDTH 36 0
BBX 34 47 1 -4
BITMAP
0000C00000
0000C00000
0001C00000
0001800000
0001000000
0003000000
00FFFFC000
00FFFFC000
00C000C000
00C000C000
00C200C000
00C100C000
00C180C000
00C080C000
00C0C0C000
00C060C000
00C060C000
00C060C000
00C020C000
00C000C000
00C000C000
00C000C000
FFFFFFFFC0
7FFFFFFF80
018000C000
018000C000
018400C000
018200C000
018300C000
018180C000
0180C0C000
0180C0C000
018060C000
030060C000
030030C000
030030C000
030000C000
030000C000
060000C000
060000C000
060000C000
040000C000
0C0000C000
080000C000
100000C000
100000C000
2000000000
ENDCHAR
STARTCHAR 2F89
ENCODING 12169
SWIDTH 740 0
DWIDTH 37 0
BBX 28 44 7 -4
BITMAP
FFFFF800
FFFFF800
C0001800
C0001800
C0001800
C0001800
C0001800
C0001800
C0001800
FFFFF800
FFFFF800
C0001800
C0001800
C0001800
C0001800
C0001800
C0001800
C0001800
FFFFF800
FFFFF800
C0400300
C0600380
C0600700
C0300E00
C0300C00
C0181800
C0183000
C00C6000
C00EC000
C0078000
C0070000
C0038000
C0018000
C001C000
C000E000
C0007000
C0003800
C0001C00
C0000E00
C0000780
C00003C0
C00001F0
C00000F0
40000020
ENDCHAR
STARTCHAR 2F8A
ENCODING 12170
SWIDTH 740 0
DWIDTH 37 0
BBX 32 46 2 -4
BITMAP
00300000
00700000
00700000
00600000
00E00000
00FFFE00
01FFFE00
01800E00
03800C00
03001800
06001800
06003000
0C002000
18006000
17FFFFE0
27FFFFE0
46018060
86018060
06018060
06018060
06018060
06018060
06018060
06018060
06018060
06018060
07FFFFE0
07FFFFE0
06000000
06000000
06000000
06000000
06000000
06000000
06000000
06000000
06000000
06000000
06000000
06000000
06000004
06000004
06000004
0700000F
03FFFFFF
01FFFFFE
ENDCHAR
STARTCHAR 2F8C
ENCODING 12172
SWIDTH 740 0
DWIDTH 37 0
BBX 33 47 2 -4
BITMAP
0001000000
0001800000
0001800000
0001800000
0001800000
0001800000
0001FFF800
0001FFF000
0001800000
0001800000
0001800000
0001800000
0001800000
0FFFFFFE00
0FFFFFFE00
0C00000600
0C00000600
0C01000600
0C01800600
0C01800600
0C01800600
0C01800400
0C01800000
0C01800000
0C01800200
0C01807C00
0C018FFC00
0C01FFE000
0C3FFC0000
0DFF800000
0CF1800000
1801800000
1801800000
1801800000
1801800000
1801800000
1801800000
1001800000
3001800000
3001800000
2001800200
2001800200
6001800200
4001C00380
4000FFFF80
80007FFF00
8000000000
ENDCHAR
STARTCHAR 2F8D
ENCODING 12173
SWIDTH 720 0
DWIDTH 36 0
BBX 32 46 2 -4
BITMAP
00010000
00018000
00018000
00018000
00018000
00018000
00018000
00018000
00018000
0FFFFFE0
0FFFFFE0
0C018060
0C018060
0C018060
0C018060
0C018060
0C018060
0C018060
0C018060
0C018060
0C018060
0C018060
0C018060
0C018060
0FFFFFE0
0FFFFFE0
00018000
00018000
00018000
00018000
00018000
00018100
00018080
00018080
00018040
00018060
00018020
00018030
00018018
00018018
000181FC
0001BFCC
003FFC0E
FFFF8006
FFE00007
00000003
ENDCHAR
STARTCHAR 2F8E
ENCODING 12174
SWIDTH 740 0
DWIDTH 37 0
BBX 33 44 2 -1
BITMAP
0003800000
0003800000
0003000000
0007000000
0006000000
0004000000
000C000000
07FFFFF000
07FFFFF000
060C183000
060C183000
060C183000
060C183000
060C183000
060C183000
060C183000
060C183000
060C183000
060C183000
060C183000
060C183000
060C183000
060C183000
060C183000
060C183000
060C183000
060C183000
060C183000
060C183000
060C183000
060C183000
060C183000
060C183000
060C183000
060C183000
060C183000
060C183000
060C183000
060C183000
060C183000
060C183000
060C183000
FFFFFFFF80
7FFFFFFF00
ENDCHAR
STARTCHAR 2F8F
ENCODING 12175
SWIDTH 740 0
DWIDTH 37 0
BBX 35 46 1 -5
BITMAP
0060000000
00E0000000
00E0000000
01C0FFFF00
01807FFE00
0380000000
0300000000
0600000000
0600000000
0C38000000
1838000000
3070000000
4070000000
80E0000000
00C0000000
0180000000
0387FFFFE0
0303FFFFC0
0700006000
0F00006000
1B00006000
3300006000
6300006000
8300006000
0300006000
0300006000
0300006000
0300006000
0300006000
0300006000
0300006000
0300006000
0300006000
0300006000
0300006000
0300006000
0300006000
0300006000
0300006000
0300006000
0300006000
0300006000
0300006000
0300006000
0300006000
0300006000
ENDCHAR
STARTCHAR 2F90
ENCODING 12176
SWIDTH 740 0
DWIDTH 37 0
BBX 34 47 1 -4
BITMAP
0000800000
0000C00000
0000C00000
0000C00000
0000C00000
0000C00000
0000C00000
7FFFFFFF80
3FFFFFFF00
0003000000
0003000000
0007000000
0006000000
0006400000
000E400000
000C400000
001C200000
0018200600
0018200E00
0038300E00
0038101C00
0078101800
0078181800
00D8083000
00D80C6000
01980C4000
0198068000
0318060000
0618030000
0618030000
0C18038000
0818018000
101801C000
301800E000
201800E000
4018007000
8018003000
0018003800
0018001C00
0018001C00
0018000E00
0018000700
0018000780
0018000380
00180001C0
0018000180
0008000000
ENDCHAR
STARTCHAR 2F93
ENCODING 12179
SWIDTH 740 0
DWIDTH 37 0
BBX 29 47 2 -5
BITMAP
00200000
00700000
00700000
00600000
00FFFF00
00FFFF00
00C00700
01C00E00
01800C00
03800C00
03001800
02001000
07FFFFF8
07FFFFF8
0B00C018
1B00C018
1300C018
2300C018
0300C018
0300C018
0300C018
03FFFFF8
03FFFFF8
0300C018
0300C018
0300C018
0300C018
0300C018
0300C018
0300C018
03FFFFF8
03FFFFF8
0600C018
0600C018
0600C018
0600C018
0600C018
0C00C018
0C00C018
0C00C018
0800C018
1800C018
1000C018
3000C018
2000C018
4000C018
80008010
ENDCHAR
STARTCHAR 2F94
ENCODING 12180
SWIDTH 720 0
DWIDTH 36 0
BBX 32 46 2 -4
BITMAP
00010000
00018000
00018000
00018000
00018000
00018000
FFFFFFFF
7FFFFFFE
00000000
00000000
00000000
00000000
00000000
00000000
03FFFFE0
01FFFFC0
00000000
00000000
00000000
00000000
00000000
00000000
03FFFFE0
01FFFFC0
00000000
00000000
00000000
00000000
00000000
00000000
03FFFFC0
03FFFFC0
030000C0
030000C0
030000C0
030000C0
030000C0
030000C0
030000C0
030000C0
030000C0
030000C0
030000C0
030000C0
03FFFFC0
03FFFFC0
ENDCHAR
STARTCHAR 2F95
ENCODING 12181
SWIDTH 740 0
DWIDTH 37 0
BBX 33 45 2 -3
BITMAP
0018100000
0018080000
0038040000
0030020000
0070030000
0060018000
00E000C000
00C0C0E000
0181C07000
0301C03800
0303C03800
0603401C00
0C07600C00
1806300E00
200E180600
400C180000
00180C0000
0038060000
0030070000
0060038000
00C001C000
018000E000
0300007000
0600003800
0C00001E00
1800000F00
30FFFF8780
40FFFF8300
80C0018000
00C0018000
00C0018000
00C0018000
00C0018000
00C0018000
00C0018000
00C0018000
00C0018000
00C0018000
00C0018000
00C0018000
00C0018000
00C0018000
00C0018000
00FFFF8000
00FFFF8000
ENDCHAR
STARTCHAR 2F96
ENCODING 12182
SWIDTH 740 0
DWIDTH 37 0
BBX 33 41 2 -3
BITMAP
3FFFFFFE00
1FFFFFFC00
0000000000
0000000000
0000000000
0000000000
0000000000
0000000000
01FFFFC000
01FFFFC000
018000C000
018000C000
018000C000
018000C000
018000C000
018000C000
018000C000
018000C000
018000C000
018000C000
018000C000
018000C000
01FFFFC000
01FFFFC000
0000000000
0000000000
0000000000
0000018000
0080018000
0040038000
0060030000
0030030000
0030060000
0038060000
00180C0000
001C0C0000
000C180000
0000100000
0000200000
FFFFFFFF80
7FFFFFFF80
ENDCHAR
STARTCHAR 2F97
ENCODING 12183
SWIDTH 740 0
DWIDTH 37 0
BBX 33 43 2 -4
BITMAP
7FFFFFFF00
3FFFFFFE00
0003800000
0007000000
000E000000
000C000000
001C000C00
003C001C00
0074003800
00E6007000
01C300E000
038301C000
0601838000
0C03860000
18038C0000
2007D80000
400EE40000
001CC40000
0038640000
0070620000
0060620000
00C0630000
0380610000
0700F18000
0C01F18000
1803B0C000
200330C000
C007306000
000E307000
001C303000
0038303800
0060301C00
00C0300C00
0180300E00
0300300700
0600700380
0800700100
3000600000
4000600000
0008E00000
0007C00000
0003800000
0007000000
ENDCHAR
STARTCHAR 2F98
ENCODING 12184
SWIDTH 720 0
DWIDTH 36 0
BBX 26 47 5 -5
BITMAP
00006000
0000E000
0003C000
00078000
000E0000
001C0000
00360000
00E300C0
018181C0
0301C780
0D80CF00
1080DE00
60C03C00
00E0F800
0061E000
0067C000
000F8000
003CC000
00704000
01C06000
06006000
18006000
6000F000
0003F000
00073000
001E1000
00781000
00E01800
03801800
0E003800
30007800
C001F800
0003D800
000F1800
003C1800
00701800
01C01800
07001800
38001800
C0003800
00003000
00003000
00003000
00047000
0003E000
0003E000
0003C000
ENDCHAR
STARTCHAR 2F9A
ENCODING 12186
SWIDTH 760 0
DWIDTH 38 0
BBX 32 47 3 -5
BITMAP
00010000
00018000
00018000
00018000
00018000
00018000
1FFFFFF0
0FFFFFE0
00018000
00018000
00018000
00018000
00018000
00018000
00018000
00018000
FFFFFFFF
7FFFFFFE
00181800
00181800
00181800
00181800
00181800
07181880
07181840
06181840
0E381820
0E301830
0C301818
1C301818
1830181C
1830180C
3060180E
30601806
60601806
40601800
80C01800
00C01800
01801800
01801800
03001800
02001800
06001800
04001800
08001800
10001800
00001000
ENDCHAR
STARTCHAR 2F9B
ENCODING 12187
SWIDTH 760 0
DWIDTH 38 0
BBX 32 46 3 -4
BITMAP
00010000
00018000
00018000
00018000
00018000
00018000
0FFFFFF0
07FFFFE0
00018000
00018000
00018000
00018000
00018000
00018000
00018000
00018000
FFFFFFFF
7FFFFFFE
00000000
00010000
00018000
00018000
00018000
03018000
03018000
03018000
07018000
0701FFF8
0601FFF0
06018000
06018000
06018000
0C018000
0C018000
0E018000
0A018000
1B018000
19818000
11C18000
30E18000
20798000
203F8000
400FFFFF
4007FFFE
80000000
80000000
ENDCHAR
STARTCHAR 2F9C
ENCODING 12188
SWIDTH 740 0
DWIDTH 37 0
BBX 32 44 2 -4
BITMAP
03FFFFC0
03FFFFC0
030000C0
030000C0
030000C0
030000C0
030000C0
030000C0
030000C0
030000C0
030000C0
030000C0
030000C0
030000C0
03FFFFC0
03FFFFC0
00018000
00018000
00018000
00018000
00018000
01818000
01818000
03818000
03818000
0301FFF8
0301FFF0
03018000
07018000
06018000
06018000
06018000
0E018000
0D018000
0D818000
19818000
18C18000
10618000
30398000
201F8000
200FFFFF
4003FFFE
80000000
80000000
ENDCHAR
STARTCHAR 2F9D
ENCODING 12189
SWIDTH 740 0
DWIDTH 37 0
BBX 33 46 1 -4
BITMAP
0001800000
0003800000
0003000000
0002000000
0006000000
01FFFFC000
01FFFFC000
018000C000
018000C000
018000C000
018000C000
01FFFFC000
01FFFFC000
018000C180
018000C380
018000C380
018000C300
018000C700
01FFFFC600
01FFFFCE00
018000CC00
018000DC00
018000D800
018000F800
018000F000
018000F000
7FFFFFE000
3FFFFFC000
000003C000
000003C000
000007C000
00000EC000
00001CC000
000038C000
0000E0C000
0001C0C000
000380C000
000700C000
001C00C000
003000C000
00E000C000
038000C000
060000C000
180000C000
E00000C000
000000C000
ENDCHAR
STARTCHAR 2F9E
ENCODING 12190
SWIDTH 740 0
DWIDTH 37 0
BBX 33 47 2 -5
BITMAP
0001000000
0001800000
0001800000
0001800000
0001800000
0001800000
7FFFFFFE00
3FFFFFFC00
0001800000
0001800000
0001800000
0001800000
0001800000
03FFFFE000
03FFFFE000
0301806000
0301806000
0301806000
0301806000
0301806000
03FFFFE000
03FFFFE000
0301806000
0301806000
0301806000
0301806000
0301806000
03FFFFE000
03FFFFE000
0001800000
0001800000
0001800000
0001800000
FFFFFFFF80
FFFFFFFF00
0001800000
0001800000
0001800000
0001800000
0001800000
0001800000
0001800000
0001800000
0001800000
0001800000
0001800000
0001000000
ENDCHAR
STARTCHAR 2F9F
ENCODING 12191
SWIDTH 740 0
DWIDTH 37 0
BBX 33 47 2 -5
BITMAP
0001000000
0001800000
0001800000
0001800000
0001800000
0001800000
1FFFFFF800
0FFFFFF000
0000000000
0000000000
0000030000
0040070000
0060070000
0030060000
00300E0000
00180C0000
001C180000
001C180000
0008100000
0000200000
0000000000
FFFFFFFF80
7FFFFFFF00
0001800000
0001800000
0001800000
0001800000
0001800000
0001800000
0001800000
0001800000
3FFFFFFC00
1FFFFFF800
0001800000
0001800000
0001800000
0001800000
0001800000
0001800000
0001800000
0001800000
0001800000
0001800000
0001800000
0001800000
0001800000
0001800000
ENDCHAR
STARTCHAR 2FA0
ENCODING 12192
SWIDTH 740 0
DWIDTH 37 0
BBX 34 44 1 -5
BITMAP
07FFFFFE00
07FFFFFE00
0600000000
0600000000
0600000000
0600000000
0600000000
0600000000
061FFFF800
060FFFF000
0600000000
0600000000
0600000000
0600000000
0600000000
0600000000
0600000000
06FFFFFE00
067FFFFE00
0606000000
0606200000
0606200600
0606100E00
0606100C00
0E06181C00
0E06083800
0C060C3000
0C06066000
0C0606C000
0C06070000
0C06038000
1806038000
180601C000
180600E000
180600F000
1006007000
3006007800
2006003C00
2006001E00
6006000F00
4006000780
40060003C0
8006000100
0002000000
ENDCHAR
STARTCHAR 2FA2
ENCODING 12194
SWIDTH 740 0
DWIDTH 37 0
BBX 29 44 7 -4
BITMAP
3FFFFC00
3FFFFC00
30000C00
30000C00
30000C00
30000C00
30000C00
30000C00
30000C00
30000C00
3FFFFC00
3FFFFC00
00000000
00000000
00000000
00000000
FFFFFF00
FFFFFF00
C0180300
C0180300
C0180300
C0180300
C0180300
C0180300
C0180300
C0180300
C0180300
FFFFFF00
FFFFFF00
C0000000
C0000000
C0000000
C0000000
C0000000
C0000000
C0000000
C0000000
C0000000
C0000020
C0000020
C0000030
E0000038
7FFFFFF8
3FFFFFF0
ENDCHAR
STARTCHAR 2FA3
ENCODING 12195
SWIDTH 740 0
DWIDTH 37 0
BBX 33 43 2 -4
BITMAP
FFFFFFFF80
7FFFFFFF00
000C180000
000C180000
000C180000
000C180000
000C180000
000C180000
000C180000
000C180000
0FFFFFF800
0FFFFFF800
0C0C181800
0C0C181800
0C0C181800
0C18181800
0C18181800
0C18181800
0C18181800
0C10181800
0C30181800
0C30181800
0C201FD800
0C601F9800
0C40001800
0C80001800
0C00001800
0C00001800
0C00001800
0FFFFFF800
0FFFFFF800
0C00001800
0C00001800
0C00001800
0C00001800
0C00001800
0C00001800
0C00001800
0C00001800
0C00001800
0C00001800
0FFFFFF800
0FFFFFF800
ENDCHAR
STARTCHAR 2FA5
ENCODING 12197
SWIDTH 720 0
DWIDTH 36 0
BBX 32 43 2 -3
BITMAP
03FFFFE0
03FFFFE0
03018060
03018060
03018060
03018060
03018060
03018060
03018060
03018060
03FFFFE0
03FFFFE0
03018060
03018060
03018060
03018060
03018060
03018060
03018060
03018060
03FFFFE0
03FFFFE0
00018000
00018000
00018000
00018000
00018000
00018000
00018000
0FFFFFF8
07FFFFF0
00018000
00018000
00018000
00018000
00018000
00018000
00018000
00018000
00018000
00018000
FFFFFFFF
7FFFFFFE
ENDCHAR
STARTCHAR 2FA6
ENCODING 12198
SWIDTH 740 0
DWIDTH 37 0
BBX 34 45 2 -2
BITMAP
0000C00000
0001C00000
0001C00000
0003C00000
0003200000
0007300000
000E180000
000E180000
001C0C0000
00180E0000
0030070000
0070038000
00E001C000
00C001E000
018000F000
0300007800
067FFF3C00
0C3FFE1F00
1800C00780
3000C003C0
4000C00100
8000C00000
0000C00000
0000C00000
0000C00000
0000C00000
07FFFFF800
03FFFFF000
0000C00000
0000C00000
0000C00000
0000C0C000
0100C0E000
0080C1C000
00C0C1C000
0040C18000
0060C38000
0060C30000
0070C30000
0030C60000
0020C40000
0000C80000
0000C80000
7FFFFFFF00
3FFFFFFE00
ENDCHAR
STARTCHAR 2FA9
ENCODING 12201
SWIDTH 760 0
DWIDTH 38 0
BBX 34 47 2 -4
BITMAP
0001000000
0003000000
0003000000
0006000000
0004000000
03FFFFC000
03FFFFC000
030000C000
030000C000
030000C000
030000C000
030000C000
03FFFFC000
03FFFFC000
0300000000
0300000000
0300000000
0300000000
03FFFFE000
03FFFFE000
0300006000
0300006000
0300006000
0300006000
0300006000
03FFFFE000
03FFFFE000
0000000000
0000800000
0000C00000
0000C00000
0000C00000
FFFFFFFFC0
7FFFFFFF80
0000C00000
0000C00000
0000C00000
0000C00000
0000C00000
0000C00000
0000C00000
0000C00000
0000C00000
0000C00000
0000C00000
0000C00000
0000800000
ENDCHAR
STARTCHAR 2FAA
ENCODING 12202
SWIDTH 740 0
DWIDTH 37 0
BBX 32 47 2 -4
BITMAP
00010000
00018000
00018000
00018000
00018000
03FFFFE0
03FFFFE0
00018060
00018060
00018060
00018060
00018060
00018060
FFFFFFFF
7FFFFFFE
00018060
00018060
00018060
00018060
00018060
07FFFFE0
03FFFFE0
00018000
00018000
08018030
06018030
0301C070
0181E060
01C1A0C0
00E1B180
00619300
00619E00
00098C00
00118E00
00318600
00618700
00418380
00C181C0
018180E0
030180F0
0E018078
1C01803E
3801801F
7001800F
60018002
00018000
00018000
ENDCHAR
STARTCHAR 2FAB
ENCODING 12203
SWIDTH 740 0
DWIDTH 37 0
BBX 34 46 1 -3
BITMAP
0018080000
00180C0000
00380C0000
00300C0000
00300C0000
00700C0000
00600C0000
00E00C0000
00C00C0000
01FFFFFF80
01FFFFFF00
03800C0000
03800C0000
07800C0000
0D800C0000
09800C0000
11800C0000
21800C0000
41800C0000
81FFFFFF00
01FFFFFE00
01800C0000
01800C0000
01800C0000
01800C0000
01800C0000
01800C0000
01800C0000
01800C0000
01800C0000
01FFFFFF00
01FFFFFE00
01800C0000
01800C0000
01800C0000
01800C0000
01800C0000
01800C0000
01800C0000
01800C0000
01800C0000
01FFFFFFC0
01FFFFFF80
0180000000
0180000000
0100000000
ENDCHAR
STARTCHAR 2FAC
ENCODING 12204
SWIDTH 740 0
DWIDTH 37 0
BBX 31 44 3 -5
BITMAP
FFFFFFFE
7FFFFFFC
00030000
00030000
00030000
00030000
00030000
00030000
00030000
1FFFFFF0
1FFFFFF0
18030030
18030030
18030030
18030030
18030030
19032030
18831030
18C31830
18630C30
18730E30
18330630
18330730
18030030
18030030
18030030
18030030
19030030
18832030
18C31030
18C31830
18630C30
18730C30
18730E30
18030630
18030030
18030030
18030030
18030030
18030030
18030030
18030030
18020030
10000030
ENDCHAR
STARTCHAR 2FAE
ENCODING 12206
SWIDTH 740 0
DWIDTH 37 0
BBX 33 47 2 -5
BITMAP
0010080000
00180C0000
00180C0000
00180C0000
00180C0000
00180C0000
00180C0000
00180C0000
00180C0000
7FF80FFF00
7FF80FFF00
00180C0000
00180C0000
00180C0000
00180C0000
00180C0000
00180C0000
00180C0000
00180C0000
00180C0000
3FF80FFE00
1FF80FFC00
00180C0000
00180C0000
00180C0000
00180C0000
00180C0000
00180C0000
00180C0000
00180C0000
00180C0000
FFF80FFF80
FFF80FFF80
00180C0000
00180C0000
00180C0000
00180C0000
00180C0000
00180C0000
00180C0000
00180C0000
00180C0000
00180C0000
00180C0000
00180C0000
00180C0000
0010080000
ENDCHAR
STARTCHAR 2FAF
ENCODING 12207
SWIDTH 740 0
DWIDTH 37 0
BBX 33 42 2 -2
BITMAP
FFFFFFFF80
7FFFFFFF00
0001800000
0003800000
0003000000
0003000000
0003000000
0002000000
0FFFFFF800
0FFFFFF800
0C180C1800
0C180C1800
0C180C1800
0C180C1800
0C180C1800
0C180C1800
0C180C1800
0C180C1800
0C1FFC1800
0C1FFC1800
0C180C1800
0C180C1800
0C180C1800
0C180C1800
0C180C1800
0C180C1800
0C180C1800
0C180C1800
0C1FFC1800
0C1FFC1800
0C180C1800
0C180C1800
0C180C1800
0C180C1800
0C180C1800
0C180C1800
0C180C1800
0C180C1800
0C180C1800
0C180C1800
0FFFFFF800
0FFFFFF800
ENDCHAR
STARTCHAR 2FB0
ENCODING 12208
SWIDTH 740 0
DWIDTH 37 0
BBX 33 47 2 -5
BITMAP
0020040000
0030060000
0030060000
0030060000
0030060000
3FFFFFFF00
1FFFFFFE00
0030060000
0030060000
0030060000
0030060000
0030060000
003FFE0000
003FFE0000
0000C00000
0000C00000
0000C00000
0000C00000
03FFFFF000
03FFFFF000
0300C03000
0300C03000
0300C03000
0300C03000
0300C03000
0300C03000
0300C03000
03FFFFF000
03FFFFF000
0000C00000
0000C00000
0000C00000
0000C00000
0000C00000
FFFFFFFF80
7FFFFFFF00
0000C00000
0000C00000
0000C00000
0000C00000
0000C00000
0000C00000
0000C00000
0000C00000
0000C00000
0000C00000
0000800000
ENDCHAR
STARTCHAR 2FB2
ENCODING 12210
SWIDTH 740 0
DWIDTH 37 0
BBX 33 46 2 -4
BITMAP
0008080000
000C0C0000
000C0C0000
000C0C0000
000C0C0000
000C0C0000
000C0C0000
000C0C0000
000C0C0000
3FFC0FFF00
1FFC0FFE00
000C0C0000
000C0C0000
000C0C0000
000C0C0000
000C0C0000
000C0C0000
000C0C0000
000C0C0000
000C0C0000
1FFC0FFC00
0FFC0FFC00
000C0C0000
000C0C0000
000C0C0000
000C0C0000
000C0C0000
000C0C0000
000C0C0000
000C0C0000
000C0C0000
3FFC0FFF00
1FFC0FFE00
000C0C0000
000C0C0000
000C0C0000
000C0C0000
000C0C0000
000C0C0000
000C0C0000
000C0C0000
000C0C0000
000C0C0000
000C0C0000
FFFFFFFF80
7FFFFFFF00
ENDCHAR
STARTCHAR 2FB3
ENCODING 12211
SWIDTH 740 0
DWIDTH 37 0
BBX 33 45 2 -2
BITMAP
0001000000
0001800000
0001800000
0001800000
0001800000
1FFFFFF800
0FFFFFF000
0000000000
0000030000
0040070000
0020070000
0030060000
00300E0000
00380C0000
0018180000
0010100000
0000200000
FFFFFFFF80
7FFFFFFF00
0000000000
0000000000
0000000000
0000000000
0000000000
01FFFFC000
01FFFFC000
018000C000
018000C000
018000C000
018000C000
018000C000
018000C000
018000C000
01FFFFC000
01FFFFC000
018000C000
018000C000
018000C000
018000C000
018000C000
018000C000
018000C000
018000C000
01FFFFC000
01FFFFC000
ENDCHAR
STARTCHAR 2FB5
ENCODING 12213
SWIDTH 720 0
DWIDTH 36 0
BBX 34 44 1 -4
BITMAP
07FFFFF000
07FFFFF000
0600003000
0600003000
0600023000
06000F3000
06007E3000
060FE03000
06FF803000
0601803000
0601803000
0601803000
0601803000
0601803000
063FFE3000
063FFE3000
0631863000
0631863000
0631863000
0631863000
0631863000
0631863000
0631863000
0631863000
063FFE3000
063FFE3000
0601803000
0601803000
0E01883000
0C01843000
0C01843000
0C01823000
0C01833000
0801833000
18018FB000
1803F9B000
19FFC1F000
11F801F800
300000D800
2000001880
2000001C80
4000000F80
40000007C0
8000000380
ENDCHAR
STARTCHAR 2FB6
ENCODING 12214
SWIDTH 720 0
DWIDTH 36 0
BBX 34 44 1 -3
BITMAP
3FFFFC0000
3FFFFC0C00
00000C0C00
00040C1800
00060C3000
00260C6000
00E60C8000
03E60E0000
0F860F8000
3F060E7000
0306063800
0306061E00
0306070700
0306038300
0306038000
030601C000
030600E080
030600F080
0306007C80
FFFFFC1FC0
7FFFFC0FC0
06060C0000
06060C0400
06060C0E00
06060C1C00
06060C3800
06060C6000
06060CC000
0E060C0000
0C060F8000
0C060EE000
0C06063800
0C06061E00
0806070F00
1806030700
1806038000
1006018000
100601C000
300600E040
2006007080
4006003880
4006001F80
8004000FC0
8000000380
ENDCHAR
STARTCHAR 2FB7
ENCODING 12215
SWIDTH 740 0
DWIDTH 37 0
BBX 32 46 2 -4
BITMAP
00018000
00038000
00038000
0007C000
000E6000
001C3000
00381800
00700E00
00E18700
01C183C0
038180F0
0601807C
0C01801F
11FFFF8F
21FFFF83
C1800180
01800180
01800180
01800180
01800180
01FFFF80
01FFFF80
01800180
01800180
01800180
01800180
01800180
01FFFF80
01FFFF80
0180000C
0180001C
01820038
01818030
01804060
018030C0
01801980
01800E00
01800700
01800380
018001C0
018000E0
01800070
01800038
01800038
0180001C
0180000C
ENDCHAR
STARTCHAR 2FB8
ENCODING 12216
SWIDTH 740 0
DWIDTH 37 0
BBX 33 45 2 -3
BITMAP
0040018000
0060038000
0030030000
0018030000
001C060000
000C040000
0000080000
FFFFFFFF80
7FFFFFFF00
0001C00000
0001800000
0001800000
0001000000
0001000000
03FFFFE000
03FFFFE000
0300006000
0300006000
0300006000
0300006000
0300006000
0300006000
0300006000
03FFFFE000
03FFFFE000
0300006000
0300006000
0300006000
0300006000
0300006000
0300006000
0300006000
03FFFFE000
03FFFFE000
0300006000
0300006000
0300006000
0300006000
0300006000
0300006000
0300006000
0300006000
0300006000
03FFFFE000
03FFFFE000
ENDCHAR
STARTCHAR 2FB9
ENCODING 12217
SWIDTH 740 0
DWIDTH 37 0
BBX 32 46 2 -4
BITMAP
00000040
000001E0
00000FE0
00007F00
001FF800
1FFF8000
00018000
00018000
00018000
00018000
7FFFFFFE
3FFFFFFC
00398800
00318C00
00718600
00618700
00E18380
01C181C0
018180E0
03018070
0601803C
0C01801F
18018007
20000003
C0000000
01FFFFC0
01FFFFC0
018000C0
018000C0
018000C0
018000C0
018000C0
018000C0
018000C0
01FFFFC0
01FFFFC0
018000C0
018000C0
018000C0
018000C0
018000C0
018000C0
018000C0
018000C0
01FFFFC0
01FFFFC0
ENDCHAR
STARTCHAR 2FBB
ENCODING 12219
SWIDTH 740 0
DWIDTH 37 0
BBX 29 45 4 -5
BITMAP
07FFFE00
07FFFE00
06000600
06000600
06000600
06000600
07FF0600
07FF0600
06030600
06030600
06030600
06030600
FFFFFFF8
FFFFFFF8
C0000018
C0000018
C0000018
C0000018
C0000018
07FFFE00
07FFFE00
06000600
06000600
06000600
06000600
06000600
07FFFE00
07FFFE00
06000600
06000600
06000600
06000600
06000600
07FFFE00
07FFFE00
06000600
06000600
06000600
06000600
06000600
06000600
06000600
06000600
06000600
06000600
ENDCHAR
STARTCHAR 2FBC
ENCODING 12220
SWIDTH 740 0
DWIDTH 37 0
BBX 32 46 2 -4
BITMAP
00018000
00018000
00018000
00018000
FFFFFFFF
7FFFFFFE
00000000
00000000
00000000
00000000
01FFFF00
01FFFF00
01800300
01800300
01800300
01800300
01800300
01FFFF00
01FFFF00
00000000
00000000
00000000
1FFFFFF8
1FFFFFF8
18000018
18000018
18000018
18000018
187FFC18
187FFC18
18600C18
18600C18
18600C18
18600C18
18600C18
18600C18
18600C18
18600C18
187FFC18
187FFC18
18000018
18000018
18000018
18000018
18000018
10000010
ENDCHAR
STARTCHAR 2FBD
ENCODING 12221
SWIDTH 720 0
DWIDTH 36 0
BBX 34 46 1 -5
BITMAP
0000000600
0000000E00
0FFF800C00
0FFF801C00
0C00003800
0C00003000
0C00006000
0C0000C000
0C00018000
0C00030000
0FFF060000
0FFE080000
0C00000000
0C00000000
0C00000180
0C00000380
0C00000700
0FFF800E00
0FFF000E00
0C00001C00
0C00003800
0C00006000
0C0001C000
0C00038000
0C00060000
FFFFF80000
7FFFC00000
0300000000
0300000000
0300000040
03100000C0
06100001C0
0608000380
0E0C000300
0C04000600
0C06000E00
1807001C00
1803003800
3007007000
207B80E000
7FC3818000
7C01C70000
00018E0000
0000180000
0000200000
0000C00000
ENDCHAR
STARTCHAR 2FBE
ENCODING 12222
SWIDTH 720 0
DWIDTH 36 0
BBX 28 47 4 -4
BITMAP
80000020
C0000030
C0000030
DFF9FFB0
CFF0FF30
C1801830
C1801830
C1801830
C1801830
C1801830
CFF9FF30
C7F0FE30
C1801830
C1801830
C1801830
C1801830
C1801830
C1801830
C1801830
DFFFFFB0
CFF9FF30
C0000030
C0000030
C0000030
C0000030
C0000030
C0000030
C0000030
C0000030
C0000030
C0000030
C0000030
C0000030
C0000030
C0000030
C0000030
C0000030
C0000030
C0000030
C0000030
C0000030
C0000030
C0000030
C0000030
C0000030
C0000030
80000020
ENDCHAR
STARTCHAR 2FBF
ENCODING 12223
SWIDTH 760 0
DWIDTH 38 0
BBX 28 45 5 -3
BITMAP
00103000
80083080
C80860C0
C60CE0C0
C10CC0C0
C0C5C0C0
C86380C0
C83310C0
C41E18C0
C60608C0
C60F0CC0
C61B0CC0
C6318CC0
C060C0C0
C0C8E0C0
C18C70C0
C20438C0
C40618C0
C80608C0
C00000C0
FFFFFFC0
FFFFFFC0
00000000
00000000
00000000
20000000
30000300
30000700
30001F00
30007C00
3001F000
3007C000
303E0000
30F00000
37800000
38000000
30000000
30000000
30000000
30000080
30000040
30000040
380001E0
1FFFFFF0
0FFFFFE0
ENDCHAR
STARTCHAR 2FC0
ENCODING 12224
SWIDTH 740 0
DWIDTH 37 0
BBX 32 44 2 -4
BITMAP
FFFFFFFF
7FFFFFFE
00000000
00000000
00000000
00000000
01FFFF80
01FFFF80
01800180
01800180
01800180
01800180
01800180
01800180
01FFFF80
01FFFF80
00000000
00000000
00000000
00000000
1FFFFFF8
1FFFFFF8
18000018
18400E18
18200E18
18300C18
18181C18
181C1818
180E3018
18042018
1BFFFF98
19FFFF98
18018018
18018018
18018018
18018018
18018018
18018018
18018018
18018018
18018018
18018018
18018018
10000018
ENDCHAR
STARTCHAR 2FC1
ENCODING 12225
SWIDTH 720 0
DWIDTH 36 0
BBX 33 47 1 -4
BITMAP
0003000000
0007000000
0007000000
0006000000
0006000000
0004000000
0FFFFFE000
0FFFFFE000
0C03006000
0C03006000
0C03006000
0C03006000
0C03006000
0C03006000
0FFFFFE000
0FFFFFE000
0C03006000
0C03006000
0C03006000
0C03006000
0C03006000
0C07006000
0FFFFFE000
0FFFFFE000
0006000000
0006000000
000E400000
000E600000
000C618000
001C618000
001C618000
0018618000
0038619000
0030631800
0030630800
0060620C00
006064FE00
00C067E600
01C0620400
0180600000
0300600200
0600600100
0C00700100
0800700380
10003FFF80
60001FFF00
8000000000
ENDCHAR
STARTCHAR 2FC5
ENCODING 12229
SWIDTH 720 0
DWIDTH 36 0
BBX 34 46 1 -5
BITMAP
0000200000
0000300000
0000300000
0000300000
0000300000
07FFFFFF00
07FFFFFF00
0606060000
0606060000
0606060000
0606060000
0606060000
07FFFFFE00
07FFFFFE00
0606060600
0606060600
0606060600
0606060600
0606060600
0606060600
0606060600
07FFFFFE00
07FFFFFE00
0600000000
0610020000
0618030000
0E18030000
0E18030000
0E18030300
0C18030700
0C18030F00
0C18031C00
0C1FF37000
0C1FE3C000
0C18030000
1818030000
1818030000
1818030000
1018030000
3018030000
3018030080
2018030080
6018030080
40180381C0
401803FFC0
801800FF80
ENDCHAR
STARTCHAR 2FC6
ENCODING 12230
SWIDTH 740 0
DWIDTH 37 0
BBX 33 46 2 -4
BITMAP
0001000000
0001800000
0001800000
0001800000
0001800000
3FFFFFFE00
1FFFFFFC00
0001800000
00C1808000
01C181C000
0181818000
0181818000
0381838000
0301838000
0781836000
06C1867000
0C61843800
1833841800
1037C81C00
200FB00C00
401D980000
00798E0000
00E1878000
01C181E000
030D00F800
0E1C003E00
1818000F80
6018000300
803FFFC000
003FFFC000
0060038000
00E0070000
00C0070000
01800E0000
03201C0000
061C380000
0C03700000
1000E00000
0003F00000
00079C0000
000E0E0000
003C078000
007003C000
01C000E000
0700007000
3800002000
ENDCHAR
STARTCHAR 2FC7
ENCODING 12231
SWIDTH 740 0
DWIDTH 37 0
BBX 34 47 1 -5
BITMAP
0000100000
0000180000
0000180000
0000180000
0000180000
07FFFFFFC0
07FFFFFFC0
0600000000
0600000000
0604002000
0606003000
0606003000
0606003000
0606003000
0606003000
0606003000
06FFFFFFC0
067FE7FF80
063603B200
0676033200
0676033200
0677033200
0667833200
0666C33300
0666E33300
0666623300
0666763300
0E46363100
0E46363100
0C46063180
0CC6043180
0C860C3180
0C860C3180
0C860830C0
0D860830C0
09061030C0
19061030C0
1A06103040
1A06203040
1006203000
3006003000
2006003000
2006003000
4006003000
4006003000
8006003000
8004002000
ENDCHAR
STARTCHAR 2FC9
ENCODING 12233
SWIDTH 740 0
DWIDTH 37 0
BBX 33 47 2 -4
BITMAP
0000002000
000001F000
00001FE000
0007FF0000
07FFF00000
0000C00000
0000C00000
0000C00000
0000C00000
3FFFFFFF00
1FFFFFFE00
0018C00000
0038D80000
0070C60000
0060C38000
00E0C0E000
01C0807800
0380C03C00
0701C01E00
0C01C00700
1803C00300
2007300000
C00E180000
003C0C0000
0078070000
00E0838000
01C0C1E000
0300C0F800
0600C1BE00
1880C39F80
2060C38780
4030C70100
0038CE0000
001CC80000
000CD00000
0000C00000
0002D00000
000CCC0000
0018C30000
0030C18000
00E0C0E000
03C0C07000
0780C03800
0600C03800
0000C00000
0000C00000
0000800000
ENDCHAR
STARTCHAR 2FCA
ENCODING 12234
SWIDTH 720 0
DWIDTH 36 0
BBX 32 45 2 -4
BITMAP
0FFFFFF0
0FFFFFF0
0C018030
0C018030
0C018030
0C818330
0C418730
0C618630
0C318E30
0C318C30
0C199830
0C199030
0C01A030
0C018030
0C018030
0FFFFFF0
0FFFFFF0
00018000
00018000
00018000
00018000
00018000
1FFFFFF8
0FFFFFF0
00018000
00018000
00018000
00018000
00018000
00018000
FFFFFFFF
7FFFFFFE
00000000
00000000
04000000
04204020
04302020
0C183010
08181818
181C1808
181C1C0C
300C0C0C
300E0E06
600E0E06
600C0606
ENDCHAR
STARTCHAR 2FCB
ENCODING 12235
SWIDTH 740 0
DWIDTH 37 0
BBX 35 47 1 -5
BITMAP
0004080000
00060C1800
04060C3800
02060C3800
03860C3000
01860C7000
01C60C6000
00C60C4000
00060C8000
00060C0000
FFFFFFFFE0
FFFFFFFFE0
7FFFFFFFC0
0000C00000
0000C0C000
0040C0C000
0060C1C000
0030C18000
0038C30000
0018C20000
0000C40000
0000C00000
07FFFFFC00
07FFFFFC00
060EC00C00
060EC00C00
060CC00C00
060CC80C00
060CC40C00
061CC40C00
061CC60C00
0618C20C00
0618C30C00
0618C30C00
0610C10C00
0630C18C00
0630C18C00
0620C18C00
0640C0CC00
0640C0CC00
0680C00C00
0600C00C00
0600C00C00
0600C00C00
0600C00C00
0600C00C00
0600800C00
ENDCHAR
STARTCHAR 2FCD
ENCODING 12237
SWIDTH 740 0
DWIDTH 37 0
BBX 30 46 3 -5
BITMAP
007FFE00
007FFE00
00600600
00600600
00600600
00600600
107FFE10
187FFE18
18600618
18600618
18600618
18600618
187FFE18
187FFE18
18600618
18600618
18600618
187FFE18
187FFE18
18000018
18000018
18000018
18000018
1FFC1FF8
1FFC1FF8
000C1800
000C1800
000C1800
000C1800
7FFC1FFC
3FFC1FFC
060C180C
0E0C180C
0E0C180C
0E0C180C
0E0C180C
0C0C180C
1C0C180C
1C0C180C
180C180C
380C180C
300C180C
300C180C
600C180C
C00C180C
80081000
ENDCHAR
STARTCHAR 2FCE
ENCODING 12238
SWIDTH 740 0
DWIDTH 37 0
BBX 35 46 1 -3
BITMAP
00C0006000
00C0006000
00C0006000
00C0006000
00C0006000
FFFFC06000
7FFF806000
00C07FFFC0
00C03FFF80
00C0006000
00C0006000
00C0006000
3FFF806000
1FFF006000
0000006000
0000006000
0000006000
1FFE3FFF80
1FFE1FFF80
18060C0300
1806040300
1806040700
1806060700
1806060600
1806060E00
1806030E00
1806030C00
1FFE031C00
1FFE019C00
0000019800
000C00F800
100C00F000
080C00F000
081C006000
0C1800F000
061800F000
061801B800
0730039800
0330431C00
0327860E00
007E0C0700
01F8180700
1FE0300380
FF006001C0
F8008000E0
0001000040
ENDCHAR
STARTCHAR 2FCF
ENCODING 12239
SWIDTH 740 0
DWIDTH 37 0
BBX 31 46 4 -4
BITMAP
00600000
01E00000
03C00000
1F07FF00
F003FF00
C0000300
C0000300
C0000300
C0000300
FFC7FF00
FFC3FF00
C0000300
C0000300
C0000300
C0000300
C0000300
FFFFFF00
FFFFFF00
00000000
80300200
C0380300
C0380300
C8390300
C4388300
C638C300
C3386300
C3B86300
C1B87300
C1B82300
C0380300
C0380300
C8390300
C4388300
C638C300
C3386380
C3B86380
C1B87380
C1B82180
C0380180
C03801C0
C03800C0
C03800E0
C0380064
C038007C
C018003E
C018000E
ENDCHAR
STARTCHAR 2FD0
ENCODING 12240
SWIDTH 740 0
DWIDTH 37 0
BBX 33 46 2 -4
BITMAP
0001000000
0003800000
0003000000
0006000000
01FFFFC000
01FFFFC000
018000C000
018000C000
01FFFFC000
01FFFFC000
018000C000
018000C000
01FFFFC000
01FFFFC000
018000C000
01FFFFC000
01FFFFC000
0000000000
0000000000
0000000000
07FFFFF000
07FFFFF000
0601803000
0601803000
0601803000
07FFFFF000
07FFFFF000
0601803000
0601803000
0601803000
07FFFFF000
07FFFFF000
0000000000
0000000000
FFFFFFFF80
7FFFFFFF00
0070060000
0060060000
0060060000
00E0060000
00C0060000
00C0060000
0180060000
0300060000
0200060000
0400040000
ENDCHAR
STARTCHAR 2FD3
ENCODING 12243
SWIDTH 740 0
DWIDTH 37 0
BBX 35 47 1 -5
BITMAP
0080100000
00C0180000
00C0180000
00C0180000
00C0180000
7FFF1FFF80
3FFE1FFF00
0000180000
080C180000
0C0C180000
06081FFE00
07181FFE00
0710000600
0730000600
0020000600
FFFFC00600
7FFF800600
0000000600
00001FFE00
00001FFE00
1FFE180000
1FFE180000
1806180000
18061FFF00
18061FFE00
1806180000
1806180000
1FFE180000
1FFE180000
18061FFF00
18061FFE00
1806180000
1806180000
1806180000
1806180000
1FFE1FFF00
1FFE1FFE00
1806180000
1806180000
1806180000
1806180080
1806180080
1806180080
18061C01E0
18060FFFE0
180607FFC0
1004000000
ENDCHAR
STARTCHAR 2FD5
ENCODING 12245
SWIDTH 740 0
DWIDTH 37 0
BBX 33 47 2 -4
BITMAP
0000C00000
0001C00000
0003800000
0007400000
000E300000
001C180000
00380C0000
0070070000
00E003C000
018001F000
073FFE7C00
0C1FFC3F80
1800000F80
6000000300
8000000000
1FE7F3F800
1FE7F3F800
1866331800
1866331800
1866331800
1866331800
1866331800
1FE7F3F800
1FE7F3F800
0000000000
0000000000
0FFFFFF000
0FFFFFF000
0C0C183000
0C0C183000
0C0C183000
0C0C183000
0C0C183000
0C0C183000
0FFFFFF000
0FFFFFF000
0C0C183000
0C0C183000
0C0C183000
0C0C183000
0C0C183000
0C0C183000
0C0C183000
0C0C183000
0C0C183000
0C08103000
0800002000
ENDCHAR
STARTCHAR 3000
ENCODING 12288
SWIDTH 980 0
DWIDTH 49 0
BBX 0 0 0 0
BITMAP
ENDCHAR
STARTCHAR 3001
ENCODING 12289
SWIDTH 720 0
DWIDTH 36 0
BBX 5 8 1 -4
BITMAP
80
40
40
20
30
30
18
18
ENDCHAR
STARTCHAR 3002
ENCODING 12290
SWIDTH 740 0
DWIDTH 37 0
BBX 7 7 1 -2
BITMAP
3C
7C
C6
C6
E6
7C
38
ENDCHAR
STARTCHAR 3005
ENCODING 12293
SWIDTH 740 0
DWIDTH 37 0
BBX 28 45 4 -3
BITMAP
00300000
00300000
00700000
00700000
00600000
00600000
00600000
00E00000
00C00000
00C00000
00FFFFF0
01FFFFF0
01800070
018000E0
030000E0
030000C0
020001C0
06000180
06000380
04000300
0C000300
08000600
18000600
10000C00
10000C00
20001800
40001800
40001800
80803000
80403000
00206000
00106000
00084000
000CC000
00068000
00038000
00018000
0000C000
0000E000
00006000
00003000
00003800
00001800
00000C00
00000C00
ENDCHAR
STARTCHAR 3007
ENCODING 12295
SWIDTH 740 0
DWIDTH 37 0
BBX 31 38 3 0
BITMAP
000FF000
007FFC00
00F01E00
03C00780
070001C0
060000E0
0C000060
1C000070
18000038
30000018
30000018
7000000C
6000000C
6000000C
E000000E
C0000006
C0000006
C0000006
C0000006
C0000006
C0000006
C0000006
C0000006
E000000E
6000000C
6000000C
7000000C
30000018
30000018
18000030
1C000070
0C000060
060000E0
078001C0
03C00780
00F83E00
007FFC00
000FE000
ENDCHAR
STARTCHAR 3008
ENCODING 12296
SWIDTH 740 0
DWIDTH 37 0
BBX 9 44 26 -2
BITMAP
0100
0180
0180
0380
0300
0300
0700
0600
0E00
0C00
0C00
1C00
1800
1800
3800
3000
3000
7000
6000
6000
E000
C000
C000
E000
6000
6000
7000
3000
3000
3800
1800
1800
1C00
0C00
0C00
0E00
0600
0600
0300
0300
0380
0180
0180
0180
ENDCHAR
STARTCHAR 3009
ENCODING 12297
SWIDTH 740 0
DWIDTH 37 0
BBX 9 44 2 -2
BITMAP
4000
C000
C000
E000
6000
6000
7000
3000
3000
1800
1800
1C00
0C00
0C00
0E00
0600
0600
0700
0300
0300
0380
0180
0180
0380
0380
0300
0700
0600
0600
0E00
0C00
0C00
1C00
1800
1800
3800
3000
3000
7000
6000
E000
C000
C000
C000
ENDCHAR
STARTCHAR 300A
ENCODING 12298
SWIDTH 740 0
DWIDTH 37 0
BBX 15 44 20 -2
BITMAP
0104
0186
0186
038E
030C
031C
0718
0618
0E38
0C30
0C30
1C70
1860
18E0
38E0
30C0
31C0
7180
6180
6380
E300
C300
C300
E300
6380
6180
7180
31C0
30C0
38C0
18E0
1860
1C70
0C30
0C30
0E38
0618
0618
031C
030C
030C
018E
0186
0186
ENDCHAR
STARTCHAR 300B
ENCODING 12299
SWIDTH 740 0
DWIDTH 37 0
BBX 15 44 2 -2
BITMAP
4100
C300
C300
E380
6180
7180
31C0
30C0
38C0
1860
1860
1C70
0C30
0C30
0E38
0618
0718
031C
030C
038C
018E
0186
0186
018E
038C
030C
031C
0718
0618
0E38
0E30
0C30
1C70
1860
1860
38E0
30C0
30C0
71C0
6180
E380
E300
C300
4300
ENDCHAR
STARTCHAR 300C
ENCODING 12300
SWIDTH 720 0
DWIDTH 36 0
BBX 6 35 29 7
BITMAP
FC
FC
C0
C0
C0
C0
C0
C0
C0
C0
C0
C0
C0
C0
C0
C0
C0
C0
C0
C0
C0
C0
C0
C0
C0
C0
C0
C0
C0
C0
C0
C0
C0
C0
80
ENDCHAR
STARTCHAR 300D
ENCODING 12301
SWIDTH 720 0
DWIDTH 36 0
BBX 6 35 2 -1
BITMAP
0C
0C
0C
0C
0C
0C
0C
0C
0C
0C
0C
0C
0C
0C
0C
0C
0C
0C
0C
0C
0C
0C
0C
0C
0C
0C
0C
0C
0C
0C
0C
0C
0C
FC
FC
ENDCHAR
STARTCHAR 300E
ENCODING 12302
SWIDTH 720 0
DWIDTH 36 0
BBX 8 35 27 7
BITMAP
FF
81
9E
90
90
90
90
90
90
90
90
90
90
90
90
90
90
90
90
90
90
90
90
90
90
90
90
90
90
90
90
90
90
B0
E0
ENDCHAR
STARTCHAR 300F
ENCODING 12303
SWIDTH 740 0
DWIDTH 37 0
BBX 9 35 2 -1
BITMAP
0380
0680
0480
0480
0480
0480
0480
0480
0480
0480
0480
0480
0480
0480
0480
0480
0480
0480
0480
0480
0480
0480
0480
0480
0480
0480
0480
0480
0480
0480
0480
3C80
6080
4080
FF80
ENDCHAR
STARTCHAR 3010
ENCODING 12304
SWIDTH 740 0
DWIDTH 37 0
BBX 4 43 31 -2
BITMAP
F0
F0
F0
F0
E0
E0
E0
E0
E0
E0
E0
E0
C0
C0
C0
C0
C0
C0
C0
C0
C0
C0
C0
C0
C0
C0
C0
C0
C0
C0
C0
E0
E0
E0
E0
E0
E0
E0
E0
F0
F0
F0
F0
ENDCHAR
STARTCHAR 3011
ENCODING 12305
SWIDTH 720 0
DWIDTH 36 0
BBX 4 43 2 -2
BITMAP
F0
F0
F0
F0
70
70
70
70
70
70
70
30
30
30
30
30
30
30
30
30
30
30
30
30
30
30
30
30
30
30
30
70
70
70
70
70
70
70
70
F0
F0
F0
F0
ENDCHAR
STARTCHAR 3016
ENCODING 12310
SWIDTH 720 0
DWIDTH 36 0
BBX 6 43 29 -2
BITMAP
FC
FC
8C
8C
88
88
88
88
98
98
98
90
90
90
90
90
90
90
90
90
90
90
90
90
90
90
90
90
90
90
90
90
98
98
98
88
88
88
88
88
8C
FC
FC
ENDCHAR
STARTCHAR 3017
ENCODING 12311
SWIDTH 740 0
DWIDTH 37 0
BBX 6 43 3 -2
BITMAP
FC
FC
C4
C4
C4
44
44
44
44
44
64
64
64
64
24
24
24
24
24
24
24
24
24
24
24
24
24
24
24
64
64
64
64
44
44
44
44
44
C4
C4
C4
FC
FC
ENDCHAR
STARTCHAR 306E
ENCODING 12398
SWIDTH 740 0
DWIDTH 37 0
BBX 29 40 4 -1
BITMAP
001FC000
00FFF000
01E37C00
03831E00
07030700
0E030380
1C030180
180300C0
380300E0
30030060
70030060
60030070
60030030
60030030
E0030030
C0030038
C0030018
C0030018
C0030018
C0030018
C0030018
C0030018
C0070018
C0070018
C0070018
E0070038
60070030
60060030
60060030
70060070
700E0060
300E00E0
380C00C0
380C01C0
1C1C0380
1C180780
0E380F00
07F03E00
03E03C00
00001000
ENDCHAR
STARTCHAR 30FB
ENCODING 12539
SWIDTH 740 0
DWIDTH 37 0
BBX 3 3 17 12
BITMAP
40
E0
E0
ENDCHAR
STARTCHAR 4E00
ENCODING 19968
SWIDTH 740 0
DWIDTH 37 0
BBX 31 2 3 23
BITMAP
FFFFFFFE
7FFFFFFC
ENDCHAR
STARTCHAR 4E01
ENCODING 19969
SWIDTH 740 0
DWIDTH 37 0
BBX 31 43 3 -5
BITMAP
FFFFFFFE
7FFFFFFC
0000C000
0000C000
0000C000
0000C000
0000C000
0000C000
0000C000
0000C000
0000C000
0000C000
0000C000
0000C000
0000C000
0000C000
0000C000
0000C000
0000C000
0000C000
0000C000
0000C000
0000C000
0000C000
0000C000
0000C000
0000C000
0000C000
0000C000
0000C000
0000C000
0000C000
0000C000
0000C000
0000C000
0000C000
0000C000
0000C000
0000C000
0000C000
0007C000
0001C000
00008000
ENDCHAR
STARTCHAR 4E03
ENCODING 19971
SWIDTH 720 0
DWIDTH 36 0
BBX 32 46 2 -3
BITMAP
00080000
000C0000
000C0000
000C0000
000C0000
000C0000
000C0000
000C0000
000C0000
000C0000
000C0000
000C000E
000C00FE
000C07F8
000C7FC0
000FFC00
003FE000
01FE0000
1FFC0000
FF0C0000
780C0000
000C0000
000C0000
000C0000
000C0000
000C0000
000C0000
000C0000
000C0000
000C0000
000C0000
000C0000
000C0000
000C0000
000C0000
000C0000
000C0000
000C0000
000C0000
000C0000
000C0004
000C0004
000C0006
000E0007
0007FFFF
0003FFFE
ENDCHAR
STARTCHAR 4E07
ENCODING 19975
SWIDTH 740 0
DWIDTH 37 0
BBX 33 43 2 -5
BITMAP
7FFFFFFF80
3FFFFFFF00
0060000000
0060000000
0060000000
0060000000
0060000000
0060000000
0060000000
0060000000
0060000000
0060000000
007FFFE000
007FFFE000
0060006000
0060006000
0060006000
0060006000
00E0006000
00E0006000
00C0006000
00C0006000
00C0006000
00C0006000
00C0006000
01C0006000
0180006000
0180006000
0180006000
0380006000
0300006000
0300006000
0600006000
0600006000
0400006000
0C00006000
0800006000
1800006000
1000006000
2000006000
2000006000
4000006000
8000004000
ENDCHAR
STARTCHAR 4E08
ENCODING 19976
SWIDTH 740 0
DWIDTH 37 0
BBX 31 47 4 -4
BITMAP
00004000
00006000
00006000
00006000
00006000
00006000
00006000
00006000
00006000
00006000
FFFFFFFC
7FFFFFF8
00006000
00006000
00006000
02006000
02006000
02006000
01006000
01006000
0080E000
0080C000
00C0C000
0040C000
0060C000
0030C000
0031C000
00198000
00198000
000F8000
000F0000
00070000
00070000
00078000
000DC000
001CE000
00187000
00303800
00601C00
00C00F00
01800780
030003E0
060001F0
0C00007E
1000003E
6000000C
80000000
ENDCHAR
STARTCHAR 4E09
ENCODING 19977
SWIDTH 720 0
DWIDTH 36 0
BBX 31 39 2 -1
BITMAP
1FFFFFF0
0FFFFFE0
00000000
00000000
00000000
00000000
00000000
00000000
00000000
00000000
00000000
00000000
00000000
00000000
00000000
00000000
00000000
03FFFFC0
01FFFF80
00000000
00000000
00000000
00000000
00000000
00000000
00000000
00000000
00000000
00000000
00000000
00000000
00000000
00000000
00000000
00000000
00000000
00000000
FFFFFFFE
7FFFFFFC
ENDCHAR
STARTCHAR 4E0A
ENCODING 19978
SWIDTH 740 0
DWIDTH 37 0
BBX 31 44 3 -1
BITMAP
00060000
00060000
00060000
00060000
00060000
00060000
00060000
00060000
00060000
00060000
00060000
00060000
00060000
00060000
00060000
0007FFF8
0007FFF0
00060000
00060000
00060000
00060000
00060000
00060000
00060000
00060000
00060000
00060000
00060000
00060000
00060000
00060000
00060000
00060000
00060000
00060000
00060000
00060000
00060000
00060000
00060000
00060000
00060000
FFFFFFFE
7FFFFFFC
ENDCHAR
STARTCHAR 4E0B
ENCODING 19979
SWIDTH 740 0
DWIDTH 37 0
BBX 31 43 3 -5
BITMAP
FFFFFFFE
7FFFFFFE
00030000
00030000
00030000
00030000
00030000
00030000
00030000
00030000
00030000
00032000
00031000
00030800
00030C00
00030600
00030300
00030180
000301C0
000300E0
00030060
00030070
00030038
00030018
00030018
00030000
00030000
00030000
00030000
00030000
00030000
00030000
00030000
00030000
00030000
00030000
00030000
00030000
00030000
00030000
00030000
00030000
00020000
ENDCHAR
STARTCHAR 4E0C
ENCODING 19980
SWIDTH 720 0
DWIDTH 36 0
BBX 33 43 1 -5
BITMAP
FFFFFFFF80
7FFFFFFF00
0030030000
0030030000
0030030000
0030030000
0030030000
0030030000
0030030000
0030030000
0030030000
0030030000
0030030000
0030030000
0030030000
0030030000
0030030000
0070030000
0070030000
0060030000
0060030000
0060030000
0060030000
00E0030000
00E0030000
00C0030000
00C0030000
00C0030000
0180030000
0180030000
0180030000
0300030000
0300030000
0200030000
0600030000
0400030000
0C00030000
0800030000
1000030000
3000030000
2000030000
4000030000
8000020000
ENDCHAR
STARTCHAR 4E0D
ENCODING 19981
SWIDTH 740 0
DWIDTH 37 0
BBX 32 43 2 -4
BITMAP
3FFFFFFE
1FFFFFFC
0001C000
00018000
00018000
00038000
00030000
00030000
00070000
00060000
000E8000
000CC000
000CC000
0018C400
0018C200
0030C100
0030C080
0060C0C0
00E0C060
00C0C030
0180C038
0380C018
0300C01C
0600C00E
0C00C006
1800C007
3000C003
6000C000
8000C000
0000C000
0000C000
0000C000
0000C000
0000C000
0000C000
0000C000
0000C000
0000C000
0000C000
0000C000
0000C000
0000C000
00008000
ENDCHAR
STARTCHAR 4E0E
ENCODING 19982
SWIDTH 740 0
DWIDTH 37 0
BBX 28 46 4 -4
BITMAP
03000000
03000000
03000000
03000000
03000000
03000000
03FFFFF0
03FFFFE0
03000000
03000000
03000000
03000000
03000000
03000000
03000000
03000000
03000000
03FFFFE0
03FFFFE0
00000060
00000060
00000060
00000060
00000060
00000060
00000060
00000060
00000060
00000060
FFFFFC60
7FFFF860
00000060
00000060
00000060
00000060
00000060
00000060
00000060
00000060
00000060
00000060
00000060
00000060
00000060
00000060
00000060
ENDCHAR
STARTCHAR 4E10
ENCODING 19984
SWIDTH 720 0
DWIDTH 36 0
BBX 32 44 2 -4
BITMAP
FFFFFFFF
7FFFFFFE
00018000
00018000
00018000
00018000
0C018000
0C018000
0C018000
0C01FFF8
0C01FFF0
0C018000
0C018000
0C018000
0C018000
0C018000
0C018000
0C018000
0C018000
0C018000
0FFFFFF8
0FFFFFF8
00000018
00000018
00000018
00000018
00000018
00000018
00000018
00000018
00000018
00000018
00000018
00000018
00000018
00000018
00000018
00000018
00000018
00000018
00000018
00000018
00000018
00000010
ENDCHAR
STARTCHAR 4E11
ENCODING 19985
SWIDTH 720 0
DWIDTH 36 0
BBX 34 44 1 -4
BITMAP
07FFFFF000
03FFFFF000
0003003000
0007003000
0007003000
0007003000
0007003000
0007003000
0006003000
0006003000
0006003000
0006003000
0006003000
0006003000
0006003000
000E003000
000E003000
000E003000
000E003000
03FFFFF000
01FFFFF000
000C003000
000C003000
000C003000
000C003000
000C003000
001C003000
001C003000
001C003000
001C003000
0018003000
0018003000
0018003000
0018003000
0018003000
0018003000
0018003000
0038003000
0038003000
0038003000
0038003000
0030003000
FFFFFFFFC0
7FFFFFFF80
ENDCHAR
STARTCHAR 4E13
ENCODING 19987
SWIDTH 740 0
DWIDTH 37 0
BBX 33 46 2 -4
BITMAP
0000C00000
0000C00000
0001C00000
0001C00000
0001800000
0FFFFFF800
07FFFFF000
0003000000
0007000000
0007000000
0006000000
000E000000
000E000000
000C000000
FFFFFFFF80
7FFFFFFF00
0018000000
0038000000
0038000000
0030000000
0070000000
0070000000
0060000000
00E0000000
00FFFFE000
00FFFFE000
000000E000
000001C000
000001C000
0000038000
0000030000
0000070000
0000060000
0080060000
00600C0000
00180C0000
000C180000
0007100000
0003B00000
0001E00000
0000E00000
0000700000
0000380000
00001C0000
00000E0000
0000060000
ENDCHAR
STARTCHAR 4E14
ENCODING 19988
SWIDTH 760 0
DWIDTH 38 0
BBX 34 44 2 -3
BITMAP
01FFFFC000
01FFFFC000
018000C000
018000C000
018000C000
018000C000
018000C000
018000C000
018000C000
018000C000
018000C000
018000C000
018000C000
01FFFFC000
01FFFFC000
018000C000
018000C000
018000C000
018000C000
018000C000
018000C000
018000C000
018000C000
018000C000
018000C000
018000C000
01FFFFC000
01FFFFC000
018000C000
018000C000
018000C000
018000C000
018000C000
018000C000
018000C000
018000C000
018000C000
018000C000
018000C000
018000C000
018000C000
018000C000
FFFFFFFFC0
7FFFFFFF80
ENDCHAR
STARTCHAR 4E15
ENCODING 19989
SWIDTH 740 0
DWIDTH 37 0
BBX 35 43 1 -3
BITMAP
3FFFFFFF80
1FFFFFFF80
0000E00000
0000C00000
0000C00000
0001C00000
0001800000
0001800000
0003800000
0003000000
0007400000
0006600000
000E600000
000C620000
001C610000
0018608000
0038604000
0070606000
0060603000
00C0601800
01C0601800
0180600C00
0300600E00
0600600600
0C00600700
1800600380
3000600380
6000600100
8000600000
0000600000
0000600000
0000600000
0000600000
0000600000
0000600000
0000600000
0000600000
0000600000
0000400000
0000000000
0000000000
FFFFFFFFE0
7FFFFFFFC0
ENDCHAR
STARTCHAR 4E16
ENCODING 19990
SWIDTH 740 0
DWIDTH 37 0
BBX 33 44 2 -1
BITMAP
000300C000
000300C000
000300C000
020300C000
030300C000
030300C000
030300C000
030300C000
030300C000
030300C000
030300C000
030300C000
FFFFFFFF80
7FFFFFFF00
030300C000
030300C000
030300C000
030300C000
030300C000
030300C000
030300C000
030300C000
030300C000
030300C000
030300C000
030300C000
030300C000
030300C000
030300C000
030300C000
0303FFC000
0303FFC000
0300000000
0300000000
0300000000
0300000000
0300000000
0300000000
0300000000
0300000000
0300000000
0300000000
03FFFFFE00
03FFFFFC00
ENDCHAR
STARTCHAR 4E18
ENCODING 19992
SWIDTH 760 0
DWIDTH 38 0
BBX 34 45 2 -2
BITMAP
0000007000
000003F000
00000FC000
0000FE0000
001FE00000
01F8000000
0180000000
0180000000
0180000000
0180000000
0180000000
0180000000
0180000000
0180000000
0180000000
0180000000
0180000000
01FFFFFE00
01FFFFFC00
0180060000
0180060000
0180060000
0180060000
0180060000
0180060000
0180060000
0180060000
0180060000
0180060000
0180060000
0180060000
0180060000
0180060000
0180060000
0180060000
0180060000
0180060000
0180060000
0180060000
0180060000
0180060000
0180060000
0180060000
FFFFFFFFC0
7FFFFFFF80
ENDCHAR
STARTCHAR 4E19
ENCODING 19993
SWIDTH 720 0
DWIDTH 36 0
BBX 32 45 2 -5
BITMAP
FFFFFFFF
7FFFFFFE
0000C000
0000C000
0000C000
0000C000
0000C000
0000C000
0000C000
0000C000
1FFFFFF8
1FFFFFF8
1801C018
18018018
18018018
18018018
18018018
18018018
18018018
18030018
18038018
18034018
18062018
18063018
18041818
180C0C18
18180C18
18100618
18300718
18600318
18800398
19000118
18000018
18000018
18000018
18000018
18000018
18000018
18000018
18000018
18000018
18000018
18000018
18000018
10000010
ENDCHAR
STARTCHAR 4E1A
ENCODING 19994
SWIDTH 720 0
DWIDTH 36 0
BBX 32 44 2 -2
BITMAP
00181800
00181800
00181800
00181800
00181800
00181800
00181800
00181800
00181800
20181818
20181818
10181818
10181818
18181818
08181818
0C181818
0C181818
0C181830
06181830
06181830
06181830
07181830
03181820
03181860
03181860
03181840
03981840
03981880
01981880
01981900
00181900
00181800
00181800
00181800
00181800
00181800
00181800
00181800
00181800
00181800
00181800
00181800
FFFFFFFF
7FFFFFFE
ENDCHAR
STARTCHAR 4E1B
ENCODING 19995
SWIDTH 740 0
DWIDTH 37 0
BBX 35 46 1 -4
BITMAP
0060030000
0060030000
0060030000
0060030000
0060030000
0060030000
0060030000
0060030000
0060030000
0060030000
0060030000
0060030000
0060030000
0060078000
0060078000
0070078000
0070078000
00F8068000
00D806C000
00D806C000
00CC06C000
00CC0E4000
00CE0C6000
00CE0C6000
00860C6000
0087087000
0087187000
0187183000
0183903000
0103B03800
0103B03800
0300201C00
0200601C00
0200401C00
0600800E00
0400800E00
0401000700
0802000700
1002000780
1004000200
0000000000
0000000000
0000000000
0000000000
FFFFFFFFE0
7FFFFFFFC0
ENDCHAR
STARTCHAR 4E1C
ENCODING 19996
SWIDTH 740 0
DWIDTH 37 0
BBX 32 47 2 -5
BITMAP
00080000
000C0000
000C0000
001C0000
00180000
00180000
7FFFFFFF
3FFFFFFE
00300000
00700000
00600000
00E08000
00E0C000
00C0C000
01C0C000
01C0C000
0180C000
0380C000
0380C000
0300C000
0700C000
07FFFFFC
07FFFFF8
0000C000
0000C000
0000C000
0000C000
0060C000
0060C100
00E0C080
00C0C080
00C0C040
01C0C060
0180C020
0380C030
0300C018
0700C018
0600C00C
0E00C00C
0C00C006
1800C006
1800C002
3000C002
2000C000
4000C000
8000C000
0000C000
ENDCHAR
STARTCHAR 4E1D
ENCODING 19997
SWIDTH 720 0
DWIDTH 36 0
BBX 31 45 3 -2
BITMAP
00C00300
00C00300
01C00700
01800600
01800600
01800600
03800E00
03000C00
03000C00
03060C18
06061818
060E1838
040E1038
0C0C3030
080C2030
181C6070
10184060
10184060
3FF8FFE0
3FB0FEC0
3C30F0C0
007001C0
00600180
00600180
00C00300
00C00300
01800600
01800600
03000C00
02000800
06001800
0C003000
08002000
180C6038
3FF0FFC0
3FC0FF00
3C00F000
00000000
00000000
00000000
00000000
00000000
00000000
FFFFFFFE
7FFFFFFC
ENDCHAR
STARTCHAR 4E1E
ENCODING 19998
SWIDTH 740 0
DWIDTH 37 0
BBX 35 44 1 -3
BITMAP
03FFFFC000
01FFFFC000
000001C000
0000038000
0000070000
00000E0000
00001C0000
0000380600
0000300E00
0000600C00
0000601C00
1FF8603800
0FF8703000
0038706000
003868C000
0038698000
0038670000
0030660000
0070660000
0070630000
0070638000
0060618000
00E061C000
00E060E000
01C0606000
01C0607000
0180603800
0380601C00
0300601E00
0700600F00
0E00600700
0C00600380
18006003C0
30006001E0
20006000C0
4000600000
8000600000
0000600000
0000600000
0000400000
0000000000
0000000000
7FFFFFFFC0
3FFFFFFF80
ENDCHAR
STARTCHAR 4E22
ENCODING 20002
SWIDTH 740 0
DWIDTH 37 0
BBX 33 46 2 -4
BITMAP
000000F000
000007F000
00007FC000
001FFC0000
1FFF800000
0001800000
0001800000
0001800000
0001800000
0001800000
0001800000
0FFFFFF000
07FFFFE000
0001800000
0001800000
0001800000
0001800000
0001800000
0001800000
0001800000
0001800000
0001800000
FFFFFFFF80
7FFFFFFF00
0006000000
000E000000
000C000000
000C000000
001C000000
0018040000
0038020000
0030020000
0030010000
0060018000
0060018000
00C000C000
00C000C000
0180006000
0180006000
030001F000
02001FB000
0603FC3800
04FFE03800
0FFE001C00
0FC0001C00
0000000800
ENDCHAR
STARTCHAR 4E24
ENCODING 20004
SWIDTH 720 0
DWIDTH 36 0
BBX 32 44 2 -4
BITMAP
FFFFFFFF
7FFFFFFE
00181800
00181800
00181800
00181800
00181800
00181800
00181800
1FFFFFF8
1FFFFFF8
18181818
18181818
18181818
18181818
18181818
18181818
18181818
181C1818
183C1C18
18363418
18363618
18323218
18333318
18332318
18636318
18636198
18404198
18404198
188081D8
188080D8
190100D8
19010018
1A020018
18000018
18000018
18000018
18000018
18000018
18000018
18000018
18000018
18000018
10000010
ENDCHAR
STARTCHAR 4E25
ENCODING 20005
SWIDTH 740 0
DWIDTH 37 0
BBX 35 43 1 -5
BITMAP
07FFFFFFC0
03FFFFFF80
0001830000
0001830000
0001830600
0081830600
0041830E00
0061830C00
0071830C00
0031831800
0039831000
0039832000
0011830000
0001830000
0001830000
03FFFFFFE0
03FFFFFFC0
0300000000
0300000000
0300000000
0300000000
0300000000
0300000000
0300000000
0300000000
0300000000
0700000000
0700000000
0600000000
0600000000
0600000000
0600000000
0C00000000
0C00000000
0C00000000
0800000000
1800000000
1000000000
3000000000
2000000000
6000000000
4000000000
8000000000
ENDCHAR
STARTCHAR 4E27
ENCODING 20007
SWIDTH 720 0
DWIDTH 36 0
BBX 34 47 1 -5
BITMAP
0000800000
0000C00000
0000C00000
0000C00000
0000C00000
0000C00000
1FFFFFFE00
0FFFFFFC00
0000C00000
0000C00000
0200C06000
0100C0E000
0180C0C000
00C0C0C000
00E0C18000
0060C18000
0060C10000
0060C20000
0000C00000
0000C00000
FFFFFFFFC0
7FFFFFFF80
0060000000
0061000000
0061000600
0060800E00
0060800C00
0060401C00
0060603800
0060203000
0060306000
006018C000
0060090000
00600C0000
0060060000
0060030000
0060038000
006001C000
006000E000
0060007000
0060007800
0060003C00
0060001E00
0060000F80
0060000380
0060000100
0020000000
ENDCHAR
STARTCHAR 4E28
ENCODING 20008
SWIDTH 720 0
DWIDTH 36 0
BBX 2 47 17 -5
BITMAP
80
C0
C0
C0
C0
C0
C0
C0
C0
C0
C0
C0
C0
C0
C0
C0
C0
C0
C0
C0
C0
C0
C0
C0
C0
C0
C0
C0
C0
C0
C0
C0
C0
C0
C0
C0
C0
C0
C0
C0
C0
C0
C0
C0
C0
C0
80
ENDCHAR
STARTCHAR 4E2A
ENCODING 20010
SWIDTH 720 0
DWIDTH 36 0
BBX 33 47 2 -5
BITMAP
0001000000
0003800000
0003800000
0003800000
0007C00000
000E400000
000C200000
001C300000
0018180000
00301C0000
00700E0000
0060070000
00C0038000
018001C000
030000E000
020100F000
0401807800
0801803C00
1001801E00
2001800F80
4001800780
8001800100
0001800000
0001800000
0001800000
0001800000
0001800000
0001800000
0001800000
0001800000
0001800000
0001800000
0001800000
0001800000
0001800000
0001800000
0001800000
0001800000
0001800000
0001800000
0001800000
0001800000
0001800000
0001800000
0001800000
0001800000
0001000000
ENDCHAR
STARTCHAR 4E2B
ENCODING 20011
SWIDTH 720 0
DWIDTH 36 0
BBX 26 46 5 -4
BITMAP
800000C0
400001C0
60000180
30000380
18000300
18000700
0C000600
0E000C00
06000C00
07001800
03003000
03802000
01804000
00008000
00080000
000C0000
000C0000
000C0000
000C0000
000C0000
000C0000
000C0000
000C0000
000C0000
000C0000
000C0000
000C0000
000C0000
000C0000
000C0000
000C0000
000C0000
000C0000
000C0000
000C0000
000C0000
000C0000
000C0000
000C0000
000C0000
000C0000
000C0000
000C0000
000C0000
000C0000
00080000
ENDCHAR
STARTCHAR 4E2C
ENCODING 20012
SWIDTH 740 0
DWIDTH 37 0
BBX 19 47 7 -5
BITMAP
000040
000060
000060
000060
000060
000060
000060
200060
180060
0C0060
060060
030060
018060
01C060
00E060
006060
000060
000060
000060
000060
000060
0000E0
000360
000660
000C60
001860
007060
00E060
03C060
0F8060
3E0060
FC0060
F00060
C00060
000060
000060
000060
000060
000060
000060
000060
000060
000060
000060
000060
000060
000040
ENDCHAR
STARTCHAR 4E2D
ENCODING 20013
SWIDTH 760 0
DWIDTH 38 0
BBX 28 47 5 -5
BITMAP
00040000
00060000
00060000
00060000
00060000
00060000
00060000
00060000
00060000
00060000
00060000
FFFFFFF0
FFFFFFF0
C0060030
C0060030
C0060030
C0060030
C0060030
C0060030
C0060030
C0060030
C0060030
C0060030
C0060030
FFFFFFF0
FFFFFFF0
00060000
00060000
00060000
00060000
00060000
00060000
00060000
00060000
00060000
00060000
00060000
00060000
00060000
00060000
00060000
00060000
00060000
00060000
00060000
00060000
00040000
ENDCHAR
STARTCHAR 4E30
ENCODING 20016
SWIDTH 740 0
DWIDTH 37 0
BBX 33 47 2 -5
BITMAP
0001000000
0001800000
0001800000
0001800000
0001800000
0001800000
0001800000
0001800000
3FFFFFFC00
1FFFFFF800
0001800000
0001800000
0001800000
0001800000
0001800000
0001800000
0001800000
0001800000
07FFFFF000
03FFFFE000
0001800000
0001800000
0001800000
0001800000
0001800000
0001800000
0001800000
0001800000
0001800000
FFFFFFFF80
7FFFFFFF00
0001800000
0001800000
0001800000
0001800000
0001800000
0001800000
0001800000
0001800000
0001800000
0001800000
0001800000
0001800000
0001800000
0001800000
0001800000
0001000000
ENDCHAR
STARTCHAR 4E32
ENCODING 20018
SWIDTH 740 0
DWIDTH 37 0
BBX 29 47 4 -5
BITMAP
00020000
00030000
00030000
00030000
00030000
00030000
00030000
1FFFFFC0
1FFFFFC0
180300C0
180300C0
180300C0
180300C0
180300C0
180300C0
1FFFFFC0
1FFFFFC0
00030000
00030000
00030000
00030000
00030000
FFFFFFF8
FFFFFFF8
C0030018
C0030018
C0030018
C0030018
C0030018
C0030018
C0030018
C0030018
FFFFFFF8
FFFFFFF8
00030000
00030000
00030000
00030000
00030000
00030000
00030000
00030000
00030000
00030000
00030000
00030000
00020000
ENDCHAR
STARTCHAR 4E34
ENCODING 20020
SWIDTH 740 0
DWIDTH 37 0
BBX 31 47 3 -5
BITMAP
0200C000
0300C000
0300C000
0301C000
0301C000
03018000
03018000
0301FFFE
0301FFFE
03030000
03030000
83030000
C3021000
C3060800
C3060C00
C3040600
C3080300
C3080380
C3100180
C31001C0
C32000C0
C3000000
C3000000
C3000000
C307FFFC
C307FFFC
C3060C0C
C3060C0C
C3060C0C
C3060C0C
C3060C0C
C3060C0C
C3060C0C
C3060C0C
C3060C0C
C3060C0C
83060C0C
03060C0C
03060C0C
03060C0C
03060C0C
03060C0C
03060C0C
03060C0C
0307FFFC
0307FFFC
02000000
ENDCHAR
STARTCHAR 4E36
ENCODING 20022
SWIDTH 740 0
DWIDTH 37 0
BBX 9 13 14 15
BITMAP
8000
4000
2000
3000
1800
1C00
0C00
0600
0700
0700
0380
0380
0180
ENDCHAR
STARTCHAR 4E38
ENCODING 20024
SWIDTH 720 0
DWIDTH 36 0
BBX 34 47 1 -5
BITMAP
0010000000
0018000000
0018000000
0018000000
0018000000
0018000000
0018000000
0018000000
0018000000
3FFFFF8000
1FFFFF8000
0018018000
0018018000
0018018000
0018018000
0018018000
0018018000
0018018000
0418018000
0318018000
00D8018000
0078018000
0038018000
003C018000
003E018000
0037018000
0033818000
0031C18000
0070C18000
0060018000
0060018000
0060018000
00C0018000
00C0018000
00C0018000
0180018000
0180018000
0300018000
0300018000
0600018000
0600018100
0C00018100
0800018180
100001C1C0
200000FFC0
4000007F80
8000000000
ENDCHAR
STARTCHAR 4E39
ENCODING 20025
SWIDTH 760 0
DWIDTH 38 0
BBX 34 44 2 -5
BITMAP
00FFFFC000
00FFFFC000
00C000C000
00C000C000
00C000C000
00C000C000
00C200C000
00C100C000
00C180C000
00C0C0C000
00C0C0C000
00C060C000
00C060C000
00C070C000
00C020C000
00C000C000
00C000C000
00C000C000
00C000C000
FFFFFFFFC0
7FFFFFFF80
00C000C000
01C000C000
01C000C000
01C000C000
018000C000
018000C000
018000C000
018000C000
018000C000
010000C000
030000C000
030000C000
030000C000
020000C000
060000C000
060000C000
040000C000
0C0000C000
080000C000
100000C000
100000C000
200000C000
4000008000
ENDCHAR
STARTCHAR 4E3A
ENCODING 20026
SWIDTH 740 0
DWIDTH 37 0
BBX 29 47 3 -5
BITMAP
00100000
20180000
18180000
0C180000
06180000
07180000
03980000
01980000
00180000
00180000
00180000
7FFFFFF8
3FFFFFF8
00180018
00180018
00180018
00180018
00180018
00180018
00180018
00180018
00388018
00304018
00306018
00302018
00303018
00301818
00701818
00601C18
00600C18
00600818
00E00018
00C00018
00C00018
01800018
01800018
01800018
03000018
03000018
06000018
04000018
0C000018
18000018
10000018
20000018
40000018
80000000
ENDCHAR
STARTCHAR 4E3B
ENCODING 20027
SWIDTH 740 0
DWIDTH 37 0
BBX 32 44 3 -2
BITMAP
00040000
00020000
00030000
00018000
00018000
00018000
00000000
1FFFFFF8
0FFFFFF0
00018000
00018000
00018000
00018000
00018000
00018000
00018000
00018000
00018000
00018000
00018000
00018000
00018000
07FFFFE0
03FFFFC0
00018000
00018000
00018000
00018000
00018000
00018000
00018000
00018000
00018000
00018000
00018000
00018000
00018000
00018000
00018000
00018000
00018000
00018000
FFFFFFFF
7FFFFFFE
ENDCHAR
STARTCHAR 4E3D
ENCODING 20029
SWIDTH 740 0
DWIDTH 37 0
BBX 33 44 2 -5
BITMAP
FFFFFFFF80
7FFFFFFF00
0000000000
0000000000
0000000000
0000000000
0000000000
0000000000
0000000000
1FFE3FFC00
1FFE3FFC00
1806300C00
1806300C00
1806300C00
1806300C00
1806300C00
1806300C00
1806300C00
1906320C00
1906320C00
1886310C00
1886310C00
18C6318C00
18C6318C00
18C6318C00
184630CC00
186630CC00
186630CC00
186630CC00
1806300C00
1806300C00
1806300C00
1806300C00
1806300C00
1806300C00
1806300C00
1806300C00
1806300C00
1806300C00
1806300C00
1806300C00
1806300C00
1806300C00
1004300800
ENDCHAR
STARTCHAR 4E3E
ENCODING 20030
SWIDTH 720 0
DWIDTH 36 0
BBX 32 47 2 -5
BITMAP
00040000
00040000
040200C0
060301C0
02010180
03018380
03018300
01818600
01800C00
00000800
FFFFFFFE
7FFFFFFE
00700800
00600400
00E00600
00C10200
01C18300
01818180
030181C0
070180E0
06018070
0C018038
19FFFF9C
30FFFF1E
4001800F
00018006
00018000
00018000
00018000
00018000
00018000
00018000
7FFFFFFE
3FFFFFFC
00018000
00018000
00018000
00018000
00018000
00018000
00018000
00018000
00018000
00018000
00018000
00018000
00010000
ENDCHAR
STARTCHAR 4E3F
ENCODING 20031
SWIDTH 720 0
DWIDTH 36 0
BBX 13 47 6 -4
BITMAP
0010
0018
0018
0018
0018
0018
0018
0018
0018
0018
0018
0018
0018
0018
0018
0018
0018
0018
0018
0018
0018
0018
0018
0018
0018
0038
0030
0030
0030
0030
0070
0060
0060
00E0
00C0
00C0
0180
0180
0300
0300
0600
0400
0C00
1800
3000
4000
8000
ENDCHAR
STARTCHAR 4E43
ENCODING 20035
SWIDTH 740 0
DWIDTH 37 0
BBX 31 44 1 -4
BITMAP
1FFFFFF0
0FFFFFF0
00300070
003000E0
003000E0
003001C0
00300180
00300380
00300700
00300700
00300E00
00300C00
00301C00
00301FFE
00301FFE
00300006
00300006
00300006
00700006
00600006
00600006
00600006
00600006
00600006
00600006
00E00006
00C00006
00C00006
00C00006
01C00006
01800006
01800006
03000006
03000006
03000006
06000006
04000006
0C000006
08000006
18000006
10000006
20000006
40000006
80000000
ENDCHAR
STARTCHAR 4E45
ENCODING 20037
SWIDTH 720 0
DWIDTH 36 0
BBX 33 47 2 -4
BITMAP
0010000000
0018000000
0038000000
0038000000
0030000000
0030000000
0030000000
0070000000
007FFF0000
007FFF0000
0060070000
00C0060000
00C0060000
00C00E0000
01800E0000
01800C0000
01001C0000
03001C0000
0200180000
0600380000
0400300000
0800780000
0800680000
1000E80000
0000CC0000
0001CC0000
0001840000
0003860000
0003060000
0007030000
000E030000
000C038000
001C018000
003801C000
003000C000
006000E000
00E0006000
00C0007000
0180003000
0300003800
0600001C00
0C00001C00
1800000E00
3000000F00
6000000700
8000000380
0000000300
ENDCHAR
STARTCHAR 4E47
ENCODING 20039
SWIDTH 720 0
DWIDTH 36 0
BBX 32 45 2 -3
BITMAP
000000E0
000007E0
00001F80
0000FC00
000FE000
00FF0000
1FC30000
00030000
00030000
00030000
00030000
00030000
00030000
00030000
00030000
00030000
00030006
000300FE
00031FFC
0007FFC0
00FFF800
1FFF0000
FFC30000
78030000
00030000
00030000
00030000
00030000
00030000
00030000
00030000
00030000
00030000
00030000
00030000
00030000
00030000
00030000
00030000
00030004
00030004
00030004
0003C00F
0001FFFF
0000FFFE
ENDCHAR
STARTCHAR 4E48
ENCODING 20040
SWIDTH 740 0
DWIDTH 37 0
BBX 29 46 4 -4
BITMAP
00030000
00070000
00070000
00060000
00060000
000E0000
000C0000
001C0000
001C0000
00180000
00380C00
00301C00
00701C00
00601800
00E03800
00C03000
01C07000
01807000
03006000
0300E000
0600C000
0C01C000
0C018000
18038000
30030000
20070000
40060000
800E0000
000C0400
001C0400
00180200
00300300
00700100
00600180
00C00080
00C000C0
018000C0
03000060
060000E0
040007E0
0800FE30
10FFF030
3FFF0030
3FE00038
00000018
00000018
ENDCHAR
STARTCHAR 4E49
ENCODING 20041
SWIDTH 740 0
DWIDTH 37 0
BBX 33 46 2 -3
BITMAP
0008000000
0006000000
0003000000
0003800000
0001803000
0201C03000
0200E07000
0200E06000
0100606000
0100006000
010000E000
018000C000
008000C000
008001C000
00C0018000
0040018000
0060038000
0020030000
0030030000
0030070000
0018060000
00180E0000
000C0C0000
000E1C0000
0006180000
0007380000
0003B00000
0001F00000
0001E00000
0000E00000
0001F00000
0003F80000
0007380000
00071C0000
000E0E0000
001C070000
0038078000
007003C000
00E001E000
01C000F800
0300003C00
0600001E00
0C00000F80
1000000780
2000000100
C000000000
ENDCHAR
STARTCHAR 4E4B
ENCODING 20043
SWIDTH 720 0
DWIDTH 36 0
BBX 31 46 3 -3
BITMAP
00010000
00018000
00018000
00018000
00018000
00018000
00018000
1FFFFFF0
0FFFFFF0
00000070
000000E0
000000E0
000001C0
00000380
00000700
00000700
00000E00
00001C00
00001C00
00003800
00007000
00007000
0000E000
0001C000
00038000
00038000
00070000
000E0000
000E0000
001C0000
00380000
00380000
00700000
00E00000
01C00000
01C00000
03800000
07000000
07000000
0E000000
1E000000
3B000000
39E00000
70FFFFFE
E03FFFFC
C0000000
ENDCHAR
STARTCHAR 4E4C
ENCODING 20044
SWIDTH 740 0
DWIDTH 37 0
BBX 29 46 2 -4
BITMAP
00030000
00070000
00060000
00040000
000C0000
03FFFF00
03FFFF00
03000300
03000300
03000300
03000300
03000300
03000300
03000300
03000300
03000300
03000300
03000300
03000000
03000000
03000000
03FFFFF8
03FFFFF8
00000018
00000018
00000018
00000018
00000018
00000018
00000018
00000018
FFFFFF18
7FFFFE18
00000018
00000018
00000018
00000018
00000018
00000018
00000018
00000018
00000018
00000018
00000018
00000018
00000010
ENDCHAR
STARTCHAR 4E4D
ENCODING 20045
SWIDTH 740 0
DWIDTH 37 0
BBX 33 47 2 -4
BITMAP
0030000000
0070000000
0070000000
0060000000
00E0000000
00E0000000
00C0000000
01FFFFFF80
01FFFFFF00
0383000000
0303000000
0603000000
0603000000
0C03000000
1803000000
1003000000
2003000000
4003FFFC00
8003FFF800
0003000000
0003000000
0003000000
0003000000
0003000000
0003000000
0003000000
0003000000
0003000000
0003FFFF00
0003FFFE00
0003000000
0003000000
0003000000
0003000000
0003000000
0003000000
0003000000
0003000000
0003000000
0003000000
0003000000
0003000000
0003000000
0003000000
0003000000
0003000000
0002000000
ENDCHAR
STARTCHAR 4E4E
ENCODING 20046
SWIDTH 740 0
DWIDTH 37 0
BBX 33 47 2 -5
BITMAP
0000003000
000001F000
00003FC000
000FFE0000
1FFFC00000
0000C00000
0000C00000
0000C00000
0800C03000
0400C07000
0600C06000
0300C0E000
0180C0C000
01C0C18000
00C0C18000
00E0C30000
0060C20000
0000C40000
0000C00000
0000C00000
0000C00000
FFFFFFFF80
7FFFFFFF00
0000C00000
0000C00000
0000C00000
0000C00000
0000C00000
0000C00000
0000C00000
0000C00000
0000C00000
0000C00000
0000C00000
0000C00000
0000C00000
0000C00000
0000C00000
0000C00000
0000C00000
0000C00000
0000C00000
0000C00000
0000C00000
0000C00000
0000C00000
0000800000
ENDCHAR
STARTCHAR 4E4F
ENCODING 20047
SWIDTH 740 0
DWIDTH 37 0
BBX 32 46 3 -3
BITMAP
00000030
000001F0
00001FE0
0001FF00
001FF000
1FF80000
00000000
00010000
00018000
00018000
00018000
00018000
00018000
00018000
0FFFFFF0
07FFFFF0
00000070
000000E0
000001C0
00000380
00000700
00000F00
00000E00
00001C00
00003800
00007000
0000E000
0001C000
00038000
00070000
00070000
000E0000
001C0000
00380000
00700000
00E00000
01C00000
03800000
03800000
07000000
0F000000
1D800000
38F00000
707FFFFF
E01FFFFE
C0000000
ENDCHAR
STARTCHAR 4E50
ENCODING 20048
SWIDTH 720 0
DWIDTH 36 0
BBX 32 47 2 -4
BITMAP
000000C0
000003C0
00001F80
0001FC00
001FE000
07FC0000
06000000
06000000
06000000
06008000
0600C000
0600C000
0600C000
0600C000
0600C000
0600C000
0600C000
0600C000
0600C000
0600C000
07FFFFFE
07FFFFFC
0000C000
0000C000
0000C000
0000C000
0060C000
00E0C100
00E0C080
00C0C0C0
01C0C040
01C0C060
0180C030
0380C030
0300C018
0700C01C
0600C00C
0E00C00E
0C00C006
1800C006
1000C003
3000C003
6000C000
4000C000
8000C000
0000C000
00008000
ENDCHAR
STARTCHAR 4E52
ENCODING 20050
SWIDTH 740 0
DWIDTH 37 0
BBX 33 46 2 -3
BITMAP
0000007000
000003F000
00001F8000
0001F80000
007F000000
00C0000000
00C0000000
00C0000000
00C0000000
00C0000000
00C0000000
00C0000000
00C0000000
00FFFFFC00
00FFFFFC00
00C0060000
00C0060000
00C0060000
00C0060000
00C0060000
00C0060000
00C0060000
00C0060000
00C0060000
00C0060000
00C0060000
00C0060000
00C0060000
FFFFFFFF80
7FFFFFFF00
0000000000
0000000000
0018000000
0018000000
0038000000
0030000000
0060000000
00E0000000
00C0000000
0180000000
0300000000
0600000000
0C00000000
1800000000
3000000000
4000000000
ENDCHAR
STARTCHAR 4E53
ENCODING 20051
SWIDTH 740 0
DWIDTH 37 0
BBX 33 46 2 -3
BITMAP
0000007000
000003F000
00001F8000
0001F80000
007F000000
00C0000000
00C0000000
00C0000000
00C0000000
00C0000000
00C0000000
00C0000000
00C0000000
00FFFFFC00
00FFFFFC00
00C0060000
00C0060000
00C0060000
00C0060000
00C0060000
00C0060000
00C0060000
00C0060000
00C0060000
00C0060000
00C0060000
00C0060000
00C0060000
FFFFFFFF80
7FFFFFFF00
0000000000
0000000000
0000080000
0000040000
0000030000
0000018000
000000C000
000000C000
0000006000
0000003000
0000003800
0000001800
0000000C00
0000000E00
0000000600
0000000600
ENDCHAR
STARTCHAR 4E54
ENCODING 20052
SWIDTH 740 0
DWIDTH 37 0
BBX 35 46 1 -4
BITMAP
0000001800
000001F800
00001FE000
0007FF0000
0FFFC00000
0000C00000
0000C00000
0000C00000
0001C00000
0001800000
0001800000
0003800000
0003800000
3FFFFFFF80
1FFFFFFF00
00060C0000
000E040000
000C060000
001C030000
0038038000
003001C000
006000F000
00E0007800
01C0003C00
0398021F00
0618030FC0
0C180307E0
18180301C0
20180300C0
C018030000
0018030000
0018030000
0018030000
0030030000
0030030000
0030030000
0030030000
0020030000
0060030000
0060030000
00C0030000
0080030000
0180030000
0100030000
0200030000
0400020000
ENDCHAR
STARTCHAR 4E56
ENCODING 20054
SWIDTH 740 0
DWIDTH 37 0
BBX 32 46 2 -5
BITMAP
00000060
000003E0
00003FC0
000FFC00
3FFF8000
00018000
00018000
00018000
00018000
00018000
00018000
FFFFFFFF
7FFFFFFE
00018000
00018000
00018000
00818400
00C18600
00C18600
00C18604
00C1860E
7FC1861E
7FC18638
00C18670
00C187C0
00C18700
00C18600
00C18600
00C18600
03C18600
3EC18604
F8C18604
E0C1870C
00C183FF
00C183FF
00818000
00018000
00018000
00018000
00018000
00018000
00018000
00018000
00018000
00018000
00010000
ENDCHAR
STARTCHAR 4E58
ENCODING 20056
SWIDTH 720 0
DWIDTH 36 0
BBX 34 46 1 -4
BITMAP
0000003000
000001F000
00001FE000
0007FE0000
1FFFC00000
0000C00000
0000C00000
0000C00000
0000C00000
0000C00000
7FFFFFFF80
3FFFFFFF00
0000C00000
0000C00000
0040C30000
0060C30300
0060C30700
3FE0C30E00
3FE0C31C00
0060C33000
0060C3E000
0060C30000
0060E30000
01E1E30400
0F61E30200
7C63D38200
7063D38780
0067D9FF80
004ECCFF00
000ECC0000
001CC60000
0018C30000
0030C30000
0070C18000
00E0C1C000
00C0C0E000
0180C07000
0300C03800
0600C01C00
0C00C01E00
1800C00F00
3000C007C0
4000C001C0
8000C00080
0000C00000
0000800000
ENDCHAR
STARTCHAR 4E59
ENCODING 20057
SWIDTH 740 0
DWIDTH 37 0
BBX 29 42 6 -4
BITMAP
7FFFFF00
3FFFFF00
00000700
00000E00
00000E00
00001C00
00001800
00003800
00007000
00006000
0000E000
0001C000
00018000
00038000
00030000
00070000
000E0000
000C0000
001C0000
00380000
00300000
00700000
00600000
00E00000
01C00000
01800000
03800000
07000000
06000000
0E000000
0C000000
18000000
38000000
30000000
70000000
60000000
C0000000
C0000020
C0000010
E0000030
7FFFFFF8
3FFFFFF8
ENDCHAR
STARTCHAR 4E5C
ENCODING 20060
SWIDTH 740 0
DWIDTH 37 0
BBX 33 46 2 -4
BITMAP
0080000000
00C0000000
00C0000000
00C0000000
00C0000000
00C0000000
00C0000000
00C0002000
00C001E000
00C007E000
00C01FE000
00C0FE6000
00C3F06000
00CFC06000
00FE006000
01F8006000
07E0006000
3FC0006000
FCC0006000
70C0006000
00C0006000
00C0006000
00C0006000
00C0006000
00C0006000
00C0006000
00C0006000
00C0006000
00C0006000
00C0006000
00C0004000
00C0000000
00C0000000
00C0000000
00C0000000
00C0000000
00C0000000
00C0000000
00C0000000
00C0000000
00C0000200
00C0000200
00C0000300
00E0000780
007FFFFF80
003FFFFF00
ENDCHAR
STARTCHAR 4E5D
ENCODING 20061
SWIDTH 720 0
DWIDTH 36 0
BBX 34 47 1 -5
BITMAP
0020000000
0030000000
0030000000
0030000000
0030000000
0030000000
0030000000
0030000000
0030000000
0030000000
3FFFFF0000
1FFFFF0000
0030030000
0030030000
0030030000
0030030000
0030030000
0030030000
0030030000
0030030000
0030030000
0030030000
0070030000
0060030000
0060030000
0060030000
0060030000
0060030000
00E0030000
00C0030000
00C0030000
00C0030000
01C0030000
0180030000
0180030000
0380030000
0300030000
0300030000
0600030000
0600030000
0C00030100
0C00030100
1800030100
1000038380
200001FFC0
400000FF80
8000000000
ENDCHAR
STARTCHAR 4E5E
ENCODING 20062
SWIDTH 740 0
DWIDTH 37 0
BBX 34 45 1 -3
BITMAP
0060000000
0060000000
00E0000000
00C0000000
00C0000000
00C0000000
01FFFFFF00
01FFFFFE00
0180000000
0300000000
0300000000
0600000000
0600000000
0C00000000
1800000000
1000000000
21FFFFC000
41FFFFC000
800001C000
0000038000
0000070000
00000F0000
00001E0000
00001C0000
0000380000
0000700000
0000E00000
0001C00000
0001C00000
0003800000
0007000000
000E000000
001C000000
0018000000
0038000000
0070000000
00E0000000
01C0000000
0180000000
0300000100
0300000100
0300000100
0380000180
01FFFFFFC0
00FFFFFFC0
ENDCHAR
STARTCHAR 4E5F
ENCODING 20063
SWIDTH 720 0
DWIDTH 36 0
BBX 34 46 1 -3
BITMAP
0000400000
0000600000
0000600000
0000600000
0000600000
0100600000
0180600000
0180601000
0180607000
018061F000
018067F000
01807F3000
0180FC3000
0183F03000
019FE03000
01FE603000
01F8603000
07E0603000
3F80603000
FD80603000
7180603000
0180603000
0180603000
0180603000
0180603000
0180603000
0180603000
0180603000
0180603000
0180603000
0180602000
0180600000
0180600000
0180600000
0180400000
0180000000
0180000000
0180000000
0180000000
0180000000
0180000100
0180000100
0180000100
01C00003C0
00FFFFFFC0
007FFFFF80
ENDCHAR
STARTCHAR 4E60
ENCODING 20064
SWIDTH 740 0
DWIDTH 37 0
BBX 25 43 5 -4
BITMAP
7FFFFF80
7FFFFF80
00000180
00000180
00000180
00000180
08000180
04000180
03000180
01800180
00C00180
00E00180
00600180
00300180
00380180
00180180
001C0180
000C0180
00001180
00002180
00004180
00008180
00038180
00070180
000E0180
001C0180
00780180
00E00180
03C00180
07800180
1F000180
3C000180
F0000180
E0000180
00000180
00000180
00000180
00000180
00000180
00000180
00000180
00000180
00000100
ENDCHAR
STARTCHAR 4E61
ENCODING 20065
SWIDTH 720 0
DWIDTH 36 0
BBX 29 47 3 -5
BITMAP
00030000
00070000
00070000
00060000
000E0000
000C0000
00180000
00180300
00300700
00600600
00400E00
00C00C00
01801C00
03003800
02003000
0407F000
0FFFE000
0FE1C000
00038000
00030018
00060038
000C0038
00180030
00300070
00600060
00C000E0
018001C0
030003C0
0601FF80
0FFFF300
0FFC0700
00000E00
00001C00
00003800
00003000
00006000
0000E000
00018000
00070000
000E0000
001C0000
00700000
00E00000
03800000
06000000
18000000
E0000000
ENDCHAR
STARTCHAR 4E66
ENCODING 20070
SWIDTH 720 0
DWIDTH 36 0
BBX 30 47 2 -4
BITMAP
00080000
000C0200
000C0100
000C0080
000C00C0
000C0060
000C0030
000C0038
0FFFFF1C
0FFFFF1C
000C0300
000C0300
000C0300
000C0300
000C0300
000C0300
000C0300
000C0300
000C0300
000C0300
000C0300
000C0300
FFFFFFFC
7FFFFFFC
000C000C
000C000C
000C000C
000C000C
000C000C
000C000C
000C000C
000C000C
000C000C
000C000C
000C000C
000C000C
000C000C
000C000C
000C000C
000C000C
000C000C
000C000C
000C0008
000C0000
000C0000
000C0000
00080000
ENDCHAR
STARTCHAR 4E69
ENCODING 20073
SWIDTH 740 0
DWIDTH 37 0
BBX 33 46 3 -3
BITMAP
0200100000
0300180000
0300180000
0300180000
0300180000
0300180000
0300180000
0300180000
0300180000
0300180000
03FFD80000
03FF980000
0300180000
0300180000
0300180000
0300180000
0300180000
0300180000
0300180000
0300180000
0300180000
0300180000
0300180000
FFFE180000
FFFE180000
C006180000
C006180000
C006180000
C006180000
C006180000
C006180000
C006180000
C006180000
C006180000
C006180000
C006180000
C006180000
C006180000
C006180000
C006180000
C006180200
C006180200
C006180200
FFFE1C0780
FFFE0FFF80
000007FF00
ENDCHAR
STARTCHAR 4E70
ENCODING 20080
SWIDTH 740 0
DWIDTH 37 0
BBX 32 43 2 -5
BITMAP
0FFFFFF8
0FFFFFF8
00000018
00000018
02002018
01003018
00C03018
00603018
00703018
00383010
00183000
0C1C3000
060C3000
03003000
01803000
01803000
00C03000
00E03000
00603000
00007000
00007000
00006000
7FFFFFFF
3FFFFFFE
0000E000
0001C000
0001C000
0003C000
0003E000
00073000
00071C00
000E0600
000C0300
001C0180
003800C0
00700060
00E00070
01C00038
0300001C
0600000E
1C000007
30000003
C0000000
ENDCHAR
STARTCHAR 4E71
ENCODING 20081
SWIDTH 720 0
DWIDTH 36 0
BBX 34 46 1 -3
BITMAP
0000020000
0000030000
0003830000
000F830000
007E030000
03F0030000
3F60030000
0060030000
0060030000
0060030000
0060030000
0060030000
0060030000
0060030000
0060030000
FFFFF30000
7FFFE30000
0060030000
0060030000
0060030000
0060030000
0060030000
0060030000
0060030000
0060030000
1FFF830000
1FFF830000
1801830000
1801830000
1801830000
1801830000
1801830000
1801830000
1801830000
1801830000
1801830000
1801830000
1801830000
1801830000
1801830000
1801830100
1801830100
1801830100
1FFF8381C0
1FFF81FFC0
000000FF80
ENDCHAR
STARTCHAR 4E73
ENCODING 20083
SWIDTH 740 0
DWIDTH 37 0
BBX 34 47 1 -5
BITMAP
0000020000
0000E30000
0003E30000
003F830000
03FC030000
7FC0630000
0000630000
0080E30000
40C0C30000
2040C30000
3061830000
1871030000
1873030000
1C32030000
0C04030000
0000030000
0000030000
3FFF830000
1FFF830000
0003830000
0007030000
000E030000
000C030000
001C030000
0038130000
0070630000
0061830000
006E030000
0078030000
03E0030000
7FE0030000
FE60030000
E060030000
0060030000
0060030000
0060030000
0060030000
0060030000
0060030000
0060030000
0060030100
0060030080
0060030080
00600381C0
006001FFC0
006000FFC0
0040000000
ENDCHAR
STARTCHAR 4E7E
ENCODING 20094
SWIDTH 740 0
DWIDTH 37 0
BBX 35 45 1 -3
BITMAP
0040038000
0060030000
0060030000
0060070000
0060070000
0060060000
7FFFC60000
3FFF8FFFC0
00600FFF80
0060080000
0060180000
0060100000
0060200000
1FFF200000
1FFF400000
1803000000
18031FFE00
18030FFE00
1803000E00
1FFF000E00
1FFF001C00
1803001C00
1803003800
1803003800
1803007000
1FFF007000
1FFF00E000
006000E000
006001C000
006001C000
0060038000
0060038000
FFFFE70000
7FFFC70000
00600E0000
00600E0000
00601E0000
00601C0000
00601C0000
0060180080
0060180080
0060180080
00601C01C0
00601FFFE0
006007FFC0
ENDCHAR
STARTCHAR 4E86
ENCODING 20102
SWIDTH 720 0
DWIDTH 36 0
BBX 25 43 5 -4
BITMAP
FFFFFF80
7FFFFF80
00000380
00000700
00000E00
00001C00
00003800
00007000
0000F000
0000E000
0001C000
00038000
00070000
00060000
00060000
00060000
00060000
00060000
00060000
00060000
00060000
00060000
00060000
00060000
00060000
00060000
00060000
00060000
00060000
00060000
00060000
00060000
00060000
00060000
00060000
00060000
00060000
00060000
00060000
00060000
00060000
00060000
00040000
ENDCHAR
STARTCHAR 4E88
ENCODING 20104
SWIDTH 740 0
DWIDTH 37 0
BBX 31 44 2 -5
BITMAP
0FFFFFF0
07FFFFF0
000000F0
000001C0
00000380
00000700
00000E00
00201C00
00183800
000E6000
0007C000
00038000
0001C000
0000E000
00006000
FFFFFFFE
7FFFFFFE
0000C006
0000C006
0000C006
0000C006
0000C006
0000C006
0000C006
0000C004
0000C000
0000C000
0000C000
0000C000
0000C000
0000C000
0000C000
0000C000
0000C000
0000C000
0000C000
0000C000
0000C000
0000C000
0000C000
0000C000
0000C000
0000C000
00008000
ENDCHAR
STARTCHAR 4E89
ENCODING 20105
SWIDTH 760 0
DWIDTH 38 0
BBX 34 47 2 -4
BITMAP
0020000000
0070000000
0070000000
0060000000
00FFFE0000
00FFFE0000
01800E0000
01000C0000
0300180000
0600180000
0400300000
0800300000
1000600000
27FFFFF000
03FFFFF000
0001803000
0001803000
0001803000
0001803000
0001803000
0001803000
0001803000
FFFFFFFFC0
7FFFFFFF80
0001803000
0001803000
0001803000
0001803000
0001803000
0001803000
0FFFFFF000
07FFFFF000
0001800000
0001800000
0001800000
0001800000
0001800000
0001800000
0001800000
0001800000
0001800000
0001800000
0001800000
0001800000
0001800000
0001800000
0001000000
ENDCHAR
STARTCHAR 4E8B
ENCODING 20107
SWIDTH 740 0
DWIDTH 37 0
BBX 35 47 1 -5
BITMAP
0000800000
0000C00000
0000C00000
3FFFFFFF00
1FFFFFFE00
0000C00000
0000C00000
0000C00000
0000C00000
0000C00000
03FFFFE000
03FFFFE000
0300C06000
0300C06000
0300C06000
0300C06000
03FFFFE000
03FFFFE000
0000C00000
0000C00000
0000C00000
0000C00000
07FFFFF000
07FFFFF000
0000C03000
0000C03000
0000C03000
0000C03000
0000C03000
FFFFFFFFE0
7FFFFFFFC0
0000C03000
0000C03000
0000C03000
0000C03000
0000C03000
0FFFFFF000
0FFFFFF000
0000C00000
0000C00000
0000C00000
0000C00000
0000C00000
0000C00000
0000C00000
0000C00000
0000800000
ENDCHAR
STARTCHAR 4E8C
ENCODING 20108
SWIDTH 740 0
DWIDTH 37 0
BBX 33 37 2 0
BITMAP
0FFFFFF800
07FFFFF000
0000000000
0000000000
0000000000
0000000000
0000000000
0000000000
0000000000
0000000000
0000000000
0000000000
0000000000
0000000000
0000000000
0000000000
0000000000
0000000000
0000000000
0000000000
0000000000
0000000000
0000000000
0000000000
0000000000
0000000000
0000000000
0000000000
0000000000
0000000000
0000000000
0000000000
0000000000
0000000000
0000000000
FFFFFFFF80
7FFFFFFF00
ENDCHAR
STARTCHAR 4E8D
ENCODING 20109
SWIDTH 720 0
DWIDTH 36 0
BBX 34 44 1 -5
BITMAP
07FFFFFC00
03FFFFF800
0000000000
0000000000
0000000000
0000000000
0000000000
0000000000
0000000000
0000000000
0000000000
0000000000
0000000000
FFFFFFFFC0
7FFFFFFF80
0000C00000
0000C00000
0000C00000
0000C00000
0000C00000
0000C00000
0000C00000
0000C00000
0000C00000
0000C00000
0000C00000
0000C00000
0000C00000
0000C00000
0000C00000
0000C00000
0000C00000
0000C00000
0000C00000
0000C00000
0000C00000
0000C00000
0000C00000
0000C00000
0000C00000
0000C00000
0000C00000
0000C00000
0000800000
ENDCHAR
STARTCHAR 4E8E
ENCODING 20110
SWIDTH 740 0
DWIDTH 37 0
BBX 31 43 3 -5
BITMAP
0FFFFFE0
07FFFFC0
00018000
00018000
00018000
00018000
00018000
00018000
00018000
00018000
00018000
00018000
00018000
00018000
00018000
FFFFFFFE
7FFFFFFC
00018000
00018000
00018000
00018000
00018000
00018000
00018000
00018000
00018000
00018000
00018000
00018000
00018000
00018000
00018000
00018000
00018000
00018000
00018000
00018000
00018000
00018000
00018000
000F8000
00038000
00010000
ENDCHAR
STARTCHAR 4E8F
ENCODING 20111
SWIDTH 740 0
DWIDTH 37 0
BBX 33 43 2 -4
BITMAP
0FFFFFF800
07FFFFF000
0000000000
0000000000
0000000000
0000000000
0000000000
0000000000
0000000000
0000000000
0000000000
FFFFFFFF80
7FFFFFFF00
00C0000000
00C0000000
00C0000000
00C0000000
00C0000000
00C0000000
00C0000000
00C0000000
00FFFFE000
00FFFFE000
0000006000
0000006000
0000006000
0000006000
0000006000
0000006000
0000006000
0000006000
0000006000
0000006000
0000006000
0000006000
0000006000
0000006000
0000006000
0000006000
0000006000
0000006000
0000006000
0000004000
ENDCHAR
STARTCHAR 4E91
ENCODING 20113
SWIDTH 740 0
DWIDTH 37 0
BBX 31 44 3 -5
BITMAP
0FFFFFC0
07FFFF80
00000000
00000000
00000000
00000000
00000000
00000000
00000000
00000000
00000000
00000000
00000000
00000000
00000000
00000000
FFFFFFFE
7FFFFFFC
000C0000
000C0000
001C0000
00180000
00180000
00380000
00300000
00300000
00700000
00600800
00600800
00C00400
00C00600
01800200
01800300
03000100
03000180
06000180
060000C0
0C0003C0
08003FE0
180FF860
3FFFC060
3FF80070
00000070
00000030
ENDCHAR
STARTCHAR 4E92
ENCODING 20114
SWIDTH 760 0
DWIDTH 38 0
BBX 34 41 2 -3
BITMAP
7FFFFFFF00
3FFFFFFE00
00C0000000
00C0000000
00C0000000
00C0000000
00C0000000
00C0000000
00C0000000
00C0000000
00FFFF8000
00FFFF8000
00C0018000
00C0018000
00C0018000
00C0018000
00C0018000
00C0018000
00C0018000
00C0018000
00C0018000
00C0018000
00C0018000
00C0018000
00C0018000
00C0018000
00FFFF8000
00FFFF8000
0000018000
0000018000
0000018000
0000018000
0000018000
0000018000
0000018000
0000018000
0000018000
0000018000
0000018000
FFFFFFFFC0
7FFFFFFF80
ENDCHAR
STARTCHAR 4E93
ENCODING 20115
SWIDTH 720 0
DWIDTH 36 0
BBX 33 44 1 -4
BITMAP
0FFFFFF800
07FFFFF000
0000000000
0000000000
0000000000
0000000000
0000000000
0000000000
0000000000
0000000000
0000000000
0000000000
0000000000
FFFFFFFF80
7FFFFFFF00
0060030000
0060030000
0060030000
0060030000
0060030000
0060030000
0060030000
0060030000
00E0030000
00C0030000
00C0030000
00C0030000
00C0030000
00C0030000
0180030000
0180030000
0180030000
0180030000
0300030000
0300030000
0600030000
0600030000
0C00030000
0C00030000
1800030000
1000030000
2000030000
4000030000
8000000000
ENDCHAR
STARTCHAR 4E94
ENCODING 20116
SWIDTH 740 0
DWIDTH 37 0
BBX 33 41 2 -3
BITMAP
3FFFFFFE00
1FFFFFFC00
0003000000
0003000000
0003000000
0007000000
0007000000
0007000000
0006000000
0006000000
0006000000
0006000000
0006000000
0006000000
07FFFFC000
03FFFFC000
000E00C000
000E00C000
000C00C000
000C00C000
000C00C000
000C00C000
000C00C000
000C00C000
001C00C000
001C00C000
001C00C000
001C00C000
001800C000
001800C000
001800C000
001800C000
001800C000
001800C000
003800C000
003800C000
003800C000
003800C000
003000C000
FFFFFFFF80
7FFFFFFF00
ENDCHAR
STARTCHAR 4E95
ENCODING 20117
SWIDTH 740 0
DWIDTH 37 0
BBX 34 46 1 -5
BITMAP
0020020000
0030030000
0030030000
0030030000
0030030000
0030030000
0030030000
0030030000
0030030000
0030030000
1FFFFFFE00
0FFFFFFC00
0030030000
0030030000
0030030000
0030030000
0030030000
0030030000
0030030000
0030030000
0030030000
0030030000
0030030000
0030030000
FFFFFFFFC0
7FFFFFFF80
0060030000
0060030000
0060030000
0060030000
0060030000
0060030000
00C0030000
00C0030000
00C0030000
0180030000
0180030000
0300030000
0300030000
0600030000
0400030000
0C00030000
1800030000
1000030000
2000030000
4000020000
ENDCHAR
STARTCHAR 4E98
ENCODING 20120
SWIDTH 760 0
DWIDTH 38 0
BBX 34 42 2 -2
BITMAP
3FFFFFFE00
1FFFFFFC00
0000000000
0000000000
0000000000
0000000000
0000000000
0000000000
0000000000
01FFFFC000
01FFFFC000
018000C000
018000C000
018000C000
018000C000
018000C000
018000C000
018000C000
018000C000
018000C000
01FFFFC000
01FFFFC000
018000C000
018000C000
018000C000
018000C000
018000C000
018000C000
018000C000
018000C000
018000C000
01FFFFC000
01FFFFC000
0000000000
0000000000
0000000000
0000000000
0000000000
0000000000
0000000000
FFFFFFFFC0
7FFFFFFF80
ENDCHAR
STARTCHAR 4E9A
ENCODING 20122
SWIDTH 740 0
DWIDTH 37 0
BBX 31 41 3 -3
BITMAP
3FFFFFF0
1FFFFFE0
00183000
00183000
00183000
00183000
00183000
00183000
00183000
00183030
20183030
20183030
10183030
10183070
18183060
08183060
0C183060
0C183060
06183060
061830C0
061830C0
061830C0
07183080
03183180
03183100
03183100
03983200
03983200
01983400
01183400
00183000
00183000
00183000
00183000
00183000
00183000
00183000
00183000
00183000
FFFFFFFE
7FFFFFFC
ENDCHAR
STARTCHAR 4E9B
ENCODING 20123
SWIDTH 720 0
DWIDTH 36 0
BBX 32 45 2 -2
BITMAP
00301800
00301800
00301800
00301800
00301800
0C301804
0C30180E
0C30181C
0C301838
0C3F98E0
0C3F1980
0C301B00
0C301C00
0C301800
0C301800
0C301800
0C301800
0C301800
0C301800
0C301800
0C301800
0C301800
0C301804
0C30D804
0C371C06
0C7C1FFF
0FF00FFF
7FC00000
FE000000
F0000000
00000000
00000000
00000000
00000000
07FFFFE0
03FFFFC0
00000000
00000000
00000000
00000000
00000000
00000000
00000000
FFFFFFFF
7FFFFFFE
ENDCHAR
STARTCHAR 4E9F
ENCODING 20127
SWIDTH 760 0
DWIDTH 38 0
BBX 34 44 2 -3
BITMAP
03FFFFC000
01FFFFC000
0000038000
0000070000
00000E0000
00001C0000
0000380000
0000F00000
0000E00000
0000C00000
1FF0C00000
1FF0CFFC00
1830C7FC00
1830C00C00
1830C01C00
1830C01C00
1830C81800
1830C41800
1830C61800
1830C31800
1830C1B000
1830C1B000
1830C0F000
1830C07000
1830C06000
1830C07000
1830C0F800
1830C0D800
1830C19C00
1830C18C00
1830C30E00
1FF0C20600
1FF0C60600
0000CC0300
0000C80300
0000D00000
0000C00000
0000C00000
0000C00000
0000800000
0000000000
0000000000
FFFFFFFFC0
7FFFFFFF80
ENDCHAR
STARTCHAR 4EA0
ENCODING 20128
SWIDTH 740 0
DWIDTH 37 0
BBX 35 11 1 32
BITMAP
0000C00000
0000C00000
0000C00000
0000C00000
0000C00000
0000C00000
0000C00000
0000C00000
0000C00000
FFFFFFFFE0
7FFFFFFFC0
ENDCHAR
STARTCHAR 4EA1
ENCODING 20129
SWIDTH 740 0
DWIDTH 37 0
BBX 33 46 2 -3
BITMAP
0000800000
0000C00000
0000C00000
0000C00000
0000C00000
0000C00000
0000C00000
0000C00000
0000C00000
FFFFFFFF80
7FFFFFFF00
00C0000000
00C0000000
00C0000000
00C0000000
00C0000000
00C0000000
00C0000000
00C0000000
00C0000000
00C0000000
00C0000000
00C0000000
00C0000000
00C0000000
00C0000000
00C0000000
00C0000000
00C0000000
00C0000000
00C0000000
00C0000000
00C0000000
00C0000000
00C0000000
00C0000000
00C0000000
00C0000000
00C0000000
00C0000000
00C0000000
00C0000000
00C0000000
00C0000000
00FFFFFE00
00FFFFFC00
ENDCHAR
STARTCHAR 4EA2
ENCODING 20130
SWIDTH 740 0
DWIDTH 37 0
BBX 32 47 3 -5
BITMAP
00010000
00018000
00018000
00018000
00018000
00018000
FFFFFFFE
7FFFFFFC
00000000
00000000
00000000
00000000
00000000
00000000
00000000
00FFFE00
00FFFE00
00C00600
00C00600
00C00600
00C00600
00C00600
00C00600
00C00600
00C00600
00C00600
00C00600
00C00600
00C00600
00C00600
01C00600
01800600
01800600
01800600
01800600
01800600
03000600
03000600
03000600
02000600
06000604
04000604
0C000604
08000706
180007FF
100003FE
20000000
ENDCHAR
STARTCHAR 4EA4
ENCODING 20132
SWIDTH 740 0
DWIDTH 37 0
BBX 33 46 2 -3
BITMAP
0001800000
0001800000
0001800000
0001800000
0001800000
FFFFFFFF80
7FFFFFFF00
0000000000
0000000000
0030040000
0070020000
0060010000
00E0018000
00C000C000
0180006000
0180007000
0300003800
0420063800
0820061C00
10200E0C00
00100C0000
00101C0000
0008180000
0008380000
0004700000
0006600000
0002E00000
0003C00000
0003800000
0001800000
0003C00000
0007C00000
0006600000
000C700000
001C380000
00181C0000
00300E0000
0060070000
00C0038000
018001E000
030000F000
0200007800
0400003E00
0800001F80
3000000700
0000000300
ENDCHAR
STARTCHAR 4EA5
ENCODING 20133
SWIDTH 740 0
DWIDTH 37 0
BBX 33 46 2 -4
BITMAP
0000C00000
0000C00000
0000C00000
0000C00000
0000C00000
7FFFFFFF80
3FFFFFFF00
000E000000
000C000000
001C000000
0018030000
0038070000
0030070000
00600E0000
00C00E0000
01801C0000
01001C0000
0203F80000
07FFB80000
07F8703000
0000E07000
0000E06000
0001C0E000
000380C000
000701C000
000E038000
000C038000
0018070000
00300E0000
00E00E0000
01C01C0000
0380380000
06007C0000
1800E60000
2001C30000
C003818000
000700C000
000E006000
001C003000
0038003800
00E0001C00
01C0000E00
0700000600
0C00000700
3000000300
C000000000
ENDCHAR
STARTCHAR 4EA6
ENCODING 20134
SWIDTH 760 0
DWIDTH 38 0
BBX 34 46 2 -4
BITMAP
0000C00000
0000C00000
0000C00000
0000C00000
0000C00000
0000C00000
7FFFFFFFC0
3FFFFFFF80
000C030000
000C030000
000C030000
000C030000
000C030000
000C030000
000C030000
000C030000
000C030000
030C030000
030C031000
070C030800
060C030C00
060C030400
060C030600
0C0C030300
0C1C030300
0818030380
1818030180
10180301C0
30180300C0
20180300C0
4038030000
8030030000
0030030000
0030030000
0060030000
0060030000
00E0030000
00C0030000
00C0030000
0180030000
0300030000
0200030000
0600030000
0C00030000
0800030000
1000020000
ENDCHAR
STARTCHAR 4EA7
ENCODING 20135
SWIDTH 740 0
DWIDTH 37 0
BBX 33 47 2 -4
BITMAP
0000600000
0000600000
0000600000
0000600000
0000600000
0FFFFFFF80
07FFFFFF00
0000000000
0000000000
002000C000
001000C000
0018018000
000C018000
000C030000
0006030000
0006060000
0000040000
0000000000
03FFFFFF80
03FFFFFF00
0300000000
0300000000
0300000000
0300000000
0300000000
0300000000
0300000000
0300000000
0300000000
0300000000
0300000000
0700000000
0700000000
0600000000
0600000000
0600000000
0E00000000
0C00000000
0C00000000
0800000000
1800000000
1000000000
3000000000
2000000000
6000000000
4000000000
8000000000
ENDCHAR
STARTCHAR 4EA8
ENCODING 20136
SWIDTH 720 0
DWIDTH 36 0
BBX 32 45 2 -3
BITMAP
00018000
00018000
00018000
00018000
FFFFFFFF
7FFFFFFE
00000000
00000000
00000000
01FFFF80
01FFFF80
01800180
01800180
01800180
01800180
01800180
01FFFF80
01FFFF80
00000000
00000000
00000000
07FFFFE0
03FFFFE0
000001E0
00000380
00000F00
00001C00
00003800
0000F000
0001C000
00018000
00018000
00018000
00018000
00018000
00018000
00018000
00018000
00018000
00018000
00018000
00018000
00018000
00018000
00018000
ENDCHAR
STARTCHAR 4EA9
ENCODING 20137
SWIDTH 720 0
DWIDTH 36 0
BBX 32 45 2 -2
BITMAP
00018000
00018000
00018000
00018000
00018000
FFFFFFFF
7FFFFFFE
00000000
00000000
00000000
00000000
00000000
00000000
00000000
07FFFFE0
07FFFFE0
06018060
06018060
06018060
06018060
06018060
06018060
06018060
06018060
06018060
06018060
06018060
06018060
07FFFFE0
07FFFFE0
06018060
06018060
06018060
06018060
06018060
06018060
06018060
06018060
06018060
06018060
06018060
06018060
06018060
07FFFFE0
07FFFFE0
ENDCHAR
STARTCHAR 4EAB
ENCODING 20139
SWIDTH 740 0
DWIDTH 37 0
BBX 33 47 2 -3
BITMAP
0000800000
0000C00000
0000C00000
0000C00000
3FFFFFFF00
1FFFFFFE00
0000000000
0000000000
0000000000
0000000000
01FFFFC000
01FFFFC000
018000C000
018000C000
018000C000
018000C000
018000C000
01FFFFC000
01FFFFC000
0000000000
0000000000
0000000000
0000000000
03FFFF8000
01FFFF8000
0000038000
0000060000
00001C0000
0000380000
0000600000
0000C00000
0000C00000
FFFFFFFF80
7FFFFFFF80
0000C00000
0000C00000
0000C00000
0000C00000
0000C00000
0000C00000
0000C00000
0000C00000
0000C00000
0000C00000
0000C00000
0000C00000
0000800000
ENDCHAR
STARTCHAR 4EAC
ENCODING 20140
SWIDTH 740 0
DWIDTH 37 0
BBX 33 46 2 -4
BITMAP
0000C00000
0000C00000
0000C00000
0000C00000
7FFFFFFF80
3FFFFFFF00
0000000000
0000000000
0000000000
0000000000
0000000000
00FFFFE000
00FFFFE000
00C0006000
00C0006000
00C0006000
00C0006000
00C0006000
00C0006000
00C0006000
00C0006000
00C0006000
00C0006000
00FFFFE000
00FFFFE000
0000600000
0000600000
0000600000
0000600000
0060600000
0060618000
006060C000
00C0604000
00C0606000
0180603000
0180601800
0300601C00
0200600C00
0600600E00
0C00600600
0800600700
1000600300
2000600300
4000600000
8000600000
0000600000
ENDCHAR
STARTCHAR 4EAD
ENCODING 20141
SWIDTH 720 0
DWIDTH 36 0
BBX 30 46 3 -4
BITMAP
00030000
00030000
00030000
00030000
FFFFFFFC
7FFFFFF8
00000000
00000000
00000000
00000000
03FFFF00
03FFFF00
03000300
03000300
03000300
03000300
03000300
03FFFF00
03FFFF00
00000000
00000000
00000000
FFFFFFFC
FFFFFFFC
C000000C
C000000C
C000000C
C000000C
80000008
07FFFFC0
03FFFF80
00018000
00018000
00018000
00018000
00018000
00018000
00018000
00018000
00018000
00018000
00018000
00018000
00018000
00018000
00018000
ENDCHAR
STARTCHAR 4EAE
ENCODING 20142
SWIDTH 740 0
DWIDTH 37 0
BBX 32 47 2 -5
BITMAP
00020000
00030000
00030000
00030000
FFFFFFFC
7FFFFFF8
00000000
00000000
00000000
00000000
03FFFF00
03FFFF00
03000300
03000300
03000300
03000300
03000300
03FFFF00
03FFFF00
00000000
00000000
00000000
FFFFFFFC
FFFFFFFC
C000000C
C000000C
C000000C
C000000C
C0FFFC0C
00FFFC00
00C00C00
00C00C00
00C00C00
00C00C00
00C00C00
00C00C00
00C00C00
01800C00
01800C00
01800C00
03000C04
03000C04
06000C04
04000C04
08000FFF
100007FE
60000000
ENDCHAR
STARTCHAR 4EB2
ENCODING 20146
SWIDTH 740 0
DWIDTH 37 0
BBX 32 46 2 -5
BITMAP
00008000
0000C000
0000C000
0000C000
0000C000
0FFFFFF8
07FFFFF0
00000000
00000200
00600600
00300600
00380600
001C0C00
001C0C00
00081800
00001000
7FFFFFFF
3FFFFFFE
0000C000
0000C000
0000C000
0000C000
0000C000
0000C000
0000C000
0FFFFFFC
07FFFFF8
0000C000
0000C000
0000C000
00E0C000
00E0C100
00C0C080
01C0C040
01C0C060
0380C030
0380C038
0700C018
0600C00C
0E00C00C
0C00C006
1800C007
3000C003
2000C003
4000C000
8000C000
ENDCHAR
STARTCHAR 4EB3
ENCODING 20147
SWIDTH 740 0
DWIDTH 37 0
BBX 33 45 2 -3
BITMAP
0001800000
0001800000
0001800000
7FFFFFFE00
3FFFFFFC00
0000000000
0000000000
0000000000
01FFFF8000
01FFFF8000
0180018000
0180018000
0180018000
0180018000
01FFFF8000
01FFFF8000
0000000000
0000000000
0000000000
7FFFFFFE00
7FFFFFFE00
6000000600
6000018600
60000F8600
6000FF0600
001FF00000
07FB000000
0003000000
0003000000
0003000000
0003000700
000301FF00
00037FFE00
001FFFC000
07FFF00000
FFFB000000
FE03000000
0003000000
0003000000
0003000000
0003000200
0003000100
0003800300
0003FFFF80
0001FFFF80
ENDCHAR
STARTCHAR 4EB5
ENCODING 20149
SWIDTH 720 0
DWIDTH 36 0
BBX 34 46 1 -4
BITMAP
0000800000
0000C00000
0000C00000
0000C00000
3FFFFFFF00
1FFFFFFE00
0000000000
0080100000
00C0180000
00C0180000
00C0180000
1FFEFFF000
0FFCFFF000
00C0183000
00C0183000
00C2183000
00CCF03000
00F0703000
01E0383000
07C06E3000
1FC0673000
3CC043B800
10C0C11800
00C1801900
00C1001E00
00C2000E00
00C4800F00
00C1C00600
0083800C00
0007001C00
0007401C00
000E203800
001C303000
0038184000
00F81D8000
01D80E0000
0398070000
0618038000
181801C000
301800E000
C018007800
0018003C00
0018001E00
0018000780
00180003C0
0018000080
ENDCHAR
STARTCHAR 4EBA
ENCODING 20154
SWIDTH 740 0
DWIDTH 37 0
BBX 31 47 3 -4
BITMAP
00030000
00030000
00030000
00030000
00030000
00030000
00030000
00030000
00030000
00030000
00030000
00070000
00070000
00070000
00070000
00068000
00068000
00068000
0004C000
000C4000
000C4000
000C6000
000C6000
00083000
00183000
00183000
00101800
00301800
00300C00
00300C00
00600E00
00600600
00400700
00C00300
00800380
01800180
010001C0
030000E0
020000E0
06000070
04000070
08000038
1000003C
1000001C
2000000E
4000000C
80000000
ENDCHAR
STARTCHAR 4EBB
ENCODING 20155
SWIDTH 740 0
DWIDTH 37 0
BBX 13 47 1 -4
BITMAP
0018
0038
0038
0030
0070
0070
0060
00E0
00C0
01C0
0180
0180
0380
0780
0780
0D80
0980
1180
2180
4180
8180
0180
0180
0180
0180
0180
0180
0180
0180
0180
0180
0180
0180
0180
0180
0180
0180
0180
0180
0180
0180
0180
0180
0180
0180
0180
0100
ENDCHAR
STARTCHAR 4EBF
ENCODING 20159
SWIDTH 740 0
DWIDTH 37 0
BBX 34 47 1 -5
BITMAP
0060000000
0060000000
0060000000
00E0000000
00C7FFFC00
00C3FFFC00
01C0001C00
0180001800
0180003800
0380003800
0300007000
0700007000
0700006000
0F0000E000
0F0000C000
1B0001C000
3300018000
2300038000
4300038000
8300070000
0300070000
03000E0000
03000E0000
03000C0000
03001C0000
0300180000
0300380000
0300380000
0300700000
0300700000
0300E00000
0300E00000
0300C00000
0301C00000
0301800000
0303800000
0303800000
0307000000
0307000000
0306000000
0306000100
0306000100
0306000100
03078003C0
0303FFFFC0
0301FFFF80
0200000000
ENDCHAR
STARTCHAR 4EC0
ENCODING 20160
SWIDTH 720 0
DWIDTH 36 0
BBX 34 47 1 -4
BITMAP
0018020000
0038030000
0038030000
0030030000
0030030000
0070030000
0060030000
00E0030000
00C0030000
00C0030000
0180030000
0180030000
0380030000
0780030000
0780030000
0D80030000
1980030000
319FFFFFC0
618FFFFF80
8180030000
0180030000
0180030000
0180030000
0180030000
0180030000
0180030000
0180030000
0180030000
0180030000
0180030000
0180030000
0180030000
0180030000
0180030000
0180030000
0180030000
0180030000
0180030000
0180030000
0180030000
0180030000
0180030000
0180030000
0180030000
0180030000
0180030000
0100020000
ENDCHAR
STARTCHAR 4EC1
ENCODING 20161
SWIDTH 740 0
DWIDTH 37 0
BBX 33 46 2 -4
BITMAP
0030000000
0070000000
0070000000
0060000000
00E0000000
00C0000000
01C7FFFC00
0183FFF800
0180000000
0300000000
0300000000
0700000000
0F00000000
0F00000000
1B00000000
1300000000
2300000000
4300000000
8300000000
0300000000
0300000000
0300000000
0300000000
0300000000
0300000000
0300000000
0300000000
0300000000
0300000000
0300000000
0300000000
0300000000
0300000000
0300000000
0300000000
0300000000
0300000000
0300000000
0300000000
0300000000
0300000000
031FFFFF80
030FFFFF00
0300000000
0300000000
0200000000
ENDCHAR
STARTCHAR 4EC2
ENCODING 20162
SWIDTH 740 0
DWIDTH 37 0
BBX 33 46 1 -5
BITMAP
0018100000
0018180000
0038180000
0038180000
0030180000
0070180000
0060180000
00E0180000
00C0180000
01C3FFFF80
0183FFFF80
0380180180
0380180180
0780180180
0D80180180
0980180180
1180180180
2180180180
4180180180
8180180180
0180180180
0180180180
0180380180
0180380180
0180300180
0180300180
0180300180
0180300180
0180300180
0180700180
0180600180
0180600180
0180600180
0180400180
0180C00180
0180C00180
0180800180
0181800180
0181000180
0181000180
0182000180
0182000180
0184000180
0188000180
0190000180
0190000100
ENDCHAR
STARTCHAR 4EC3
ENCODING 20163
SWIDTH 740 0
DWIDTH 37 0
BBX 35 47 1 -5
BITMAP
0060000000
0060000000
00E0000000
00E0000000
00C7FFFFE0
00C3FFFFC0
01C000C000
018000C000
018000C000
038000C000
030000C000
070000C000
070000C000
0F0000C000
0F0000C000
1B0000C000
330000C000
230000C000
430000C000
830000C000
030000C000
030000C000
030000C000
030000C000
030000C000
030000C000
030000C000
030000C000
030000C000
030000C000
030000C000
030000C000
030000C000
030000C000
030000C000
030000C000
030000C000
030000C000
030000C000
030000C000
030000C000
030000C000
030000C000
030000C000
030007C000
030001C000
0200008000
ENDCHAR
STARTCHAR 4EC4
ENCODING 20164
SWIDTH 720 0
DWIDTH 36 0
BBX 33 45 1 -4
BITMAP
0FFFFFFF80
0FFFFFFF00
0C00000000
0C00000000
0C00180000
0C00180000
0C00180000
0C00180000
0C00180000
0C00180000
0C00180000
0C00180000
0C00180000
0C00180000
0C003C0000
0C003C0000
0C00340000
0C00340000
0C00360000
0C00360000
0C00360000
0C00320000
0C00630000
0C00630000
0C00610000
1C00618000
1C00C18000
1800C1C000
1800C0C000
180180C000
1801806000
1801806000
1803007000
1003003000
3006003800
3006001800
300C001C00
200C001C00
2018000E00
6030000E00
4020000700
4040000300
8080000380
8100000100
0200000000
ENDCHAR
STARTCHAR 4EC5
ENCODING 20165
SWIDTH 740 0
DWIDTH 37 0
BBX 35 47 1 -5
BITMAP
0060000000
0060000000
0060000000
00E7FFFE00
00E3FFFE00
00C0800E00
01C0800E00
01C0C00C00
0180400C00
0380400C00
0300400C00
0700401C00
0700601C00
0F00601800
0F00201800
1B00201800
3300303800
2300303000
4300103000
8300187000
0300186000
03000C6000
03000CE000
03000CC000
030006C000
030007C000
0300078000
0300038000
0300038000
0300078000
030007C000
030006C000
03000CE000
03001C6000
0300187000
0300303800
0300303800
0300601C00
0300400E00
0300C00E00
0301800700
0301000380
03020003C0
03040001C0
03080000E0
0310000040
0200000000
ENDCHAR
STARTCHAR 4EC6
ENCODING 20166
SWIDTH 740 0
DWIDTH 37 0
BBX 34 47 1 -4
BITMAP
000C020000
001C030000
001C030000
0018030000
0038030000
0038030000
0030030000
0070030000
0060030000
00E0030000
00C0030000
01C0030000
01C0030000
03C0030000
06C0030000
06C0038000
0CC0036000
18C0033000
20C0031800
40C0030C00
80C0030600
00C0030300
00C0030380
00C00301C0
00C00300C0
00C00300C0
00C0030000
00C0030000
00C0030000
00C0030000
00C0030000
00C0030000
00C0030000
00C0030000
00C0030000
00C0030000
00C0030000
00C0030000
00C0030000
00C0030000
00C0030000
00C0030000
00C0030000
00C0030000
00C0030000
00C0030000
0080020000
ENDCHAR
STARTCHAR 4EC7
ENCODING 20167
SWIDTH 720 0
DWIDTH 36 0
BBX 34 47 1 -5
BITMAP
0030400000
0070600000
0070600000
0060600000
00E0600000
00E0600000
00C0600000
01C0600000
0180600000
0380600000
031FFFF000
070FFFF000
0700603000
0F00603000
0F00603000
1B00603000
3300603000
2300603000
4300603000
8300603000
0300603000
0300603000
0300603000
0300E03000
0300C03000
0300C03000
0300C03000
0300C03000
0300C03000
0300C03000
0301C03000
0301803000
0301803000
0301803000
0301803000
0303003000
0303003000
0303003000
0306003000
0306003000
0304003000
030C003080
0308003080
03100039C0
0330001FC0
0320000FC0
0240000000
ENDCHAR
STARTCHAR 4EC9
ENCODING 20169
SWIDTH 740 0
DWIDTH 37 0
BBX 35 47 1 -5
BITMAP
0060000000
0060000000
0060000000
0061FFF000
00C1FFF000
00C1803000
00C1803000
01C1803000
0181803000
0381803000
0301803000
0701803000
0701803000
0F01803000
0F01803000
1B01803000
3301803000
2301803000
4301803000
8301803000
0301803000
0301803000
0301803000
0301803000
0301803000
0301803000
0301803000
0301803000
0303803000
0303003000
0303003000
0303003000
0303003000
0303003000
0303003000
0306003000
0306003000
0306003000
0304003000
030C003000
030C003080
0308003080
0318003080
03100039E0
0310001FE0
0320000FC0
0200000000
ENDCHAR
STARTCHAR 4ECA
ENCODING 20170
SWIDTH 700 0
DWIDTH 35 0
BBX 33 46 1 -4
BITMAP
0001800000
0001800000
0003800000
0003400000
0007600000
0006200000
000E100000
001C180000
00180C0000
0030060000
0070070000
00E2038000
00C101C000
018180E000
0301807000
0600C07800
0600C03C00
0C00E01F00
1000600F80
2000000300
4000000100
8000000000
0000000000
07FFFFC000
03FFFFC000
000000C000
0000018000
0000018000
0000038000
0000030000
0000030000
0000070000
0000060000
00000E0000
00000C0000
00000C0000
00001C0000
0000180000
0000380000
0000300000
0000300000
0000700000
0000600000
0000E00000
0000E00000
0000C00000
ENDCHAR
STARTCHAR 4ECB
ENCODING 20171
SWIDTH 740 0
DWIDTH 37 0
BBX 33 46 2 -4
BITMAP
0001C00000
0001C00000
0003800000
0003400000
0007600000
0006200000
000E100000
000C180000
00180C0000
0038060000
0030070000
0060038000
00C001C000
00C000E000
0180007000
0300007800
0600003C00
0C30041E00
1830060F80
3030060780
4030060100
8030060000
0030060000
0030060000
0030060000
0030060000
0030060000
0030060000
0060060000
0060060000
0060060000
0060060000
0060060000
0040060000
00C0060000
00C0060000
0080060000
0180060000
0180060000
0100060000
0200060000
0200060000
0400060000
0800060000
1000060000
0000040000
ENDCHAR
STARTCHAR 4ECD
ENCODING 20173
SWIDTH 740 0
DWIDTH 37 0
BBX 33 47 1 -5
BITMAP
0060000000
0060000000
00E0000000
00E7FFFE00
00C3FFFE00
00C0300E00
01C0301E00
0180301C00
0180301C00
0380301C00
0300303C00
0700303800
0700303800
0F00303800
0F00307800
1F00307000
1B00307F80
3300307F80
4300300180
8300300180
0300300180
0300300180
0300700180
0300600180
0300600180
0300600180
0300600180
0300600180
0300600180
0300E00180
0300C00180
0300C00180
0300C00180
0300C00180
0301800180
0301800180
0301800180
0303000180
0303000180
0306000180
0306000180
030C000180
0308000180
0318000180
0310000180
0320000180
0240000000
ENDCHAR
ENDFONT
